{"glyphs":{"0":{"ha":763,"x_min":19,"x_max":743,"o":"m 411 -17 q 321 -12 367 -24 q 238 22 275 -1 q 141 110 182 56 q 75 224 100 164 q 39 341 51 279 q 23 465 26 403 q 27 590 19 528 q 54 710 35 651 q 115 846 76 781 q 210 957 153 911 q 292 1004 246 986 q 386 1022 339 1022 q 472 1008 429 1024 q 550 965 514 992 q 631 882 596 931 q 689 781 665 833 q 724 663 711 724 q 740 539 738 601 q 735 415 743 476 q 710 294 728 353 q 662 182 690 236 q 593 83 633 128 q 510 18 557 46 q 411 -17 464 -10 m 544 867 q 560 858 551 858 q 574 863 568 857 q 582 877 581 868 q 576 894 583 886 q 540 934 560 915 q 497 968 521 953 q 482 976 492 972 q 462 984 472 981 q 442 988 451 988 q 426 986 432 989 q 415 962 411 979 q 438 946 419 944 q 468 937 449 947 q 496 919 488 926 q 522 894 511 908 q 544 867 533 881 m 572 828 q 574 810 569 817 q 587 802 579 804 q 602 803 594 800 q 614 815 610 807 q 615 833 619 826 q 601 842 610 840 q 584 841 593 844 q 572 828 575 838 m 258 379 q 277 323 265 351 q 307 272 289 294 q 347 235 325 249 q 397 225 369 221 q 423 234 411 228 q 446 249 435 240 q 475 283 463 264 q 497 322 488 301 q 523 398 515 358 q 532 478 531 438 q 528 567 535 522 q 506 654 522 613 q 478 707 494 682 q 439 749 463 732 q 347 750 393 779 q 288 682 310 726 q 255 584 265 638 q 246 476 244 531 q 258 379 247 422 z "},"1":{"ha":486,"x_min":-22,"x_max":464,"o":"m 349 -6 q 302 -12 326 -12 q 255 -4 278 -11 q 214 17 232 3 q 188 51 196 31 q 176 100 181 67 q 169 174 172 133 q 164 260 165 215 q 161 347 163 306 q 159 422 160 389 q 158 474 158 456 q 161 637 156 556 q 175 800 167 718 q 122 782 149 790 q 67 769 94 774 q 47 768 57 768 q 25 771 36 768 q 2 788 11 775 q -12 816 -7 800 q -20 849 -18 832 q -21 881 -22 865 q -10 919 -18 900 q 14 953 -1 939 q 45 969 28 964 q 81 979 63 975 q 192 1005 136 992 q 306 1013 249 1018 q 358 1008 332 1010 q 407 996 383 1006 q 431 983 419 990 q 451 964 443 975 q 464 922 464 947 q 457 874 464 910 q 442 799 450 839 q 426 723 433 758 q 417 675 418 688 q 403 500 404 588 q 404 325 401 413 q 408 264 404 306 q 415 178 413 222 q 417 93 418 133 q 407 35 417 53 q 383 9 400 19 q 349 -6 367 -1 m 371 822 q 374 801 368 808 q 387 792 379 793 q 402 797 394 792 q 413 817 410 803 q 413 832 413 821 q 415 856 414 843 q 415 879 415 868 q 415 894 415 890 q 411 937 415 915 q 393 974 407 958 q 370 981 383 985 q 357 961 357 976 q 363 944 357 956 q 369 928 365 940 q 374 911 374 915 q 374 893 374 906 q 374 867 374 881 q 373 840 374 853 q 371 822 372 828 m 367 722 q 384 717 374 715 q 399 729 394 719 q 397 752 406 742 q 375 760 389 763 q 359 744 363 757 q 367 722 356 731 z "},"2":{"ha":718,"x_min":22,"x_max":710,"o":"m 576 -3 q 430 -8 503 -11 q 282 -6 357 -6 q 223 -4 257 -6 q 155 3 189 -3 q 93 21 121 8 q 54 54 65 33 q 40 97 43 74 q 38 143 38 121 q 42 194 38 169 q 57 243 46 219 q 99 306 72 278 q 153 363 125 335 q 263 458 206 414 q 372 551 319 503 q 425 633 408 585 q 433 729 442 681 q 388 810 424 778 q 304 833 353 842 q 269 818 286 829 q 246 789 253 807 q 242 762 240 776 q 249 733 243 747 q 268 686 256 710 q 281 638 281 663 q 269 592 282 614 q 236 558 256 571 q 191 540 215 546 q 144 538 167 535 q 101 551 121 540 q 68 583 81 563 q 33 665 44 618 q 26 758 22 711 q 45 849 29 806 q 92 922 61 892 q 179 980 126 957 q 291 1013 232 1003 q 408 1017 350 1022 q 508 989 465 1011 q 594 914 560 961 q 643 826 625 874 q 665 729 661 778 q 656 638 668 683 q 622 553 644 593 q 565 475 599 511 q 497 406 532 439 q 414 322 454 365 q 342 228 374 278 q 399 227 357 228 q 488 226 442 226 q 576 224 535 225 q 633 219 618 222 q 660 209 647 217 q 682 189 674 201 q 706 123 701 161 q 694 54 710 85 q 661 19 681 31 q 620 4 642 8 q 576 -3 599 0 m 522 868 q 538 860 529 860 q 552 864 546 860 q 560 876 558 868 q 556 893 563 885 q 539 916 547 904 q 519 939 531 928 q 492 960 507 950 q 461 978 476 969 q 431 990 450 983 q 403 990 413 996 q 391 968 388 983 q 411 951 394 953 q 429 946 418 951 q 451 934 440 940 q 473 921 463 928 q 489 910 483 914 q 507 890 500 901 q 522 868 514 879 m 579 843 q 563 836 568 843 q 557 822 557 829 q 562 807 557 814 q 578 800 567 800 q 594 807 588 800 q 600 822 600 814 q 595 836 600 829 q 579 843 590 843 z "},"3":{"ha":725,"x_min":-10,"x_max":708,"o":"m 446 -19 q 367 -24 406 -24 q 288 -22 328 -25 q 197 -15 243 -19 q 107 0 151 -11 q 49 22 78 7 q 3 63 19 36 q -8 97 -7 76 q -6 136 -10 117 q 8 174 -1 156 q 29 206 17 193 q 88 235 54 232 q 105 233 93 235 q 131 229 117 232 q 156 224 144 226 q 172 219 168 221 q 190 215 176 218 q 219 210 203 213 q 248 204 235 207 q 265 201 261 201 q 324 191 294 194 q 385 190 354 188 q 421 199 403 193 q 453 217 439 204 q 474 256 468 232 q 475 301 481 281 q 447 352 468 329 q 400 389 425 375 q 380 399 390 394 q 358 404 369 403 q 325 408 349 406 q 274 413 301 410 q 223 419 247 417 q 190 426 199 422 q 168 443 178 432 q 154 467 158 454 q 151 534 143 499 q 183 593 160 569 q 206 607 193 601 q 232 613 218 613 q 268 610 250 613 q 306 608 286 608 q 366 622 336 607 q 418 660 396 636 q 438 685 429 671 q 449 717 447 700 q 442 747 450 733 q 422 770 435 760 q 394 787 410 781 q 363 796 379 793 q 306 799 335 800 q 250 797 278 799 q 212 797 238 797 q 159 797 186 796 q 108 800 132 797 q 72 810 83 803 q 53 828 61 817 q 42 851 46 839 q 35 886 36 867 q 39 924 35 906 q 51 960 43 943 q 72 986 60 976 q 105 1003 88 997 q 140 1013 122 1010 q 194 1017 168 1017 q 249 1015 221 1017 q 272 1017 260 1015 q 296 1017 285 1019 q 387 1021 340 1024 q 478 1007 433 1018 q 551 977 515 997 q 613 926 588 957 q 650 861 636 897 q 669 789 664 825 q 663 692 676 740 q 622 604 650 644 q 584 560 607 579 q 535 525 561 540 q 594 503 565 517 q 643 465 624 489 q 689 379 676 425 q 700 240 708 313 q 656 108 692 167 q 601 44 635 72 q 529 -1 568 15 q 489 -15 510 -11 q 446 -19 468 -18 m 532 897 q 546 895 539 893 q 557 903 553 897 q 562 915 561 908 q 557 928 563 921 q 546 938 554 931 q 535 947 538 944 q 507 963 521 957 q 478 975 493 969 q 445 982 468 978 q 413 983 422 986 q 397 967 400 981 q 404 947 393 954 q 417 942 410 943 q 431 942 424 942 q 465 935 449 942 q 497 921 482 928 q 515 909 507 917 q 532 897 522 901 m 558 867 q 569 852 561 854 q 586 853 578 850 q 599 865 594 857 q 599 883 603 874 q 587 895 594 893 q 572 894 579 897 q 560 884 565 892 q 558 867 556 876 z "},"4":{"ha":882,"x_min":19,"x_max":897,"o":"m 668 -1 q 622 -8 646 -8 q 574 0 597 -7 q 533 21 551 7 q 507 56 515 35 q 494 124 499 75 q 486 226 489 172 q 482 330 483 281 q 479 400 481 379 q 426 397 467 400 q 338 392 385 394 q 251 386 292 389 q 197 383 210 383 q 150 386 174 383 q 104 397 126 389 q 50 438 71 408 q 31 472 38 453 q 21 511 24 492 q 22 580 19 528 q 27 692 24 632 q 32 803 31 751 q 32 872 33 856 q 28 920 29 896 q 33 967 26 944 q 48 994 38 982 q 72 1014 58 1007 q 136 1026 101 1029 q 183 1022 160 1026 q 225 1006 206 1017 q 248 985 238 997 q 264 958 258 974 q 274 916 272 938 q 276 872 276 894 q 274 792 278 832 q 268 713 271 753 q 274 650 265 682 q 313 611 283 618 q 394 604 353 603 q 478 604 436 606 q 499 840 483 721 q 506 901 501 871 q 522 958 511 931 q 538 986 529 974 q 558 1006 546 999 q 595 1017 575 1017 q 635 1017 615 1018 q 687 1011 660 1015 q 735 997 714 1007 q 771 969 757 986 q 783 926 785 951 q 777 881 783 914 q 763 810 771 847 q 748 740 756 772 q 739 694 740 707 q 733 647 735 671 q 728 600 731 624 q 754 600 736 600 q 793 600 772 600 q 832 599 814 600 q 857 594 850 597 q 885 571 876 588 q 894 540 892 558 q 896 501 897 521 q 890 463 894 482 q 879 433 886 444 q 842 401 865 411 q 783 392 814 390 q 722 397 751 394 q 722 347 722 372 q 725 296 722 321 q 730 242 726 278 q 735 166 733 206 q 736 91 738 126 q 726 39 735 56 q 702 13 718 24 q 668 -1 686 3 m 699 821 q 701 805 696 811 q 713 797 706 799 q 728 798 721 794 q 739 811 736 801 q 744 840 742 818 q 747 869 746 863 q 749 914 750 892 q 740 957 747 936 q 719 971 735 972 q 700 954 703 969 q 703 931 699 949 q 707 907 707 914 q 706 864 708 886 q 699 821 703 842 m 699 728 q 722 738 714 725 q 721 763 731 750 q 699 770 713 774 q 683 753 686 767 q 685 738 681 744 q 699 728 690 731 z "},"5":{"ha":792,"x_min":11,"x_max":778,"o":"m 539 11 q 335 -13 442 -24 q 140 50 229 -3 q 40 149 79 86 q 19 197 26 171 q 15 247 11 222 q 60 316 21 292 q 144 338 100 340 q 180 329 163 336 q 210 308 197 322 q 217 298 211 306 q 227 282 222 290 q 237 266 232 274 q 243 256 242 258 q 269 219 256 236 q 303 192 283 203 q 344 180 322 181 q 389 183 367 179 q 471 223 432 192 q 525 296 510 254 q 537 375 538 333 q 524 453 536 417 q 497 506 514 481 q 454 546 479 532 q 399 560 429 560 q 342 551 369 561 q 278 519 308 539 q 217 485 249 500 q 167 478 193 475 q 118 493 140 481 q 95 511 106 500 q 79 536 85 522 q 72 562 74 549 q 71 589 71 575 q 83 745 72 668 q 108 900 94 822 q 112 928 111 914 q 115 954 113 942 q 124 978 118 967 q 140 999 131 990 q 162 1011 150 1007 q 186 1018 174 1015 q 264 1023 225 1025 q 343 1019 303 1021 q 390 1019 354 1019 q 467 1018 426 1018 q 544 1017 508 1018 q 592 1017 581 1017 q 642 1013 617 1015 q 688 994 668 1010 q 711 962 703 982 q 721 922 719 942 q 715 880 721 901 q 693 844 708 858 q 648 824 674 828 q 596 819 622 819 q 460 824 528 817 q 325 835 393 832 q 319 812 322 828 q 314 777 317 796 q 309 742 311 758 q 307 719 307 725 q 338 731 322 725 q 369 740 354 736 q 494 747 429 754 q 613 711 558 740 q 721 610 682 674 q 751 542 740 578 q 765 471 761 507 q 756 283 778 379 q 676 114 733 188 q 615 53 650 81 q 539 11 579 26 m 596 950 q 601 949 599 950 q 607 949 604 949 q 626 965 624 949 q 615 989 629 982 q 595 992 610 992 q 575 994 581 993 q 531 998 553 996 q 490 996 510 1000 q 474 977 475 992 q 485 956 472 963 q 504 954 494 951 q 550 956 528 958 q 596 950 572 953 m 640 946 q 654 926 640 931 q 678 933 668 922 q 681 953 685 943 q 667 967 678 964 q 648 963 656 969 q 640 946 640 957 z "},"6":{"ha":783,"x_min":17,"x_max":792,"o":"m 582 32 q 443 -6 517 1 q 299 0 369 -12 q 163 63 222 13 q 74 173 108 107 q 28 308 40 239 q 19 424 17 367 q 32 540 21 482 q 95 733 49 640 q 213 897 142 826 q 242 923 222 907 q 283 956 261 939 q 326 986 306 972 q 360 1003 347 1000 q 406 1005 382 1008 q 451 992 429 1001 q 491 966 474 982 q 517 929 508 950 q 511 857 533 890 q 463 811 492 829 q 410 771 433 793 q 353 710 381 743 q 311 639 326 678 q 550 654 429 683 q 659 606 607 640 q 743 524 711 572 q 774 458 763 493 q 788 386 785 422 q 779 277 792 331 q 740 176 767 224 q 672 92 713 129 q 582 32 632 54 m 207 832 q 209 815 204 822 q 220 806 214 808 q 234 806 226 803 q 246 817 242 808 q 260 834 251 826 q 275 851 268 842 q 295 871 283 863 q 318 889 307 879 q 333 897 321 892 q 347 906 344 903 q 354 928 358 914 q 335 942 350 942 q 323 938 328 942 q 311 932 318 935 q 302 928 307 929 q 294 924 297 926 q 272 906 283 914 q 250 886 260 897 q 242 877 246 882 q 233 868 238 872 q 218 851 228 863 q 207 832 208 839 m 168 779 q 165 756 160 768 q 183 744 171 744 q 202 754 196 744 q 204 775 208 764 q 187 788 199 786 q 168 779 175 789 m 289 275 q 340 231 308 246 q 407 217 372 217 q 474 232 442 217 q 524 276 506 247 q 540 344 544 308 q 510 406 536 379 q 460 438 488 428 q 405 449 433 449 q 349 438 376 449 q 300 404 321 426 q 272 342 275 376 q 289 275 269 307 z "},"7":{"ha":769,"x_min":-12,"x_max":799,"o":"m 264 -22 q 229 -33 249 -32 q 190 -32 210 -35 q 140 -14 165 -26 q 96 17 115 -1 q 65 59 76 36 q 54 107 53 82 q 65 160 56 135 q 85 210 75 185 q 160 382 121 297 q 240 553 200 467 q 304 674 269 615 q 375 792 339 733 q 183 779 279 781 q 127 780 156 779 q 71 786 99 781 q 31 800 51 790 q 0 828 11 810 q -10 858 -7 839 q -12 899 -12 878 q -10 938 -12 919 q -1 969 -7 957 q 35 1010 10 997 q 66 1019 50 1017 q 97 1022 82 1021 q 134 1024 107 1024 q 192 1024 161 1024 q 251 1024 224 1024 q 289 1024 279 1024 q 465 1030 376 1025 q 640 1026 553 1035 q 701 1015 671 1024 q 756 986 732 1006 q 793 918 788 960 q 778 842 799 876 q 688 722 738 778 q 594 604 639 667 q 494 440 539 525 q 410 268 450 356 q 383 203 400 247 q 347 114 367 160 q 305 29 326 68 q 264 -22 283 -10 m 613 947 q 638 953 628 940 q 638 979 649 965 q 623 987 633 985 q 601 990 613 989 q 577 992 589 992 q 558 993 565 992 q 542 993 554 993 q 515 992 529 993 q 488 991 500 992 q 471 990 475 990 q 456 985 461 990 q 450 972 451 979 q 453 957 449 964 q 467 949 457 950 q 483 948 471 947 q 509 949 496 949 q 535 951 522 950 q 551 953 547 953 q 565 952 556 953 q 583 951 574 951 q 601 949 593 950 q 613 947 610 949 m 676 932 q 701 917 686 913 q 717 943 717 921 q 708 956 717 953 q 692 958 700 960 q 678 949 683 956 q 676 932 672 942 z "},"8":{"ha":756,"x_min":18,"x_max":739,"o":"m 457 -19 q 344 -23 400 -26 q 233 -6 288 -19 q 163 19 197 4 q 100 61 128 35 q 55 119 72 86 q 29 189 38 153 q 23 277 18 232 q 43 363 28 322 q 92 458 61 413 q 167 533 122 504 q 113 585 136 558 q 69 661 85 618 q 53 749 53 704 q 74 849 51 799 q 133 933 97 899 q 185 973 157 957 q 243 1000 213 989 q 351 1022 294 1019 q 461 1010 408 1024 q 525 988 494 1003 q 583 953 556 972 q 651 884 622 925 q 692 797 681 843 q 700 728 700 764 q 689 661 700 693 q 649 583 676 619 q 585 522 621 547 q 651 466 621 499 q 701 394 682 433 q 731 301 722 350 q 732 203 739 251 q 697 113 724 156 q 635 42 671 71 q 551 -1 597 14 q 457 -19 504 -15 m 519 915 q 546 915 533 904 q 551 942 558 926 q 535 956 549 947 q 517 968 522 965 q 468 988 493 979 q 418 994 443 997 q 406 992 413 993 q 397 985 400 990 q 394 966 390 976 q 408 953 397 956 q 419 952 414 950 q 429 953 424 954 q 506 926 471 949 q 513 921 510 924 q 519 915 517 918 m 551 890 q 563 870 551 876 q 585 872 574 864 q 594 892 594 879 q 582 910 593 904 q 561 908 571 915 q 551 890 551 901 m 299 708 q 326 666 308 681 q 364 649 344 651 q 402 653 383 646 q 433 675 421 660 q 463 743 460 704 q 435 806 465 782 q 368 828 406 829 q 310 796 331 826 q 294 753 297 778 q 299 708 290 729 m 296 218 q 365 183 324 192 q 443 188 407 174 q 478 210 463 194 q 499 246 494 226 q 498 294 506 269 q 475 338 490 319 q 434 374 458 356 q 385 401 410 392 q 336 406 360 410 q 297 375 313 401 q 281 337 288 358 q 274 294 275 315 q 278 252 272 272 q 296 218 283 232 z "},"9":{"ha":785,"x_min":-8,"x_max":768,"o":"m 451 7 q 407 -8 431 -6 q 360 -5 383 -10 q 315 13 336 0 q 281 46 294 26 q 265 75 271 60 q 261 106 260 90 q 273 138 264 122 q 294 165 282 153 q 335 196 314 182 q 375 226 356 210 q 432 288 406 254 q 474 358 458 321 q 349 332 413 335 q 222 347 285 329 q 144 379 182 358 q 76 431 106 400 q 26 504 46 463 q 0 589 7 546 q 2 701 -8 644 q 38 807 13 757 q 103 897 64 857 q 194 963 143 938 q 337 1003 261 994 q 486 999 413 1011 q 558 975 522 992 q 622 935 593 958 q 710 825 676 890 q 757 689 744 760 q 766 574 768 632 q 753 457 764 515 q 690 265 736 358 q 572 100 643 171 q 515 49 544 72 q 451 7 485 26 m 578 861 q 601 854 588 850 q 615 874 615 858 q 610 887 615 881 q 600 899 606 893 q 514 960 564 939 q 484 969 503 964 q 456 967 465 975 q 449 944 444 958 q 469 931 454 931 q 486 926 475 931 q 509 915 497 921 q 531 903 521 910 q 546 893 542 897 q 563 878 550 890 q 578 861 575 865 m 624 799 q 644 796 633 792 q 658 811 656 800 q 653 831 661 822 q 633 836 644 839 q 616 820 619 833 q 624 799 613 807 m 308 567 q 396 550 351 543 q 471 582 440 557 q 512 645 501 607 q 496 724 522 683 q 443 769 476 754 q 374 782 410 783 q 306 763 339 781 q 256 714 274 746 q 244 672 244 693 q 251 631 243 650 q 273 594 258 611 q 308 567 288 578 z "},"\u0000":{"ha":0,"x_min":0,"x_max":0,"o":""},"\r":{"ha":347,"x_min":0,"x_max":0,"o":""}," ":{"ha":347,"x_min":0,"x_max":0,"o":""},"!":{"ha":339,"x_min":33,"x_max":318,"o":"m 264 254 q 240 235 256 242 q 205 224 224 228 q 167 219 186 219 q 133 222 147 219 q 78 249 100 229 q 56 290 63 264 q 47 360 51 310 q 40 468 43 411 q 36 576 38 525 q 35 647 35 626 q 38 706 35 664 q 45 796 40 749 q 56 885 50 843 q 65 944 61 928 q 79 983 71 964 q 104 1013 88 1001 q 141 1024 121 1024 q 181 1024 161 1025 q 218 1021 197 1024 q 258 1012 239 1018 q 293 996 278 1006 q 314 971 308 986 q 316 948 318 960 q 311 925 314 936 q 304 893 310 917 q 292 842 299 869 q 281 790 286 814 q 274 758 275 767 q 260 622 263 690 q 261 483 258 553 q 267 434 263 467 q 273 366 271 401 q 274 299 275 331 q 264 254 274 268 m 231 932 q 251 928 240 925 q 264 943 261 932 q 257 967 267 954 q 239 988 247 981 q 212 999 232 993 q 183 1004 192 1004 q 169 1000 175 1004 q 162 989 164 996 q 163 976 160 982 q 172 965 165 969 q 193 960 176 963 q 214 954 210 957 q 222 943 219 950 q 231 932 225 936 m 238 897 q 242 881 235 886 q 259 877 250 876 q 275 883 268 878 q 279 899 282 888 q 259 919 275 919 q 238 897 243 918 m 192 -25 q 146 -26 168 -26 q 103 -18 124 -25 q 76 -9 89 -15 q 53 8 63 -3 q 41 31 44 18 q 38 54 38 43 l 38 56 q 47 118 33 90 q 64 140 53 131 q 88 154 75 149 q 124 161 101 158 q 170 164 146 164 q 217 160 194 164 q 251 150 239 157 q 276 122 269 139 q 285 90 283 108 q 285 55 288 72 q 274 22 282 38 q 254 -4 267 6 q 224 -19 240 -15 q 192 -25 207 -24 z "},"\"":{"ha":575,"x_min":22,"x_max":554,"o":"m 211 693 q 182 681 199 683 q 150 678 165 678 q 119 677 138 678 q 83 678 101 676 q 50 685 65 681 q 29 700 35 689 q 25 717 26 706 q 24 740 24 728 q 24 765 24 753 q 25 782 25 776 q 25 810 25 789 q 25 855 25 831 q 25 900 25 879 q 24 928 25 921 q 23 940 24 932 q 22 958 22 949 q 23 976 22 968 q 25 988 24 983 q 46 1007 32 1003 q 73 1012 54 1010 q 113 1015 92 1014 q 153 1017 133 1017 q 181 1015 172 1017 q 206 1010 193 1014 q 228 999 218 1007 q 244 977 239 990 q 253 951 250 964 q 256 914 256 932 q 256 876 256 896 q 253 833 256 860 q 247 779 251 807 q 233 728 242 751 q 211 693 225 704 m 510 688 q 481 675 497 678 q 449 672 464 672 q 418 672 436 672 q 382 672 400 671 q 349 678 364 674 q 328 694 333 683 q 324 711 325 700 q 322 735 322 722 q 323 758 322 747 q 324 775 324 769 q 324 804 324 783 q 324 849 324 825 q 324 893 324 872 q 322 921 324 914 q 321 951 321 929 q 324 982 321 974 q 344 1001 329 996 q 372 1006 353 1004 q 411 1009 390 1008 q 451 1010 432 1010 q 479 1010 471 1010 q 504 1004 492 1008 q 526 993 517 1000 q 543 972 538 985 q 551 946 549 958 q 554 908 554 926 q 554 871 554 890 q 552 827 554 854 q 545 772 550 800 q 532 721 540 744 q 510 688 524 697 m 146 949 q 156 947 149 949 q 167 946 164 946 q 182 953 176 946 q 188 967 188 960 q 182 982 188 975 q 165 989 176 989 q 153 990 161 989 q 135 990 144 990 q 118 990 126 990 q 106 988 110 989 q 94 965 90 981 q 114 949 97 949 l 146 949 m 444 943 q 455 941 447 942 q 465 940 463 940 q 481 947 475 940 q 486 962 486 954 q 481 976 486 969 q 464 983 475 983 q 451 984 460 983 q 434 985 443 985 q 417 984 425 985 q 404 982 408 983 q 394 972 397 978 q 393 958 392 965 q 399 947 394 951 q 413 942 404 942 q 429 942 417 942 q 444 943 442 943 m 199 947 q 200 926 193 936 q 218 917 207 917 q 238 928 232 917 q 235 951 243 940 q 216 959 228 960 q 199 947 204 958 m 497 942 q 499 921 492 931 q 517 911 506 911 q 536 923 531 911 q 533 944 542 935 q 515 953 526 954 q 497 942 503 953 z "},"«":{"ha":575,"x_min":22,"x_max":554,"o":"m 211 693 q 182 681 199 683 q 150 678 165 678 q 119 677 138 678 q 83 678 101 676 q 50 685 65 681 q 29 700 35 689 q 25 717 26 706 q 24 740 24 728 q 24 765 24 753 q 25 782 25 776 q 25 810 25 789 q 25 855 25 831 q 25 900 25 879 q 24 928 25 921 q 23 940 24 932 q 22 958 22 949 q 23 976 22 968 q 25 988 24 983 q 46 1007 32 1003 q 73 1012 54 1010 q 113 1015 92 1014 q 153 1017 133 1017 q 181 1015 172 1017 q 206 1010 193 1014 q 228 999 218 1007 q 244 977 239 990 q 253 951 250 964 q 256 914 256 932 q 256 876 256 896 q 253 833 256 860 q 247 779 251 807 q 233 728 242 751 q 211 693 225 704 m 510 688 q 481 675 497 678 q 449 672 464 672 q 418 672 436 672 q 382 672 400 671 q 349 678 364 674 q 328 694 333 683 q 324 711 325 700 q 322 735 322 722 q 323 758 322 747 q 324 775 324 769 q 324 804 324 783 q 324 849 324 825 q 324 893 324 872 q 322 921 324 914 q 321 951 321 929 q 324 982 321 974 q 344 1001 329 996 q 372 1006 353 1004 q 411 1009 390 1008 q 451 1010 432 1010 q 479 1010 471 1010 q 504 1004 492 1008 q 526 993 517 1000 q 543 972 538 985 q 551 946 549 958 q 554 908 554 926 q 554 871 554 890 q 552 827 554 854 q 545 772 550 800 q 532 721 540 744 q 510 688 524 697 m 146 949 q 156 947 149 949 q 167 946 164 946 q 182 953 176 946 q 188 967 188 960 q 182 982 188 975 q 165 989 176 989 q 153 990 161 989 q 135 990 144 990 q 118 990 126 990 q 106 988 110 989 q 94 965 90 981 q 114 949 97 949 l 146 949 m 444 943 q 455 941 447 942 q 465 940 463 940 q 481 947 475 940 q 486 962 486 954 q 481 976 486 969 q 464 983 475 983 q 451 984 460 983 q 434 985 443 985 q 417 984 425 985 q 404 982 408 983 q 394 972 397 978 q 393 958 392 965 q 399 947 394 951 q 413 942 404 942 q 429 942 417 942 q 444 943 442 943 m 199 947 q 200 926 193 936 q 218 917 207 917 q 238 928 232 917 q 235 951 243 940 q 216 959 228 960 q 199 947 204 958 m 497 942 q 499 921 492 931 q 517 911 506 911 q 536 923 531 911 q 533 944 542 935 q 515 953 526 954 q 497 942 503 953 z "},"»":{"ha":575,"x_min":22,"x_max":554,"o":"m 211 693 q 182 681 199 683 q 150 678 165 678 q 119 677 138 678 q 83 678 101 676 q 50 685 65 681 q 29 700 35 689 q 25 717 26 706 q 24 740 24 728 q 24 765 24 753 q 25 782 25 776 q 25 810 25 789 q 25 855 25 831 q 25 900 25 879 q 24 928 25 921 q 23 940 24 932 q 22 958 22 949 q 23 976 22 968 q 25 988 24 983 q 46 1007 32 1003 q 73 1012 54 1010 q 113 1015 92 1014 q 153 1017 133 1017 q 181 1015 172 1017 q 206 1010 193 1014 q 228 999 218 1007 q 244 977 239 990 q 253 951 250 964 q 256 914 256 932 q 256 876 256 896 q 253 833 256 860 q 247 779 251 807 q 233 728 242 751 q 211 693 225 704 m 510 688 q 481 675 497 678 q 449 672 464 672 q 418 672 436 672 q 382 672 400 671 q 349 678 364 674 q 328 694 333 683 q 324 711 325 700 q 322 735 322 722 q 323 758 322 747 q 324 775 324 769 q 324 804 324 783 q 324 849 324 825 q 324 893 324 872 q 322 921 324 914 q 321 951 321 929 q 324 982 321 974 q 344 1001 329 996 q 372 1006 353 1004 q 411 1009 390 1008 q 451 1010 432 1010 q 479 1010 471 1010 q 504 1004 492 1008 q 526 993 517 1000 q 543 972 538 985 q 551 946 549 958 q 554 908 554 926 q 554 871 554 890 q 552 827 554 854 q 545 772 550 800 q 532 721 540 744 q 510 688 524 697 m 146 949 q 156 947 149 949 q 167 946 164 946 q 182 953 176 946 q 188 967 188 960 q 182 982 188 975 q 165 989 176 989 q 153 990 161 989 q 135 990 144 990 q 118 990 126 990 q 106 988 110 989 q 94 965 90 981 q 114 949 97 949 l 146 949 m 444 943 q 455 941 447 942 q 465 940 463 940 q 481 947 475 940 q 486 962 486 954 q 481 976 486 969 q 464 983 475 983 q 451 984 460 983 q 434 985 443 985 q 417 984 425 985 q 404 982 408 983 q 394 972 397 978 q 393 958 392 965 q 399 947 394 951 q 413 942 404 942 q 429 942 417 942 q 444 943 442 943 m 199 947 q 200 926 193 936 q 218 917 207 917 q 238 928 232 917 q 235 951 243 940 q 216 959 228 960 q 199 947 204 958 m 497 942 q 499 921 492 931 q 517 911 506 911 q 536 923 531 911 q 533 944 542 935 q 515 953 526 954 q 497 942 503 953 z "},"„":{"ha":575,"x_min":22,"x_max":554,"o":"m 211 693 q 182 681 199 683 q 150 678 165 678 q 119 677 138 678 q 83 678 101 676 q 50 685 65 681 q 29 700 35 689 q 25 717 26 706 q 24 740 24 728 q 24 765 24 753 q 25 782 25 776 q 25 810 25 789 q 25 855 25 831 q 25 900 25 879 q 24 928 25 921 q 23 940 24 932 q 22 958 22 949 q 23 976 22 968 q 25 988 24 983 q 46 1007 32 1003 q 73 1012 54 1010 q 113 1015 92 1014 q 153 1017 133 1017 q 181 1015 172 1017 q 206 1010 193 1014 q 228 999 218 1007 q 244 977 239 990 q 253 951 250 964 q 256 914 256 932 q 256 876 256 896 q 253 833 256 860 q 247 779 251 807 q 233 728 242 751 q 211 693 225 704 m 510 688 q 481 675 497 678 q 449 672 464 672 q 418 672 436 672 q 382 672 400 671 q 349 678 364 674 q 328 694 333 683 q 324 711 325 700 q 322 735 322 722 q 323 758 322 747 q 324 775 324 769 q 324 804 324 783 q 324 849 324 825 q 324 893 324 872 q 322 921 324 914 q 321 951 321 929 q 324 982 321 974 q 344 1001 329 996 q 372 1006 353 1004 q 411 1009 390 1008 q 451 1010 432 1010 q 479 1010 471 1010 q 504 1004 492 1008 q 526 993 517 1000 q 543 972 538 985 q 551 946 549 958 q 554 908 554 926 q 554 871 554 890 q 552 827 554 854 q 545 772 550 800 q 532 721 540 744 q 510 688 524 697 m 146 949 q 156 947 149 949 q 167 946 164 946 q 182 953 176 946 q 188 967 188 960 q 182 982 188 975 q 165 989 176 989 q 153 990 161 989 q 135 990 144 990 q 118 990 126 990 q 106 988 110 989 q 94 965 90 981 q 114 949 97 949 l 146 949 m 444 943 q 455 941 447 942 q 465 940 463 940 q 481 947 475 940 q 486 962 486 954 q 481 976 486 969 q 464 983 475 983 q 451 984 460 983 q 434 985 443 985 q 417 984 425 985 q 404 982 408 983 q 394 972 397 978 q 393 958 392 965 q 399 947 394 951 q 413 942 404 942 q 429 942 417 942 q 444 943 442 943 m 199 947 q 200 926 193 936 q 218 917 207 917 q 238 928 232 917 q 235 951 243 940 q 216 959 228 960 q 199 947 204 958 m 497 942 q 499 921 492 931 q 517 911 506 911 q 536 923 531 911 q 533 944 542 935 q 515 953 526 954 q 497 942 503 953 z "},"‟":{"ha":575,"x_min":22,"x_max":554,"o":"m 211 693 q 182 681 199 683 q 150 678 165 678 q 119 677 138 678 q 83 678 101 676 q 50 685 65 681 q 29 700 35 689 q 25 717 26 706 q 24 740 24 728 q 24 765 24 753 q 25 782 25 776 q 25 810 25 789 q 25 855 25 831 q 25 900 25 879 q 24 928 25 921 q 23 940 24 932 q 22 958 22 949 q 23 976 22 968 q 25 988 24 983 q 46 1007 32 1003 q 73 1012 54 1010 q 113 1015 92 1014 q 153 1017 133 1017 q 181 1015 172 1017 q 206 1010 193 1014 q 228 999 218 1007 q 244 977 239 990 q 253 951 250 964 q 256 914 256 932 q 256 876 256 896 q 253 833 256 860 q 247 779 251 807 q 233 728 242 751 q 211 693 225 704 m 510 688 q 481 675 497 678 q 449 672 464 672 q 418 672 436 672 q 382 672 400 671 q 349 678 364 674 q 328 694 333 683 q 324 711 325 700 q 322 735 322 722 q 323 758 322 747 q 324 775 324 769 q 324 804 324 783 q 324 849 324 825 q 324 893 324 872 q 322 921 324 914 q 321 951 321 929 q 324 982 321 974 q 344 1001 329 996 q 372 1006 353 1004 q 411 1009 390 1008 q 451 1010 432 1010 q 479 1010 471 1010 q 504 1004 492 1008 q 526 993 517 1000 q 543 972 538 985 q 551 946 549 958 q 554 908 554 926 q 554 871 554 890 q 552 827 554 854 q 545 772 550 800 q 532 721 540 744 q 510 688 524 697 m 146 949 q 156 947 149 949 q 167 946 164 946 q 182 953 176 946 q 188 967 188 960 q 182 982 188 975 q 165 989 176 989 q 153 990 161 989 q 135 990 144 990 q 118 990 126 990 q 106 988 110 989 q 94 965 90 981 q 114 949 97 949 l 146 949 m 444 943 q 455 941 447 942 q 465 940 463 940 q 481 947 475 940 q 486 962 486 954 q 481 976 486 969 q 464 983 475 983 q 451 984 460 983 q 434 985 443 985 q 417 984 425 985 q 404 982 408 983 q 394 972 397 978 q 393 958 392 965 q 399 947 394 951 q 413 942 404 942 q 429 942 417 942 q 444 943 442 943 m 199 947 q 200 926 193 936 q 218 917 207 917 q 238 928 232 917 q 235 951 243 940 q 216 959 228 960 q 199 947 204 958 m 497 942 q 499 921 492 931 q 517 911 506 911 q 536 923 531 911 q 533 944 542 935 q 515 953 526 954 q 497 942 503 953 z "},"#":{"ha":1222,"x_min":-14,"x_max":1211,"o":"m 325 -19 q 278 -20 304 -24 q 227 -8 251 -17 q 183 15 203 0 q 154 49 164 29 q 145 79 147 63 q 145 113 143 96 q 151 146 147 129 q 157 178 154 163 q 113 177 135 176 q 71 181 92 178 q 39 190 51 183 q -1 238 11 207 q -14 298 -14 265 q 1 356 -14 331 q 32 383 13 372 q 71 397 51 393 q 99 401 78 399 q 142 406 119 404 q 185 410 165 408 q 214 413 206 413 l 239 517 q 194 515 217 515 q 151 521 172 515 q 123 538 136 526 q 100 564 110 549 q 81 629 83 592 q 97 694 79 667 q 122 719 107 710 q 154 733 138 728 q 186 738 163 735 q 237 744 210 742 q 288 749 264 747 q 319 753 311 751 q 334 787 324 761 q 357 841 344 813 q 381 895 369 869 q 396 929 392 921 q 424 972 408 951 q 463 1006 440 993 q 505 1015 479 1015 q 558 1008 531 1014 q 610 990 585 1001 q 653 969 636 979 q 676 953 665 963 q 693 931 686 943 q 701 896 704 915 q 694 869 701 888 q 676 832 686 851 q 658 796 667 813 q 644 771 649 779 q 783 771 714 774 q 821 845 803 808 q 858 918 839 882 q 883 956 869 938 q 915 989 897 974 q 938 1003 926 997 q 964 1013 950 1010 q 1003 1010 983 1015 q 1042 997 1022 1004 q 1086 979 1065 989 q 1126 956 1107 969 q 1150 935 1139 946 q 1167 910 1161 924 q 1164 858 1178 883 q 1152 837 1161 853 q 1133 803 1143 821 q 1113 771 1122 786 q 1099 750 1103 756 q 1147 737 1122 744 q 1186 711 1171 729 q 1203 678 1197 699 q 1210 633 1208 657 q 1208 587 1211 610 q 1199 549 1204 564 q 1171 510 1190 525 q 1151 501 1161 503 q 1129 497 1140 499 q 1098 500 1121 497 q 1049 506 1075 503 q 1000 513 1024 510 q 968 517 976 515 q 948 469 957 493 q 929 419 939 444 q 988 414 958 417 q 1044 400 1017 411 q 1074 386 1060 394 q 1097 364 1089 378 q 1108 333 1104 353 q 1113 292 1111 314 q 1112 251 1114 271 q 1106 218 1110 231 q 1088 185 1100 200 q 1057 163 1075 169 q 1016 160 1044 158 q 956 165 988 161 q 897 174 925 169 q 854 182 868 179 q 837 124 846 153 q 817 68 828 96 q 797 29 808 49 q 767 1 786 10 q 691 -8 732 -14 q 617 18 650 -1 q 585 41 600 28 q 564 72 571 54 q 560 137 551 103 q 578 203 568 171 q 508 202 542 203 q 439 200 474 201 q 430 156 436 185 q 415 97 424 128 q 397 40 407 67 q 375 3 386 14 q 325 -19 356 -15 m 601 919 q 619 914 610 913 q 633 922 628 915 q 638 936 638 928 q 629 951 638 944 q 597 972 614 963 q 561 985 581 981 q 539 990 550 988 q 518 988 528 993 q 508 976 510 983 q 508 962 506 968 q 517 951 510 956 q 532 949 524 946 q 549 947 538 950 q 567 940 561 943 q 585 932 576 938 q 601 919 593 926 m 628 868 q 651 862 638 857 q 665 882 665 867 q 649 903 665 899 q 626 893 633 906 q 628 868 618 881 m 532 539 q 513 484 522 511 q 496 429 504 457 q 650 433 572 435 q 657 453 651 438 q 668 487 663 469 q 679 520 674 504 q 686 542 685 536 q 609 541 647 542 q 532 539 571 540 z "},"$":{"ha":718,"x_min":18,"x_max":700,"o":"m 390 -44 q 345 -44 372 -46 q 308 -26 318 -42 q 305 -12 306 -22 q 304 8 304 -3 q 306 29 304 19 q 307 44 307 39 q 215 49 261 46 q 125 64 169 53 q 90 73 107 68 q 58 88 74 78 q 25 142 32 107 q 24 202 18 171 q 47 257 31 233 q 66 272 54 267 q 89 281 78 278 q 133 285 111 286 q 178 281 156 283 q 261 261 221 274 q 344 246 301 249 q 390 249 367 244 q 433 263 414 253 q 463 288 451 272 q 469 328 474 304 q 456 356 467 343 q 432 379 444 369 q 396 398 415 390 q 357 411 376 406 q 309 427 333 418 q 261 444 285 436 q 197 471 229 457 q 135 503 165 485 q 95 533 114 517 q 61 568 76 549 q 28 649 36 603 q 28 727 21 688 q 54 801 35 767 q 92 851 69 829 q 143 890 115 874 q 222 924 181 913 q 307 942 264 936 q 301 975 304 958 q 301 1008 299 992 q 314 1038 301 1026 q 340 1048 325 1047 q 368 1050 354 1049 q 396 1051 382 1051 q 422 1047 410 1051 q 438 1031 433 1043 q 444 1003 443 1018 q 444 973 446 989 q 443 944 443 957 q 492 941 460 944 q 558 932 524 938 q 623 918 593 926 q 665 899 653 910 q 685 872 678 888 q 694 839 692 856 q 695 803 697 822 q 686 765 693 783 q 668 733 679 747 q 642 714 657 719 q 603 706 622 707 q 564 708 583 706 q 506 719 535 713 q 449 732 476 725 q 369 745 411 742 q 293 732 328 749 q 253 690 265 718 q 260 638 240 663 q 281 622 265 629 q 315 608 297 614 q 351 596 333 601 q 379 588 369 590 q 510 535 446 568 q 626 457 574 501 q 665 410 650 438 q 688 353 681 382 q 687 246 700 299 q 636 151 674 193 q 548 88 600 111 q 443 54 496 64 q 448 21 446 38 q 446 -11 450 4 q 429 -35 440 -29 q 410 -42 421 -40 q 390 -44 400 -43 m 535 883 q 556 877 540 882 q 579 874 572 872 q 597 890 594 876 q 583 910 599 903 q 565 915 578 913 q 536 921 551 918 q 507 925 521 924 q 488 926 493 926 q 472 922 478 926 q 465 910 467 917 q 467 898 464 904 q 481 890 471 892 q 508 887 494 888 q 535 883 521 886 m 613 861 q 620 847 611 851 q 639 844 629 843 q 653 859 651 847 q 644 878 656 871 q 626 878 636 885 q 613 861 615 872 z "},"%":{"ha":1111,"x_min":-15,"x_max":1129,"o":"m 346 564 q 252 522 303 529 q 154 528 201 514 q 67 576 107 542 q 7 663 28 611 q -10 719 -4 690 q -14 778 -15 749 q 5 867 -12 822 q 54 944 22 913 q 139 1001 89 981 q 238 1015 189 1022 q 338 976 294 1007 q 406 899 381 944 q 439 800 432 854 q 431 690 446 746 q 397 620 419 653 q 346 564 375 588 m 446 10 q 412 -3 431 -1 q 374 -3 393 -6 q 321 13 347 1 q 274 41 294 24 q 242 81 254 58 q 233 131 231 103 q 247 182 235 149 q 276 256 258 215 q 313 342 293 297 q 353 426 333 386 q 388 499 372 467 q 413 549 404 532 q 457 636 433 593 q 507 722 481 679 q 535 767 514 735 q 579 835 556 799 q 624 902 603 871 q 656 944 646 933 q 689 981 671 964 q 731 1006 707 997 q 776 1008 750 1013 q 814 996 796 1004 q 849 978 832 988 q 888 953 868 967 q 922 921 907 939 q 940 896 933 910 q 947 867 947 882 q 944 844 949 856 q 933 822 940 832 q 903 783 926 813 q 853 721 881 754 q 803 658 826 688 q 772 619 779 629 q 686 485 725 554 q 613 343 647 415 q 592 303 601 324 q 574 261 582 282 q 551 205 565 242 q 518 128 536 168 q 481 56 500 89 q 446 10 463 22 m 821 893 q 835 888 828 888 q 849 894 843 889 q 855 908 854 900 q 850 924 856 915 q 826 942 842 933 q 792 956 810 951 q 756 963 774 961 q 725 963 738 965 q 710 952 714 960 q 708 937 707 944 q 716 924 710 929 q 733 921 722 918 q 760 922 746 924 q 786 915 774 919 q 805 906 797 913 q 821 893 813 900 m 854 858 q 863 840 854 846 q 883 839 872 833 q 896 856 894 844 q 888 875 897 868 q 865 877 876 883 q 854 858 854 871 m 174 788 q 174 729 163 753 q 206 697 186 706 q 246 699 225 689 q 274 746 267 710 q 269 797 279 772 q 232 828 258 822 q 197 818 213 831 q 174 788 181 806 m 1028 43 q 934 1 985 10 q 836 8 883 -7 q 750 56 789 22 q 690 142 711 90 q 669 257 667 196 q 688 347 671 301 q 738 425 706 392 q 822 481 772 461 q 921 494 872 501 q 1021 455 978 486 q 1090 378 1064 424 q 1122 279 1115 333 q 1114 169 1129 225 q 1081 100 1103 133 q 1028 43 1058 67 m 857 267 q 858 209 846 233 q 889 176 869 185 q 929 178 908 168 q 957 225 950 189 q 952 276 963 251 q 915 307 942 301 q 880 297 896 310 q 857 267 864 285 z "},"&":{"ha":836,"x_min":-10,"x_max":843,"o":"m 449 8 q 372 -4 411 -3 q 294 -3 333 -6 q 188 15 242 0 q 92 63 135 31 q 38 121 60 86 q 6 194 15 156 q 1 315 -10 253 q 40 431 13 378 q 75 482 56 458 q 118 528 94 506 q 157 564 138 546 q 199 597 176 582 q 165 681 179 638 q 146 769 151 725 q 147 838 143 803 q 167 903 151 872 q 197 947 178 926 q 240 982 217 967 q 339 1025 289 1013 q 445 1033 390 1036 q 547 1007 500 1029 q 622 954 588 988 q 668 879 656 921 q 674 763 686 824 q 631 654 663 701 q 573 582 606 615 q 504 521 540 549 q 491 509 501 518 q 478 497 481 500 q 567 382 515 432 q 599 439 586 408 q 632 496 613 469 q 703 530 660 531 q 783 503 747 529 q 813 471 800 490 q 825 431 826 451 q 818 401 824 415 q 806 374 813 388 q 768 313 790 342 q 719 257 746 283 q 763 240 742 249 q 804 219 785 232 q 824 203 815 213 q 838 181 833 193 q 840 147 843 165 q 827 111 836 129 q 806 77 818 93 q 781 51 793 61 q 737 30 761 36 q 689 26 713 24 q 625 49 656 32 q 567 85 594 65 q 513 38 543 57 q 449 8 482 19 m 547 913 q 565 907 556 906 q 579 915 574 908 q 585 929 585 921 q 576 944 585 938 q 563 958 569 951 q 547 971 556 965 q 528 983 543 974 q 510 994 513 992 q 480 1006 501 999 q 449 1013 458 1013 l 428 1013 q 412 1006 417 1013 q 407 992 407 999 q 412 978 407 985 q 428 971 417 971 q 438 972 431 971 q 447 971 444 972 q 467 965 451 969 q 486 958 482 961 q 497 953 490 957 q 513 943 504 949 q 528 932 521 938 q 538 924 535 926 q 542 918 540 921 q 547 913 544 915 m 582 889 q 585 867 576 878 q 606 860 593 857 q 622 874 617 863 q 618 894 626 885 q 599 902 611 904 q 582 889 588 900 m 350 804 q 353 735 342 771 q 382 668 364 699 q 417 698 399 683 q 450 729 435 713 q 467 753 460 740 q 476 779 474 765 q 468 828 481 806 q 431 854 456 850 q 381 844 404 858 q 350 804 357 831 m 290 208 q 319 206 304 204 q 349 210 335 207 q 381 222 365 214 q 411 242 397 231 q 362 300 385 269 q 319 365 339 331 q 268 313 286 346 q 256 283 260 299 q 256 252 253 267 q 267 226 258 238 q 290 208 275 214 z "},"'":{"ha":278,"x_min":21,"x_max":258,"o":"m 213 711 q 176 697 197 699 q 136 694 156 694 q 109 694 125 694 q 78 697 93 694 q 49 703 63 699 q 31 718 36 708 q 26 735 28 724 q 25 759 25 746 q 26 784 25 772 q 26 801 26 796 q 26 829 26 808 q 26 873 26 850 q 26 917 26 896 q 25 944 26 938 q 22 975 24 960 q 26 1004 21 990 q 36 1018 29 1013 q 50 1026 43 1024 q 88 1033 64 1031 q 137 1035 111 1035 q 185 1032 163 1035 q 221 1022 208 1029 q 243 999 235 1013 q 253 972 250 986 q 257 943 256 958 q 258 887 258 921 q 253 818 257 853 q 240 754 249 783 q 213 711 231 725 m 147 965 q 158 965 150 965 q 168 964 165 964 q 183 969 178 964 q 188 983 188 975 q 185 997 189 990 q 172 1006 181 1003 q 165 1006 169 1007 q 158 1006 161 1006 q 133 1008 151 1007 q 108 1006 115 1008 q 96 982 93 999 q 117 965 99 965 q 132 966 119 965 q 147 965 144 967 m 200 965 q 201 944 194 954 q 219 935 208 935 q 239 946 233 935 q 236 968 244 957 q 217 977 229 978 q 200 965 206 976 z "},"‚":{"ha":278,"x_min":21,"x_max":258,"o":"m 213 711 q 176 697 197 699 q 136 694 156 694 q 109 694 125 694 q 78 697 93 694 q 49 703 63 699 q 31 718 36 708 q 26 735 28 724 q 25 759 25 746 q 26 784 25 772 q 26 801 26 796 q 26 829 26 808 q 26 873 26 850 q 26 917 26 896 q 25 944 26 938 q 22 975 24 960 q 26 1004 21 990 q 36 1018 29 1013 q 50 1026 43 1024 q 88 1033 64 1031 q 137 1035 111 1035 q 185 1032 163 1035 q 221 1022 208 1029 q 243 999 235 1013 q 253 972 250 986 q 257 943 256 958 q 258 887 258 921 q 253 818 257 853 q 240 754 249 783 q 213 711 231 725 m 147 965 q 158 965 150 965 q 168 964 165 964 q 183 969 178 964 q 188 983 188 975 q 185 997 189 990 q 172 1006 181 1003 q 165 1006 169 1007 q 158 1006 161 1006 q 133 1008 151 1007 q 108 1006 115 1008 q 96 982 93 999 q 117 965 99 965 q 132 966 119 965 q 147 965 144 967 m 200 965 q 201 944 194 954 q 219 935 208 935 q 239 946 233 935 q 236 968 244 957 q 217 977 229 978 q 200 965 206 976 z "},"‛":{"ha":278,"x_min":21,"x_max":258,"o":"m 213 711 q 176 697 197 699 q 136 694 156 694 q 109 694 125 694 q 78 697 93 694 q 49 703 63 699 q 31 718 36 708 q 26 735 28 724 q 25 759 25 746 q 26 784 25 772 q 26 801 26 796 q 26 829 26 808 q 26 873 26 850 q 26 917 26 896 q 25 944 26 938 q 22 975 24 960 q 26 1004 21 990 q 36 1018 29 1013 q 50 1026 43 1024 q 88 1033 64 1031 q 137 1035 111 1035 q 185 1032 163 1035 q 221 1022 208 1029 q 243 999 235 1013 q 253 972 250 986 q 257 943 256 958 q 258 887 258 921 q 253 818 257 853 q 240 754 249 783 q 213 711 231 725 m 147 965 q 158 965 150 965 q 168 964 165 964 q 183 969 178 964 q 188 983 188 975 q 185 997 189 990 q 172 1006 181 1003 q 165 1006 169 1007 q 158 1006 161 1006 q 133 1008 151 1007 q 108 1006 115 1008 q 96 982 93 999 q 117 965 99 965 q 132 966 119 965 q 147 965 144 967 m 200 965 q 201 944 194 954 q 219 935 208 935 q 239 946 233 935 q 236 968 244 957 q 217 977 229 978 q 200 965 206 976 z "},"‹":{"ha":278,"x_min":21,"x_max":258,"o":"m 213 711 q 176 697 197 699 q 136 694 156 694 q 109 694 125 694 q 78 697 93 694 q 49 703 63 699 q 31 718 36 708 q 26 735 28 724 q 25 759 25 746 q 26 784 25 772 q 26 801 26 796 q 26 829 26 808 q 26 873 26 850 q 26 917 26 896 q 25 944 26 938 q 22 975 24 960 q 26 1004 21 990 q 36 1018 29 1013 q 50 1026 43 1024 q 88 1033 64 1031 q 137 1035 111 1035 q 185 1032 163 1035 q 221 1022 208 1029 q 243 999 235 1013 q 253 972 250 986 q 257 943 256 958 q 258 887 258 921 q 253 818 257 853 q 240 754 249 783 q 213 711 231 725 m 147 965 q 158 965 150 965 q 168 964 165 964 q 183 969 178 964 q 188 983 188 975 q 185 997 189 990 q 172 1006 181 1003 q 165 1006 169 1007 q 158 1006 161 1006 q 133 1008 151 1007 q 108 1006 115 1008 q 96 982 93 999 q 117 965 99 965 q 132 966 119 965 q 147 965 144 967 m 200 965 q 201 944 194 954 q 219 935 208 935 q 239 946 233 935 q 236 968 244 957 q 217 977 229 978 q 200 965 206 976 z "},"›":{"ha":278,"x_min":21,"x_max":258,"o":"m 213 711 q 176 697 197 699 q 136 694 156 694 q 109 694 125 694 q 78 697 93 694 q 49 703 63 699 q 31 718 36 708 q 26 735 28 724 q 25 759 25 746 q 26 784 25 772 q 26 801 26 796 q 26 829 26 808 q 26 873 26 850 q 26 917 26 896 q 25 944 26 938 q 22 975 24 960 q 26 1004 21 990 q 36 1018 29 1013 q 50 1026 43 1024 q 88 1033 64 1031 q 137 1035 111 1035 q 185 1032 163 1035 q 221 1022 208 1029 q 243 999 235 1013 q 253 972 250 986 q 257 943 256 958 q 258 887 258 921 q 253 818 257 853 q 240 754 249 783 q 213 711 231 725 m 147 965 q 158 965 150 965 q 168 964 165 964 q 183 969 178 964 q 188 983 188 975 q 185 997 189 990 q 172 1006 181 1003 q 165 1006 169 1007 q 158 1006 161 1006 q 133 1008 151 1007 q 108 1006 115 1008 q 96 982 93 999 q 117 965 99 965 q 132 966 119 965 q 147 965 144 967 m 200 965 q 201 944 194 954 q 219 935 208 935 q 239 946 233 935 q 236 968 244 957 q 217 977 229 978 q 200 965 206 976 z "},"(":{"ha":604,"x_min":15,"x_max":596,"o":"m 475 -1 q 372 -1 424 -11 q 271 22 319 8 q 188 63 226 35 q 122 128 150 92 q 56 251 78 182 q 25 389 33 319 q 24 553 15 471 q 61 714 33 636 q 115 828 82 774 q 194 928 149 883 q 285 992 235 967 q 389 1029 335 1018 q 428 1033 403 1031 q 478 1038 453 1036 q 528 1037 504 1039 q 563 1026 551 1035 q 583 1001 575 1018 q 593 965 590 985 q 595 926 596 946 q 592 890 594 906 q 577 849 588 869 q 549 817 567 828 q 492 800 524 801 q 432 790 461 799 q 362 755 396 779 q 313 696 328 731 q 294 636 300 667 q 286 574 289 606 q 281 490 282 532 q 286 406 281 447 q 294 352 289 378 q 311 303 300 326 q 378 246 333 258 q 443 235 410 235 q 508 233 476 236 q 538 228 524 232 q 563 217 551 225 q 583 185 578 206 q 588 146 588 165 q 581 90 588 118 q 554 39 574 61 q 519 13 540 22 q 475 -1 497 3 m 325 963 q 320 948 319 956 q 326 935 321 940 q 340 929 332 931 q 356 935 347 928 q 386 950 369 946 q 418 961 403 954 q 435 964 426 965 q 453 965 444 963 q 469 983 468 968 q 457 1004 471 997 q 431 1006 449 1008 q 404 1001 413 1004 q 377 992 397 999 q 351 982 357 985 q 338 972 349 979 q 325 963 328 965 m 489 976 q 502 962 492 965 q 522 965 513 958 q 531 983 532 972 q 518 1000 529 994 q 497 999 507 1007 q 489 976 486 990 z "},")":{"ha":606,"x_min":10,"x_max":589,"o":"m 336 22 q 253 2 296 11 q 167 -6 211 -7 q 111 3 139 -4 q 63 28 83 10 q 29 78 39 47 q 18 140 19 110 q 19 174 17 157 q 33 206 22 192 q 54 222 42 217 q 79 231 67 228 q 160 235 119 238 q 236 249 200 233 q 286 288 267 261 q 313 353 306 318 q 322 425 319 389 q 324 503 325 465 q 319 581 324 542 q 310 638 315 610 q 293 694 304 667 q 245 753 278 729 q 176 789 213 778 q 113 799 146 799 q 56 818 81 800 q 26 852 36 831 q 14 896 17 874 q 10 939 10 917 q 15 981 10 961 q 31 1015 19 1000 q 61 1033 42 1029 q 99 1038 81 1038 q 136 1038 117 1039 q 208 1029 172 1035 q 279 1013 244 1024 q 403 936 349 986 q 482 841 449 894 q 539 729 515 788 q 578 572 567 654 q 582 410 589 490 q 553 263 575 336 q 488 132 532 190 q 420 66 460 96 q 336 22 381 36 m 250 935 q 267 929 258 928 q 280 937 275 931 q 285 951 285 943 q 276 967 285 960 q 260 977 272 969 q 242 988 247 985 q 222 994 235 990 q 195 1002 208 999 q 169 1007 182 1006 q 149 1004 156 1008 q 136 983 135 997 q 153 965 138 968 q 170 964 161 963 q 188 961 179 965 q 219 950 203 954 q 250 935 236 946 m 78 972 q 97 960 83 961 q 115 972 110 960 q 115 990 119 982 q 101 1001 111 999 q 80 994 89 1004 q 78 972 71 985 z "},"*":{"ha":376,"x_min":17,"x_max":364,"o":"m 265 626 q 249 626 260 624 q 227 644 238 631 q 207 675 217 658 q 189 708 197 692 q 175 735 181 725 q 165 718 172 731 q 148 692 157 706 q 131 667 139 679 q 121 650 124 654 q 112 638 117 643 q 100 628 107 632 q 82 626 92 624 q 62 635 72 629 q 42 650 51 642 q 26 665 33 658 q 20 683 19 672 q 26 700 21 693 q 41 719 29 704 q 66 750 53 733 q 90 781 79 767 q 106 800 101 796 q 79 810 92 806 q 54 819 67 815 q 36 826 46 822 q 22 836 26 829 q 17 856 17 844 q 24 879 18 868 q 38 898 29 890 q 56 908 46 906 q 94 904 75 913 q 133 888 114 896 q 130 910 132 894 q 126 942 128 925 q 125 974 125 958 q 128 996 125 989 q 138 1007 131 1003 q 151 1013 144 1011 q 172 1015 160 1014 q 196 1013 183 1015 q 219 1008 208 1011 q 235 997 229 1004 q 242 974 242 989 q 241 942 243 960 q 235 909 239 925 q 231 883 232 893 q 247 891 235 886 q 272 901 258 896 q 297 910 285 906 q 314 914 308 914 q 331 910 324 914 q 349 887 340 904 q 361 858 358 869 q 349 831 364 842 q 331 820 344 826 q 303 808 318 814 q 276 796 289 801 q 257 789 263 790 q 271 771 261 783 q 291 744 281 758 q 310 715 301 729 q 321 694 318 701 q 318 669 325 682 q 309 657 315 664 q 295 644 303 650 q 279 633 288 638 q 265 626 271 628 z "},"+":{"ha":550,"x_min":13,"x_max":536,"o":"m 368 176 q 342 161 358 165 q 306 156 325 157 q 267 158 286 156 q 235 164 249 160 q 197 193 208 171 q 193 212 194 199 q 191 240 192 225 q 190 267 190 254 q 190 286 190 281 q 147 288 168 288 q 104 290 125 288 q 74 295 89 292 q 49 308 60 299 q 28 332 33 318 q 15 374 18 350 q 16 420 13 397 q 29 464 19 443 q 56 497 39 485 q 87 512 69 508 q 122 517 104 515 q 156 517 139 517 q 192 515 174 517 q 190 550 190 533 q 192 585 189 567 q 197 608 193 596 q 207 629 200 619 q 241 649 219 644 q 282 656 263 654 q 318 654 300 656 q 351 643 336 653 q 368 628 361 638 q 378 607 375 618 q 384 571 383 589 q 385 535 385 553 q 384 526 383 531 q 382 517 385 521 q 440 515 410 517 q 494 501 469 514 q 519 477 510 493 q 532 442 528 461 q 535 401 536 422 q 531 364 535 381 q 522 337 528 350 q 506 314 517 324 q 449 288 482 293 q 385 283 417 283 q 385 247 386 265 q 382 211 385 229 q 368 176 379 190 m 313 486 q 300 477 304 483 q 297 464 296 471 q 303 451 299 457 q 318 444 308 444 q 338 446 321 444 q 357 447 354 447 q 368 447 361 447 q 383 446 375 446 q 399 447 392 446 q 410 449 407 447 q 422 468 422 456 q 410 488 422 481 q 396 489 407 489 q 381 489 385 489 q 367 489 376 489 q 347 488 357 489 q 326 487 336 488 q 313 486 317 486 m 446 461 q 457 442 446 447 q 479 444 468 436 q 488 463 489 451 q 475 481 486 475 q 455 478 464 485 q 446 461 446 472 z "},",":{"ha":300,"x_min":17,"x_max":283,"o":"m 135 -146 q 115 -143 124 -150 q 113 -125 107 -136 q 121 -118 115 -121 q 131 -112 126 -115 q 149 -91 142 -104 q 161 -62 157 -78 q 174 0 171 -33 q 110 1 142 -1 q 53 24 78 4 q 30 53 38 35 q 19 89 22 71 q 17 131 17 110 q 24 171 18 151 q 32 197 26 185 q 47 221 38 210 q 77 240 60 233 q 113 250 94 247 q 141 252 122 251 q 180 251 160 253 q 218 247 200 250 q 244 239 236 244 q 267 214 260 231 q 278 181 275 197 q 283 142 282 161 q 281 104 283 124 q 278 88 281 96 q 276 71 276 79 q 264 4 272 38 q 240 -60 256 -29 q 183 -119 222 -97 q 174 -125 181 -121 q 159 -133 167 -129 q 144 -141 151 -137 q 135 -146 138 -144 m 182 188 q 199 187 192 183 q 210 197 207 190 q 212 213 214 204 q 200 226 210 222 q 168 233 192 231 q 135 232 144 235 q 120 224 125 231 q 115 210 115 218 q 121 197 115 203 q 136 190 126 190 q 159 192 147 190 q 182 188 171 193 m 218 165 q 229 153 221 154 q 246 156 238 151 q 258 167 254 160 q 256 183 261 175 q 228 192 242 199 q 218 165 214 185 z "},"-":{"ha":554,"x_min":15,"x_max":539,"o":"m 449 486 q 404 483 436 483 q 337 482 372 482 q 269 483 301 482 q 225 485 238 485 q 166 485 196 485 q 107 488 136 485 q 77 494 92 490 q 51 506 63 497 q 31 531 36 518 q 18 572 21 549 q 19 617 15 594 q 32 661 22 640 q 58 694 42 682 q 104 713 79 710 q 182 715 143 717 q 260 714 221 713 q 335 715 297 714 q 408 715 372 715 q 457 712 432 714 q 501 697 482 710 q 522 677 514 690 q 533 650 531 664 q 538 606 538 628 q 533 563 539 583 q 525 535 531 549 q 508 513 519 522 q 480 495 496 501 q 449 486 464 489 m 311 644 q 335 644 318 642 q 358 646 351 646 q 370 645 363 646 q 386 644 378 644 q 402 645 394 644 q 413 647 410 646 q 425 666 425 653 q 413 685 425 679 q 399 688 410 688 q 383 688 388 688 q 369 688 379 688 q 349 687 360 688 q 329 685 339 686 q 315 683 319 685 q 299 666 300 681 q 311 644 297 651 m 449 660 q 460 640 449 646 q 482 643 471 635 q 490 661 492 650 q 478 678 489 672 q 458 677 467 683 q 449 660 449 671 z "},".":{"ha":300,"x_min":17,"x_max":283,"o":"m 250 29 q 215 9 238 17 q 167 -1 192 1 q 117 0 142 -3 q 76 10 93 3 q 47 29 61 17 q 26 58 33 42 q 19 97 21 75 q 19 143 17 119 q 29 188 22 167 q 47 221 36 208 q 76 240 58 233 q 113 250 94 247 q 141 252 122 251 q 180 251 160 253 q 218 247 200 250 q 244 239 236 244 q 268 210 258 231 q 280 165 276 190 q 282 115 283 140 q 273 66 281 89 q 250 29 265 43 m 182 188 q 199 187 192 183 q 210 197 207 190 q 212 213 214 204 q 200 226 210 222 q 167 233 190 231 q 135 232 144 235 q 119 224 124 231 q 115 210 114 218 q 120 197 115 203 q 136 190 125 190 q 159 192 147 190 q 182 188 171 193 m 218 165 q 228 153 219 154 q 245 156 238 151 q 257 167 253 160 q 256 183 261 175 q 227 192 242 199 q 218 165 213 185 z "},"/":{"ha":672,"x_min":-22,"x_max":696,"o":"m 193 10 q 159 -3 178 -1 q 121 -3 140 -6 q 68 13 94 1 q 22 41 42 24 q -10 81 1 58 q -19 131 -22 103 q -6 182 -18 149 q 23 256 6 215 q 61 342 40 297 q 101 426 82 386 q 135 499 119 467 q 160 549 151 532 q 204 636 181 593 q 254 722 228 679 q 283 767 263 735 q 326 835 303 799 q 372 902 350 871 q 403 944 393 933 q 436 981 418 964 q 478 1006 454 997 q 501 1010 489 1010 q 525 1008 514 1011 q 562 996 544 1004 q 596 978 579 988 q 635 953 617 967 q 669 921 654 939 q 688 896 681 910 q 696 867 694 882 q 681 822 696 842 q 651 783 674 813 q 601 721 628 754 q 551 658 574 688 q 521 619 528 629 q 434 485 472 554 q 360 343 396 415 q 339 303 349 324 q 321 261 329 282 q 298 205 313 242 q 265 128 283 168 q 228 56 247 89 q 193 10 210 22 m 568 893 q 583 888 575 888 q 596 894 590 889 q 602 908 601 900 q 597 924 603 915 q 574 942 589 933 q 540 956 558 951 q 504 963 522 961 q 472 963 486 965 q 458 952 461 960 q 456 937 454 944 q 463 924 457 929 q 481 921 469 918 q 508 922 494 924 q 535 915 521 919 q 552 906 544 913 q 568 893 560 900 m 601 858 q 611 840 601 846 q 632 839 621 833 q 643 856 642 844 q 636 875 644 868 q 613 877 625 883 q 601 858 601 871 z "},":":{"ha":328,"x_min":22,"x_max":306,"o":"m 272 504 q 237 485 260 492 q 189 476 214 478 q 140 476 164 474 q 99 485 115 478 q 69 504 83 492 q 49 533 54 517 q 41 573 43 550 q 41 619 39 596 q 50 663 43 642 q 69 696 57 683 q 99 715 81 708 q 135 725 117 722 q 163 727 144 726 q 202 727 182 728 q 240 724 222 726 q 267 715 258 721 q 290 685 282 704 q 302 640 299 665 q 304 590 306 615 q 295 541 303 564 q 272 504 288 518 m 204 664 q 222 663 214 660 q 232 674 229 667 q 233 690 235 681 q 222 703 232 699 q 190 708 213 707 q 157 708 167 710 q 141 700 146 707 q 137 686 136 693 q 142 673 138 679 q 158 667 147 667 q 181 667 169 667 q 204 664 193 668 m 240 640 q 251 629 242 631 q 267 631 260 628 q 279 642 275 635 q 278 658 283 650 q 249 668 264 675 q 240 640 235 661 m 256 29 q 220 9 243 17 q 172 -1 197 1 q 123 0 147 -3 q 82 10 99 3 q 53 29 67 17 q 32 58 39 42 q 24 97 26 75 q 25 143 22 119 q 35 188 28 167 q 53 221 42 208 q 82 240 64 233 q 118 250 100 247 q 147 252 128 251 q 185 251 165 253 q 224 247 206 250 q 250 239 242 244 q 274 210 264 231 q 285 165 282 190 q 288 115 289 140 q 278 66 286 89 q 256 29 271 43 m 188 188 q 205 187 197 183 q 216 197 213 190 q 217 213 219 204 q 206 226 215 222 q 173 233 196 231 q 140 232 150 235 q 124 224 129 231 q 120 210 119 218 q 126 197 121 203 q 142 190 131 190 q 165 192 153 190 q 188 188 176 193 m 224 165 q 234 153 225 154 q 251 156 243 151 q 263 167 258 160 q 261 183 267 175 q 233 192 247 199 q 224 165 218 185 z "},";":{"ha":328,"x_min":22,"x_max":306,"o":"m 274 504 q 238 485 260 492 q 190 476 215 478 q 141 476 165 474 q 100 485 117 478 q 69 504 83 492 q 49 533 56 517 q 41 573 43 550 q 42 619 39 596 q 51 663 44 642 q 69 696 58 683 q 99 715 82 708 q 135 725 117 722 q 163 727 144 726 q 202 727 182 728 q 240 724 222 726 q 267 715 258 721 q 290 685 283 704 q 302 640 299 665 q 304 590 306 615 q 295 541 303 564 q 274 504 288 518 m 204 664 q 222 663 214 660 q 233 674 229 667 q 234 690 236 681 q 222 703 232 699 q 190 708 214 707 q 157 708 167 710 q 142 700 147 707 q 138 686 138 693 q 143 673 138 679 q 158 667 149 667 q 181 667 169 667 q 204 664 193 668 m 240 640 q 251 629 243 631 q 268 631 260 628 q 280 642 276 635 q 278 658 283 650 q 250 668 264 675 q 240 640 236 661 m 140 -146 q 121 -143 129 -150 q 118 -125 113 -136 q 126 -118 121 -121 q 136 -112 132 -115 q 155 -91 147 -104 q 167 -62 163 -78 q 179 0 176 -33 q 115 1 147 -1 q 58 24 83 4 q 35 53 43 35 q 25 89 28 71 q 23 131 22 110 q 29 171 24 151 q 38 197 32 185 q 53 221 43 210 q 83 240 65 233 q 118 250 100 247 q 147 252 128 251 q 185 251 165 253 q 224 247 206 250 q 250 239 242 244 q 273 214 265 231 q 283 181 281 197 q 288 142 288 161 q 286 104 289 124 q 284 88 286 96 q 282 71 282 79 q 269 4 278 38 q 246 -60 261 -29 q 189 -119 228 -97 q 179 -125 186 -121 q 165 -133 172 -129 q 150 -141 157 -137 q 140 -146 143 -144 m 188 188 q 205 187 197 183 q 216 197 213 190 q 217 213 219 204 q 206 226 215 222 q 174 233 197 231 q 140 232 150 235 q 126 224 131 231 q 121 210 121 218 q 126 197 121 203 q 142 190 132 190 q 165 192 153 190 q 188 188 176 193 m 224 165 q 235 153 226 154 q 251 156 243 151 q 263 167 260 160 q 261 183 267 175 q 233 192 247 199 q 224 165 219 185 z "},"<":{"ha":388,"x_min":19,"x_max":367,"o":"m 310 704 q 268 703 294 701 q 213 710 242 706 q 158 722 183 715 q 118 736 132 729 q 97 751 107 742 q 81 771 86 760 q 72 803 74 785 q 75 841 71 822 q 88 876 79 860 q 110 904 97 893 q 139 917 122 914 q 171 917 156 919 q 209 906 190 914 q 247 892 228 899 q 266 886 253 890 q 294 878 279 882 q 324 869 310 874 q 342 864 338 865 q 363 838 357 854 q 367 808 367 825 q 363 774 367 792 q 353 742 360 757 q 336 718 346 726 q 310 704 328 710 m 276 403 q 248 397 268 399 q 205 394 228 394 q 162 393 182 393 q 132 393 142 393 q 101 394 117 393 q 71 401 86 396 q 53 411 61 406 q 39 425 44 417 q 24 457 28 439 q 19 494 19 475 q 25 531 19 513 q 42 561 31 549 q 69 579 53 574 q 100 586 85 585 q 140 583 119 588 q 179 576 160 579 q 199 574 185 575 q 228 571 213 572 q 258 568 244 569 q 278 565 272 567 q 304 543 293 558 q 313 515 310 532 q 316 481 317 499 q 311 448 315 464 q 300 421 307 432 q 276 403 288 408 m 326 107 q 290 90 315 99 q 235 75 264 82 q 180 64 207 68 q 139 60 153 60 q 113 65 126 61 q 90 76 100 68 q 57 140 65 99 q 64 211 49 181 q 86 234 72 225 q 115 247 100 243 q 156 252 135 253 q 196 254 176 251 q 215 256 201 254 q 244 260 229 258 q 274 264 260 263 q 293 265 288 265 q 324 250 313 263 q 349 194 340 231 q 349 133 357 157 q 326 107 342 118 z "},"=":{"ha":571,"x_min":22,"x_max":551,"o":"m 457 486 q 413 483 444 483 q 347 482 382 482 q 279 483 311 482 q 235 485 247 485 q 175 485 204 485 q 115 488 146 485 q 87 494 101 490 q 61 506 72 497 q 39 531 47 515 q 26 572 29 549 q 27 617 24 594 q 41 661 31 640 q 68 694 51 682 q 113 713 89 710 q 191 715 153 717 q 268 714 229 713 q 343 715 306 714 q 418 715 381 715 q 466 712 442 714 q 511 697 490 710 q 531 677 522 690 q 543 650 540 664 q 543 563 551 606 q 534 535 540 549 q 517 513 528 522 q 490 495 506 501 q 457 486 474 489 m 321 644 q 344 644 326 642 q 368 646 361 646 q 380 645 372 646 q 396 644 388 644 q 412 645 404 644 q 422 647 419 646 q 433 666 433 653 q 422 685 433 679 q 408 688 419 688 q 393 688 396 688 q 379 688 389 688 q 358 687 369 688 q 338 685 347 686 q 325 683 329 685 q 308 666 310 681 q 321 644 307 651 m 457 660 q 469 640 457 646 q 492 643 481 635 q 500 661 501 650 q 488 678 499 672 q 467 677 476 683 q 457 660 457 671 m 456 158 q 411 155 443 156 q 344 155 379 154 q 276 157 308 156 q 232 158 244 158 q 173 158 203 158 q 114 161 143 158 q 84 167 99 163 q 58 179 69 171 q 38 204 44 189 q 25 245 28 222 q 26 291 22 268 q 39 335 29 314 q 65 368 49 356 q 111 386 86 383 q 189 388 150 390 q 267 386 228 386 q 342 388 304 388 q 415 388 379 389 q 464 385 439 388 q 508 371 489 383 q 529 351 521 364 q 540 322 538 338 q 545 279 544 301 q 540 236 546 257 q 532 209 538 222 q 515 186 526 196 q 487 169 503 175 q 456 158 471 163 m 322 357 q 310 348 314 354 q 307 335 306 342 q 313 322 308 328 q 328 317 318 317 q 347 318 331 317 q 367 319 364 319 q 378 319 371 319 q 393 318 385 318 q 409 319 401 318 q 419 321 417 319 q 432 340 432 326 q 419 358 432 353 q 406 360 417 361 q 390 360 394 360 q 376 360 386 360 q 356 360 367 360 q 336 359 346 360 q 322 357 326 358 m 456 332 q 467 314 456 319 q 489 317 478 308 q 497 335 499 324 q 485 351 496 346 q 465 351 474 357 q 456 332 456 344 z "},">":{"ha":386,"x_min":21,"x_max":369,"o":"m 236 725 q 203 717 225 722 q 157 709 182 713 q 110 703 132 706 q 78 704 88 701 q 46 724 58 708 q 32 748 38 733 q 24 779 26 763 q 21 811 21 796 q 25 838 21 826 q 38 856 31 850 q 53 865 42 860 q 78 874 65 869 q 104 881 92 878 q 124 888 117 885 q 161 899 143 893 q 199 913 179 906 q 237 919 217 919 q 272 908 257 918 q 302 871 292 896 q 315 822 313 846 q 314 788 317 806 q 300 758 311 771 q 271 736 289 743 q 236 725 253 729 m 311 400 q 268 394 296 396 q 210 392 240 392 q 153 394 181 392 q 113 403 126 397 q 83 429 93 411 q 75 455 78 439 q 72 488 72 471 q 75 519 72 504 q 85 544 78 535 q 100 560 92 553 q 118 566 106 564 q 144 569 131 568 q 171 572 158 571 q 190 574 183 574 q 230 580 210 576 q 269 586 250 583 q 307 584 288 589 q 340 567 326 579 q 364 525 358 551 q 367 475 369 499 q 361 449 365 463 q 350 425 357 436 q 333 409 343 415 q 311 400 322 403 m 289 71 q 263 61 278 64 q 235 60 249 58 q 163 72 199 63 q 90 93 126 82 q 63 106 76 97 q 43 128 50 114 q 35 167 33 146 q 43 208 36 189 q 58 240 47 225 q 83 263 68 256 q 103 265 89 265 q 132 263 117 264 q 161 259 147 261 q 182 256 175 257 q 199 255 186 256 q 225 253 211 254 q 251 251 239 251 q 268 249 264 250 q 299 235 283 244 q 322 213 314 226 q 334 161 336 189 q 321 110 332 133 q 308 88 315 99 q 289 71 300 78 z "},"?":{"ha":593,"x_min":-17,"x_max":607,"o":"m 333 296 q 284 282 311 283 q 232 286 257 281 q 199 297 215 290 q 174 317 183 304 q 160 353 163 331 q 159 399 157 375 q 168 444 161 422 q 183 482 175 467 q 222 539 200 513 q 271 589 244 565 q 325 642 299 615 q 367 703 351 668 q 367 772 379 735 q 322 825 354 808 q 286 832 307 833 q 249 822 265 831 q 215 798 229 813 q 187 767 200 783 q 159 734 174 750 q 126 708 144 718 q 82 699 108 696 q 58 705 72 700 q 31 717 44 710 q 7 735 18 725 q -8 753 -4 744 q -15 785 -17 768 q -11 817 -14 801 q 0 853 -8 836 q 18 885 8 869 q 108 974 51 938 q 225 1024 164 1010 q 355 1030 288 1038 q 479 990 422 1022 q 526 959 503 976 q 565 918 550 942 q 598 837 589 882 q 601 747 607 792 q 579 667 596 707 q 536 596 563 628 q 494 550 517 571 q 450 506 471 529 q 399 424 418 472 q 385 383 390 404 q 372 343 381 363 q 356 316 365 329 q 333 296 347 303 m 450 926 q 465 918 457 918 q 480 924 474 918 q 488 938 486 929 q 482 954 489 946 q 476 959 479 957 q 471 964 474 961 q 440 984 457 976 q 406 1000 422 992 q 390 1003 399 1003 q 374 1006 381 1003 q 352 1009 367 1008 q 331 1008 338 1010 q 316 998 319 1006 q 314 983 313 990 q 322 969 315 975 q 339 967 328 964 q 353 967 343 968 q 365 965 363 967 q 376 964 368 964 q 388 963 385 964 q 421 947 403 953 q 450 926 439 942 m 489 900 q 503 885 492 889 q 524 890 514 882 q 532 908 533 897 q 519 925 531 919 q 497 923 507 932 q 489 900 486 914 m 288 -11 q 249 -13 271 -14 q 206 -8 228 -12 q 167 6 185 -3 q 139 28 149 14 q 128 56 132 39 q 124 92 124 74 q 128 128 124 111 q 139 157 132 146 q 174 189 151 176 q 221 204 197 201 q 300 200 260 208 q 333 189 317 197 q 360 167 349 181 q 374 135 371 153 q 378 101 376 118 q 374 61 378 82 q 358 25 369 40 q 326 1 346 10 q 288 -11 307 -7 z "},"@":{"ha":1115,"x_min":8,"x_max":1099,"o":"m 583 -18 q 389 5 486 -21 q 211 85 292 31 q 119 165 161 119 q 51 267 76 211 q 17 382 26 321 q 15 503 8 443 q 60 656 25 582 q 144 793 94 731 q 306 933 211 876 q 506 1014 401 990 q 673 1035 588 1033 q 838 1008 758 1036 q 975 926 914 981 q 1068 801 1036 872 q 1096 685 1093 746 q 1086 587 1099 636 q 1050 493 1074 538 q 977 394 1022 439 q 876 325 932 349 q 803 310 842 311 q 729 321 764 308 q 683 344 706 328 q 653 385 661 361 q 599 356 625 368 q 523 340 563 342 q 450 353 483 338 q 396 401 418 368 q 367 469 374 433 q 365 519 363 493 q 375 568 368 544 q 407 649 386 610 q 460 718 428 689 q 633 781 535 786 q 688 771 664 778 q 722 752 706 764 q 747 725 738 740 q 772 660 767 694 q 778 589 776 625 q 806 571 788 572 q 843 581 825 569 q 888 647 881 603 q 875 731 896 692 q 845 769 864 753 q 807 799 826 786 q 646 849 733 846 q 531 831 588 851 q 425 779 474 811 q 346 711 382 750 q 286 628 310 672 q 254 524 263 579 q 257 415 246 468 q 286 339 265 375 q 338 275 307 303 q 417 224 372 243 q 510 203 463 206 q 652 208 581 196 q 792 240 724 219 q 842 258 818 247 q 893 276 867 268 q 939 286 915 283 q 983 281 963 289 q 1003 270 994 278 q 1018 254 1011 263 q 1037 219 1029 239 q 1047 178 1044 199 q 1046 136 1050 157 q 1031 101 1042 115 q 1016 85 1029 93 q 996 75 1003 78 q 960 63 978 68 q 926 51 943 58 q 757 3 843 22 q 583 -18 671 -17 m 840 921 q 858 915 849 914 q 872 922 867 917 q 876 935 876 928 q 867 950 875 943 q 856 958 864 953 q 838 967 847 963 q 821 976 829 972 q 808 981 813 979 q 696 1001 754 1001 q 676 1000 685 1001 q 657 999 667 999 q 635 994 646 997 q 621 982 625 992 q 624 960 614 969 q 647 957 635 950 q 663 960 653 958 q 685 962 674 961 q 708 963 697 963 q 725 963 719 963 q 785 948 756 957 q 840 921 815 939 m 901 894 q 907 876 899 883 q 926 871 915 868 q 942 886 939 874 q 935 906 946 899 q 915 909 926 913 q 901 894 904 906 m 543 525 q 556 500 546 511 q 581 492 567 489 q 625 526 608 496 q 642 585 642 556 q 632 624 643 606 q 599 639 621 643 q 579 629 588 636 q 564 614 571 622 q 542 572 549 596 q 543 525 536 547 z "},"A":{"ha":765,"x_min":-1,"x_max":764,"o":"m 656 -18 q 610 -24 635 -22 q 561 -23 585 -26 q 518 -10 538 -19 q 490 19 499 0 q 485 40 488 25 q 481 70 483 54 q 478 100 479 86 q 476 121 476 114 q 372 131 425 132 q 265 128 318 131 q 258 100 263 118 q 247 63 253 82 q 233 26 240 43 q 218 3 225 10 q 181 -19 203 -14 q 135 -23 158 -25 q 88 -12 111 -21 q 46 8 64 -4 q 10 47 21 26 q -1 90 -1 69 q 4 141 -1 107 q 19 217 10 175 q 40 304 29 258 q 63 392 51 350 q 83 467 74 433 q 96 517 92 500 q 154 699 119 610 q 226 876 189 788 q 249 924 238 900 q 275 971 260 949 q 299 997 286 985 q 328 1015 313 1008 q 357 1020 338 1018 q 397 1023 376 1022 q 438 1023 418 1024 q 467 1021 457 1022 q 540 969 517 1010 q 561 924 549 956 q 588 851 574 892 q 616 766 601 811 q 643 679 631 721 q 665 605 656 638 q 681 557 675 572 q 696 497 686 536 q 716 412 706 458 q 735 314 726 365 q 751 215 744 263 q 761 129 758 168 q 761 68 764 90 q 752 38 758 53 q 735 11 746 22 q 698 -8 719 -3 q 656 -18 676 -14 m 531 785 q 551 768 535 768 q 572 785 568 768 q 572 798 574 789 q 566 817 569 807 q 560 836 563 826 q 556 850 557 846 q 545 879 553 861 q 528 916 538 897 q 508 949 519 935 q 488 969 497 964 q 469 970 478 974 q 458 960 461 967 q 456 944 454 953 q 468 932 458 936 q 476 921 471 929 q 485 908 482 913 q 513 849 503 881 q 531 785 524 817 m 554 708 q 566 692 557 697 q 585 692 575 688 q 597 712 597 699 q 583 732 596 725 q 562 729 572 738 q 554 708 551 721 m 300 288 q 384 293 342 293 q 467 285 426 293 q 441 443 460 365 q 400 597 422 521 q 344 444 368 522 q 300 288 319 367 z "},"B":{"ha":785,"x_min":26,"x_max":786,"o":"m 283 -8 q 197 -13 242 -14 q 117 11 153 -12 q 115 13 115 13 q 82 33 97 19 q 60 65 67 47 q 49 113 53 81 q 41 187 44 146 q 36 274 38 228 q 33 361 35 319 q 31 436 32 403 q 31 488 31 469 q 33 669 26 579 q 51 850 40 758 q 59 910 54 879 q 75 968 64 940 q 90 994 82 982 q 110 1014 97 1007 q 135 1023 121 1021 q 164 1028 150 1025 q 451 1024 308 1049 q 530 1004 492 1017 q 601 968 568 992 q 638 935 621 953 q 665 896 654 918 q 683 844 679 872 q 682 788 686 815 q 660 731 676 757 q 622 682 643 704 q 577 644 601 661 q 526 614 553 628 q 578 606 553 611 q 628 590 604 600 q 699 549 665 575 q 753 488 733 524 q 777 425 768 458 q 783 360 786 392 q 760 265 779 311 q 710 181 740 218 q 638 115 678 143 q 553 65 597 86 q 422 20 489 38 q 283 -8 354 3 m 556 903 q 583 903 568 890 q 591 919 592 910 q 583 936 590 928 q 565 952 576 944 q 543 965 554 960 q 463 993 504 985 q 449 993 456 994 q 435 993 442 992 q 419 990 425 994 q 410 979 413 986 q 410 965 408 972 q 421 953 413 957 q 445 951 426 950 q 469 949 464 951 q 516 931 493 942 q 556 903 539 921 m 613 893 q 596 887 601 893 q 590 872 590 881 q 595 858 590 864 q 611 851 600 851 q 626 858 621 851 q 633 872 632 864 q 628 887 633 881 q 613 893 622 893 m 340 881 q 323 791 326 836 q 319 700 319 746 q 369 714 344 706 q 415 738 394 722 q 437 758 426 747 q 451 782 447 768 q 449 830 460 806 q 414 867 438 854 q 378 878 397 875 q 340 881 360 881 m 290 701 l 290 699 l 290 693 q 292 695 293 690 q 292 703 292 700 l 290 701 m 313 447 q 308 312 303 381 q 328 176 313 243 q 390 191 354 181 q 458 217 425 201 q 519 253 492 232 q 554 299 546 274 q 558 344 561 321 q 545 387 556 367 q 518 423 535 407 q 479 447 501 439 q 397 460 440 463 q 313 447 353 458 z "},"C":{"ha":785,"x_min":14,"x_max":776,"o":"m 583 15 q 451 -17 521 -12 q 314 -7 381 -22 q 224 25 268 4 q 146 78 181 46 q 99 131 119 101 q 64 192 78 160 q 27 322 36 254 q 15 458 18 390 q 21 600 14 529 q 46 740 28 671 q 82 841 60 792 q 140 929 104 890 q 264 1010 193 982 q 422 1039 339 1038 q 579 1013 504 1040 q 644 981 613 1000 q 700 935 675 961 q 731 892 718 915 q 754 843 743 868 q 773 765 769 807 q 764 685 776 722 q 719 622 753 644 q 672 604 699 608 q 621 607 644 600 q 594 617 607 610 q 574 635 582 624 q 552 687 557 658 q 535 742 547 715 q 503 788 524 767 q 454 817 482 810 q 401 816 426 824 q 355 792 376 808 q 318 751 333 775 q 294 701 303 728 q 280 616 283 660 q 276 528 276 572 q 281 433 276 481 q 296 340 285 386 q 313 297 301 319 q 339 254 324 274 q 373 222 354 235 q 414 211 392 210 q 451 226 433 213 q 481 254 469 239 q 513 309 500 281 q 544 363 526 338 q 596 401 565 392 q 657 404 626 411 q 712 376 688 397 q 746 319 736 354 q 753 231 757 276 q 731 144 750 185 q 668 67 708 100 q 583 15 628 35 m 590 929 q 604 921 596 921 q 619 926 613 921 q 627 939 625 931 q 624 956 629 947 q 613 965 621 960 q 597 974 606 969 q 580 983 588 979 q 568 990 572 988 q 521 1006 546 1001 q 471 1011 496 1011 q 454 1005 460 1011 q 449 990 449 999 q 454 976 449 982 q 471 969 460 969 q 494 969 482 969 q 518 965 507 968 q 555 950 538 960 q 590 929 572 940 m 646 919 q 637 906 636 915 q 643 890 638 897 q 657 881 649 883 q 672 888 665 879 q 676 917 686 904 q 646 919 665 929 z "},"D":{"ha":818,"x_min":26,"x_max":819,"o":"m 435 18 q 324 -9 381 1 q 211 -17 268 -19 q 155 -8 183 -14 q 104 17 126 -1 l 103 18 q 78 38 89 26 q 60 65 67 50 q 49 113 53 81 q 41 187 44 146 q 36 274 38 228 q 33 361 35 319 q 31 436 32 403 q 31 488 31 469 q 33 669 26 579 q 51 850 40 758 q 59 910 54 879 q 75 968 64 940 q 92 997 82 983 q 117 1018 101 1011 q 147 1024 126 1022 q 190 1028 167 1026 q 233 1028 213 1029 q 264 1028 253 1028 q 406 1007 335 1021 q 544 965 478 993 q 574 951 560 960 q 601 935 588 943 q 723 820 674 888 q 793 669 772 753 q 810 462 819 569 q 753 263 800 354 q 703 185 732 222 q 639 121 675 149 q 542 60 594 85 q 435 18 489 36 m 547 890 q 564 885 556 883 q 577 892 572 886 q 582 907 582 899 q 574 922 582 915 q 558 933 571 925 q 543 943 546 940 q 516 953 533 947 q 479 965 499 960 q 442 972 460 969 q 414 971 424 974 q 400 962 404 968 q 397 948 396 956 q 402 935 397 940 q 417 929 407 929 q 444 928 431 929 q 472 924 458 928 q 512 910 492 917 q 547 890 532 903 m 593 867 q 608 842 593 846 q 633 858 624 839 q 632 874 638 868 q 618 883 626 881 q 601 881 610 885 q 593 867 593 878 m 286 208 q 359 208 322 204 q 429 228 396 213 q 514 294 478 250 q 569 386 550 338 q 593 506 592 443 q 578 628 594 569 q 510 743 558 694 q 474 772 494 760 q 431 792 453 785 q 372 803 403 801 q 311 799 340 804 q 307 777 310 793 q 300 743 304 761 q 293 709 296 725 q 289 688 290 693 q 275 513 276 600 q 276 338 274 425 q 278 312 276 331 q 281 272 279 293 q 285 233 283 251 q 286 208 286 214 z "},"E":{"ha":722,"x_min":29,"x_max":724,"o":"m 554 7 q 379 -2 467 0 q 204 1 292 -4 q 151 4 178 3 q 101 18 125 6 q 69 48 82 28 q 53 89 57 68 q 47 138 50 104 q 42 213 44 171 q 37 303 39 256 q 33 393 35 350 q 31 470 32 436 q 29 519 29 504 q 30 576 29 540 q 33 657 31 613 q 40 749 36 701 q 50 841 44 797 q 63 919 56 885 q 78 972 69 954 q 111 1014 89 1000 q 143 1024 126 1022 q 176 1028 160 1026 q 422 1025 300 1035 q 668 1004 544 1015 q 684 1001 676 1003 q 699 992 692 999 q 712 974 707 985 q 719 953 717 964 q 723 918 724 938 q 718 878 722 899 q 706 842 714 858 q 686 815 697 825 q 657 803 674 804 q 589 801 638 800 q 486 806 540 803 q 383 813 432 808 q 315 819 335 817 q 294 711 304 765 q 281 603 285 657 q 335 600 297 601 q 415 596 372 599 q 494 589 457 593 q 547 579 532 585 q 576 547 569 571 q 577 524 578 539 q 576 493 576 510 q 573 461 575 476 q 568 439 571 446 q 542 406 558 415 q 488 392 525 394 q 411 390 451 389 q 333 394 371 390 q 275 399 296 397 q 279 311 276 354 q 285 224 282 268 q 389 222 338 219 q 492 226 440 224 q 549 231 521 228 q 607 232 578 235 q 640 224 624 231 q 668 204 657 218 q 683 165 681 188 q 685 121 686 142 q 681 80 685 101 q 665 43 678 58 q 646 25 658 32 q 621 15 633 18 q 588 10 604 11 q 554 7 571 8 m 540 947 q 556 946 546 947 q 576 943 565 944 q 596 942 586 942 q 610 947 606 943 q 617 966 619 954 q 604 982 615 978 q 595 985 600 985 q 586 985 590 985 q 559 986 578 985 q 519 989 540 988 q 478 991 497 990 q 451 990 458 992 q 436 969 435 986 q 454 950 438 953 q 471 949 458 950 q 497 948 483 949 q 524 947 511 947 q 540 947 536 947 m 640 938 q 662 929 649 926 q 678 946 675 932 q 669 968 681 960 q 644 968 657 976 q 635 953 638 963 q 640 938 633 944 m 457 149 q 485 149 465 149 q 525 149 504 149 q 565 150 546 149 q 593 154 585 151 q 606 178 608 161 q 586 194 603 194 q 570 194 582 194 q 546 192 558 193 q 522 190 533 192 q 506 189 510 189 q 472 190 494 189 q 440 185 449 192 q 435 162 429 175 q 457 149 442 149 m 629 151 q 644 152 636 149 q 656 163 653 156 q 651 186 661 176 q 628 192 642 196 q 616 171 615 186 q 629 151 617 156 z "},"F":{"ha":754,"x_min":26,"x_max":765,"o":"m 222 8 q 176 2 200 1 q 128 10 151 3 q 88 31 106 17 q 60 65 69 44 q 49 113 53 81 q 41 187 44 146 q 36 274 38 228 q 33 361 35 319 q 31 436 32 403 q 31 488 31 469 q 33 669 26 579 q 51 850 40 758 q 59 910 54 879 q 75 968 64 940 q 92 997 82 983 q 115 1017 101 1010 q 150 1026 125 1022 q 202 1032 175 1029 q 253 1037 229 1035 q 289 1039 278 1039 q 435 1043 363 1042 q 582 1039 508 1044 q 638 1033 610 1036 q 693 1021 667 1031 q 728 1003 711 1014 q 754 976 744 993 q 763 947 760 965 q 765 908 765 928 q 760 869 764 888 q 753 838 757 850 q 736 814 746 825 q 713 797 726 803 q 681 790 697 790 q 647 792 664 789 q 610 798 628 794 q 574 804 593 801 q 314 811 442 824 q 295 719 304 765 q 282 625 286 672 q 418 631 350 629 q 553 625 486 633 q 581 618 568 622 q 606 606 594 614 q 626 577 619 594 q 635 540 633 560 q 632 501 636 521 q 621 464 628 481 q 613 451 618 457 q 603 440 608 446 q 556 426 588 429 q 490 423 525 422 q 421 426 454 424 q 369 431 388 429 q 322 431 346 431 q 275 431 299 432 q 276 367 275 399 q 279 303 276 335 q 284 249 281 285 q 289 174 288 213 q 289 100 290 135 q 279 49 288 65 q 256 23 272 33 q 222 8 240 13 m 621 967 q 639 963 631 960 q 651 974 647 967 q 653 990 656 981 q 642 1004 651 999 q 628 1007 638 1006 q 609 1010 619 1008 q 589 1013 599 1011 q 575 1014 579 1014 q 560 1015 571 1014 q 539 1015 550 1015 q 517 1015 528 1015 q 503 1013 507 1014 q 489 992 488 1007 q 506 974 490 976 q 521 974 513 971 q 536 974 525 974 q 560 973 547 974 q 584 972 572 972 q 600 969 596 971 q 610 969 603 969 q 621 967 618 968 m 669 975 q 667 959 663 967 q 680 947 672 951 q 696 944 688 943 q 707 957 704 946 q 698 983 713 976 q 669 975 683 990 z "},"G":{"ha":794,"x_min":13,"x_max":782,"o":"m 560 6 q 419 -20 493 -18 q 278 0 344 -22 q 201 36 238 14 q 135 89 164 58 q 78 167 100 124 q 42 258 56 211 q 16 413 19 333 q 19 571 13 492 q 47 741 26 656 q 115 896 67 826 q 210 981 151 947 q 335 1028 268 1014 q 471 1038 401 1043 q 597 1006 540 1032 q 700 932 654 981 q 747 866 728 903 q 772 789 765 829 q 765 681 782 735 q 740 640 757 657 q 702 613 724 622 q 656 603 681 604 q 608 613 632 603 q 564 653 579 622 q 551 696 554 674 q 538 739 547 718 q 512 780 528 761 q 475 810 496 799 q 424 820 450 822 q 376 806 399 818 q 335 772 353 793 q 306 726 317 751 q 285 652 290 690 q 278 575 281 614 q 279 460 276 517 q 296 347 282 403 q 310 306 301 326 q 331 267 318 286 q 362 231 343 247 q 404 211 381 214 q 443 219 424 208 q 475 244 463 229 q 511 313 500 274 q 519 392 522 353 q 499 388 513 390 q 470 383 485 385 q 442 380 456 381 q 422 382 428 379 q 403 395 411 386 q 390 415 394 404 q 379 456 382 435 q 383 497 376 478 q 403 531 388 518 q 428 544 414 540 q 458 549 443 547 q 504 547 482 550 q 549 540 526 543 q 582 539 557 539 q 635 538 607 539 q 689 536 664 538 q 722 533 714 535 q 748 515 739 529 q 762 482 757 501 q 769 442 767 463 q 771 404 771 421 q 767 290 774 347 q 740 179 761 232 q 711 122 728 150 q 671 72 694 94 q 619 33 647 49 q 560 6 590 17 m 590 931 q 606 922 597 922 q 622 926 615 922 q 630 939 628 931 q 625 956 632 947 q 606 971 619 963 q 578 986 593 979 q 549 999 564 993 q 526 1007 535 1004 q 515 1008 522 1007 q 497 1010 507 1010 q 480 1011 488 1011 q 468 1011 472 1011 q 454 1003 458 1010 q 451 989 450 996 q 457 976 451 982 q 472 969 463 969 q 500 966 483 969 q 535 958 517 963 q 568 946 553 953 q 590 931 583 939 m 653 879 q 680 891 672 876 q 669 918 688 906 q 653 919 661 924 q 641 907 644 915 q 640 890 638 899 q 653 879 642 881 z "},"H":{"ha":864,"x_min":26,"x_max":853,"o":"m 224 8 q 176 2 201 1 q 128 10 151 3 q 88 31 106 17 q 61 65 69 44 q 49 115 54 82 q 42 189 44 147 q 37 277 39 231 q 33 365 35 324 q 31 441 32 407 q 31 493 31 475 q 33 686 26 590 q 54 878 40 782 q 67 947 58 911 q 100 1006 76 982 q 140 1024 115 1021 q 188 1026 164 1028 q 234 1022 211 1025 q 279 1010 257 1018 q 307 994 294 1003 q 328 974 319 986 q 336 932 339 954 q 328 876 335 904 q 315 821 322 849 q 294 716 303 768 q 281 611 286 664 q 414 618 347 621 q 546 600 481 615 q 554 744 549 672 q 569 889 560 817 q 583 953 575 921 q 614 1008 592 985 q 656 1028 631 1025 q 703 1029 681 1031 q 755 1024 728 1028 q 803 1009 782 1019 q 839 981 825 999 q 851 939 853 964 q 844 891 851 926 q 829 815 838 856 q 813 740 821 775 q 804 692 806 704 q 790 517 792 604 q 792 342 789 429 q 796 281 792 322 q 803 194 800 239 q 804 110 806 150 q 794 51 803 69 q 774 28 788 36 q 746 13 761 19 q 703 4 726 6 q 657 7 679 3 q 615 22 635 11 q 585 50 596 33 q 565 114 572 69 q 555 208 558 158 q 551 303 551 257 q 550 372 550 349 q 415 398 488 400 q 276 379 343 396 q 281 310 276 357 q 288 212 285 263 q 291 115 292 161 q 281 50 290 69 q 257 23 274 33 q 224 8 240 13 m 257 863 q 256 847 254 854 q 263 836 258 840 q 275 831 268 832 q 289 836 282 831 q 299 853 296 842 q 304 877 303 864 q 306 903 306 890 q 304 925 306 917 q 295 956 301 940 q 278 983 289 972 q 251 999 267 994 q 224 993 235 1004 q 222 970 214 982 q 244 958 229 958 q 264 914 261 942 q 257 863 267 886 m 253 767 q 274 769 264 763 q 282 789 283 776 q 268 808 281 803 q 246 801 256 813 q 240 783 239 793 q 253 767 242 772 z "},"I":{"ha":349,"x_min":28,"x_max":338,"o":"m 225 8 q 167 1 197 0 q 110 15 136 3 q 78 38 92 24 q 58 71 64 53 q 49 113 51 92 q 44 156 47 135 q 37 276 39 217 q 35 396 35 336 q 34 415 35 400 q 33 444 33 429 q 31 474 32 460 q 31 493 31 489 q 31 604 28 549 q 38 715 33 660 q 45 802 42 760 q 56 888 49 844 q 63 929 58 908 q 76 969 68 950 q 92 996 83 983 q 114 1015 100 1008 q 153 1026 132 1025 q 193 1025 174 1026 q 244 1019 218 1024 q 290 1003 269 1014 q 324 977 311 993 q 336 936 338 961 q 328 881 335 908 q 315 825 322 853 q 279 596 288 710 q 275 475 275 535 q 276 354 275 415 q 284 240 278 296 q 292 125 290 183 q 290 85 292 106 q 279 49 289 65 q 256 24 272 33 q 225 8 240 14 m 257 863 q 256 845 253 853 q 267 834 260 838 q 282 832 274 831 q 294 843 290 833 q 300 865 299 854 q 304 886 301 875 q 293 964 311 926 q 269 991 286 979 q 235 999 251 1003 q 222 990 225 996 q 219 976 218 983 q 227 963 221 968 q 243 958 233 958 q 247 956 244 958 q 250 953 249 954 q 263 928 260 943 q 264 901 265 914 q 262 881 264 896 q 257 863 260 867 m 247 769 q 267 767 257 763 q 281 782 278 771 q 274 804 283 796 q 251 806 264 813 q 239 788 240 800 q 247 769 238 776 z "},"J":{"ha":726,"x_min":-3,"x_max":706,"o":"m 364 -15 q 246 -12 306 -19 q 136 24 186 -4 q 32 135 67 63 q 3 243 8 186 q 3 357 -3 300 q 13 410 6 383 q 39 456 19 436 q 67 472 50 467 q 101 479 85 478 q 171 478 135 482 q 232 451 207 474 q 251 431 243 443 q 261 406 258 419 q 258 363 267 385 q 249 297 246 333 q 275 239 253 261 q 332 221 299 214 q 386 254 365 228 q 411 298 401 274 q 425 347 421 322 q 442 608 442 478 q 415 867 442 739 q 405 905 411 886 q 399 943 399 924 q 419 996 399 972 q 447 1015 431 1007 q 478 1028 463 1022 q 537 1038 507 1036 q 597 1038 567 1040 q 656 1014 632 1035 q 672 991 667 1004 q 682 964 678 978 q 690 906 689 936 q 693 849 690 876 q 703 658 701 753 q 700 467 706 563 q 676 287 694 376 q 611 121 657 197 q 565 63 592 89 q 504 21 538 36 q 436 -3 472 6 q 364 -15 400 -12 m 565 975 q 583 974 575 971 q 593 985 590 978 q 594 1000 596 992 q 583 1013 593 1008 q 566 1017 576 1015 q 543 1019 556 1019 q 519 1018 531 1019 q 501 1014 508 1017 q 490 1002 493 1010 q 490 988 488 994 q 498 976 492 981 q 514 974 504 971 q 540 977 522 976 q 565 975 558 978 m 611 956 q 628 944 617 944 q 647 953 640 943 q 650 975 656 964 q 631 986 644 986 q 613 976 619 986 q 611 956 607 967 z "},"K":{"ha":763,"x_min":28,"x_max":754,"o":"m 685 3 q 648 -8 668 -6 q 607 -9 628 -11 q 567 1 586 -7 q 538 22 549 8 q 519 52 526 36 q 507 85 513 68 q 485 149 496 117 q 457 213 474 182 q 424 263 444 235 q 378 315 403 290 q 328 356 354 339 q 276 371 301 372 q 284 248 278 308 q 292 125 290 188 q 290 85 292 106 q 279 49 289 65 q 256 24 272 33 q 225 8 240 14 q 167 1 197 0 q 110 15 136 3 q 78 38 92 24 q 58 71 64 53 q 49 113 51 92 q 44 156 47 135 q 37 276 39 217 q 35 396 35 336 q 34 415 35 400 q 33 444 33 429 q 31 474 32 460 q 31 493 31 489 q 31 604 28 549 q 38 715 33 660 q 45 802 42 760 q 56 888 49 844 q 63 929 58 908 q 76 969 68 950 q 92 996 83 983 q 114 1015 100 1008 q 153 1026 132 1025 q 193 1025 174 1026 q 244 1019 218 1024 q 290 1003 269 1014 q 324 977 311 993 q 336 936 338 961 q 328 881 335 908 q 315 825 322 853 q 282 631 293 729 q 304 638 293 635 q 325 649 315 642 q 438 748 390 686 q 513 879 485 810 q 528 917 521 899 q 546 953 535 935 q 581 987 560 975 q 627 999 603 999 q 675 989 651 999 q 717 958 699 979 q 744 911 735 939 q 753 856 754 883 q 740 794 751 824 q 711 739 729 764 q 665 679 690 707 q 611 626 639 651 q 478 528 549 568 q 555 474 519 506 q 619 407 590 443 q 688 303 658 358 q 732 188 717 247 q 738 94 742 143 q 731 63 735 79 q 718 33 726 47 q 685 3 707 14 m 257 863 q 256 845 253 853 q 267 834 260 838 q 282 832 274 831 q 294 843 290 833 q 300 865 299 854 q 304 886 301 875 q 293 964 311 926 q 269 991 286 979 q 235 999 251 1003 q 222 990 225 996 q 219 976 218 983 q 227 963 221 968 q 243 958 233 958 q 247 956 244 958 q 250 953 249 954 q 263 928 260 943 q 264 901 265 914 q 262 881 264 896 q 257 863 260 867 m 247 769 q 267 767 257 763 q 281 782 278 771 q 274 804 283 796 q 251 806 264 813 q 239 788 240 800 q 247 769 238 776 z "},"L":{"ha":608,"x_min":26,"x_max":628,"o":"m 424 -15 q 276 -15 351 -17 q 222 -11 249 -14 q 168 -1 194 -8 q 129 8 149 3 q 93 25 110 14 q 60 65 69 42 q 49 113 53 81 q 41 187 44 146 q 36 274 38 228 q 33 361 35 319 q 31 436 32 403 q 31 488 31 469 q 33 669 26 579 q 51 850 40 758 q 59 910 54 879 q 75 968 64 940 q 99 1006 83 988 q 139 1024 114 1021 q 186 1026 164 1028 q 233 1022 210 1025 q 279 1010 257 1018 q 306 994 293 1003 q 326 974 319 986 q 335 953 333 964 q 336 932 336 943 q 328 877 333 904 q 315 822 322 850 q 297 730 304 776 q 283 635 289 683 q 275 406 269 521 q 289 175 281 290 q 361 177 325 175 q 433 182 397 179 q 482 186 457 185 q 531 188 507 188 q 556 186 543 188 q 581 181 569 185 q 619 134 611 169 q 621 67 628 99 q 610 40 618 53 q 589 18 601 26 q 566 7 578 11 q 543 0 554 3 q 484 -10 514 -7 q 424 -15 454 -12 m 257 863 q 260 838 250 849 q 285 833 271 826 q 294 843 292 836 q 299 857 297 850 q 305 911 306 883 q 293 963 304 939 q 271 990 286 978 q 239 1000 256 1001 q 223 992 228 999 q 219 978 218 986 q 225 965 219 971 q 242 958 231 958 q 253 950 249 958 q 260 935 257 942 q 257 863 271 896 m 251 767 q 272 769 263 763 q 282 789 282 776 q 267 808 281 803 q 244 801 254 813 q 240 783 238 793 q 251 767 242 772 z "},"M":{"ha":1117,"x_min":26,"x_max":1104,"o":"m 989 4 q 942 -1 967 -1 q 895 6 918 -1 q 854 28 872 14 q 828 63 836 42 q 815 129 819 82 q 807 229 810 176 q 803 331 804 282 q 800 400 801 379 q 769 322 785 361 q 739 244 754 283 q 719 183 728 214 q 694 125 710 153 q 669 88 683 106 q 636 60 656 71 q 588 41 615 47 q 534 36 561 35 q 483 47 507 38 q 443 74 458 56 q 424 110 433 83 q 408 166 415 136 q 395 223 401 196 q 386 264 389 250 q 339 478 363 372 q 290 693 315 585 q 276 519 278 607 q 276 344 274 432 q 281 283 276 325 q 288 196 285 242 q 290 109 290 150 q 279 50 289 68 q 256 24 272 35 q 221 10 239 14 q 174 3 199 3 q 127 11 150 4 q 86 32 104 18 q 60 67 68 46 q 49 115 53 82 q 41 190 44 149 q 36 276 38 231 q 33 363 35 321 q 31 438 32 404 q 31 489 31 471 q 33 670 26 581 q 51 851 40 760 q 59 912 54 882 q 75 969 64 942 q 99 1007 85 993 q 134 1024 111 1019 q 183 1028 157 1028 q 235 1024 210 1028 q 276 1015 260 1019 q 323 1003 300 1010 q 367 986 346 997 q 426 921 404 964 q 452 852 438 899 q 482 746 467 806 q 512 619 497 686 q 539 492 526 553 q 561 383 551 432 q 575 310 571 335 q 588 343 582 326 q 601 378 594 360 q 651 527 628 453 q 697 678 674 601 q 717 747 704 700 q 747 842 731 793 q 783 934 764 892 q 818 993 801 976 q 835 1003 825 1000 q 854 1010 844 1007 q 951 1024 900 1022 q 1047 1007 1003 1025 q 1072 994 1060 1001 q 1092 975 1083 986 q 1101 956 1099 967 q 1104 933 1104 944 q 1097 885 1104 921 q 1082 809 1090 850 q 1066 733 1074 768 q 1057 685 1058 697 q 1043 510 1044 597 q 1044 336 1042 424 q 1049 275 1044 317 q 1056 189 1053 233 q 1057 104 1058 144 q 1047 46 1056 64 q 1023 20 1039 31 q 989 4 1007 10 m 347 901 q 363 893 354 893 q 376 898 371 893 q 383 912 382 903 q 378 929 385 921 q 370 938 376 932 q 363 944 364 943 q 316 971 340 960 q 264 986 292 982 q 249 990 257 988 q 232 992 240 993 q 215 971 215 988 q 232 950 215 954 q 274 941 253 946 q 315 925 296 936 q 333 914 325 919 q 347 901 340 908 m 381 858 q 383 829 371 839 q 413 833 396 819 q 419 849 421 840 q 410 863 417 857 q 394 868 403 868 q 381 858 385 868 z "},"N":{"ha":956,"x_min":26,"x_max":944,"o":"m 888 44 q 865 19 881 29 q 829 3 849 8 q 789 -2 810 -1 q 751 0 768 -3 l 750 0 q 719 3 735 -1 q 688 11 703 7 q 630 38 657 21 q 579 78 603 56 q 528 142 550 106 q 489 215 507 178 q 419 369 453 292 q 351 525 385 446 q 322 592 336 558 q 285 653 307 625 q 274 494 275 574 q 276 336 274 415 q 281 276 278 317 q 288 190 285 235 q 289 106 290 146 q 279 49 288 67 q 256 23 272 33 q 222 8 240 13 q 176 2 200 1 q 128 10 151 3 q 88 31 106 17 q 60 65 69 44 q 49 113 53 81 q 41 187 44 146 q 36 274 38 228 q 33 361 35 319 q 31 436 32 403 q 31 488 31 469 q 33 669 26 579 q 51 850 40 758 q 59 910 54 879 q 75 968 64 940 q 90 995 82 982 q 113 1015 99 1008 q 145 1024 124 1022 q 190 1026 167 1026 q 234 1022 213 1025 q 268 1014 256 1018 l 269 1013 q 290 1008 281 1013 q 310 997 300 1003 q 372 946 346 978 q 417 878 397 914 q 478 749 451 815 q 531 615 506 682 q 582 482 556 549 q 642 353 608 415 q 640 422 640 388 q 638 493 639 457 q 637 551 636 514 q 640 635 638 589 q 646 731 642 681 q 656 826 650 781 q 667 908 661 872 q 682 964 674 944 q 697 990 689 978 q 719 1011 706 1003 q 756 1022 736 1021 q 796 1021 776 1022 q 847 1015 821 1019 q 895 1001 874 1011 q 931 973 917 990 q 943 931 944 956 q 936 883 943 918 q 921 807 929 847 q 906 731 913 767 q 897 683 899 696 q 882 509 883 596 q 883 335 881 422 q 888 274 883 315 q 894 188 892 232 q 897 103 897 143 q 888 44 896 63 m 361 840 q 374 829 365 831 q 390 832 383 828 q 401 844 397 836 q 399 860 404 851 q 371 901 386 881 q 336 936 356 921 q 292 965 317 954 q 243 982 268 975 q 223 978 231 985 q 213 964 215 972 q 217 948 211 956 q 235 940 222 940 q 263 932 243 940 q 290 919 283 924 q 313 901 303 911 q 333 882 324 892 q 348 861 338 876 q 361 840 358 846 m 415 807 q 399 806 406 811 q 390 792 392 800 q 391 775 388 783 q 406 767 394 767 q 431 782 426 767 q 415 807 435 797 z "},"O":{"ha":804,"x_min":8,"x_max":800,"o":"m 488 -4 q 372 -19 429 -24 q 271 5 319 -17 q 182 60 222 26 q 84 181 124 110 q 28 326 44 251 q 9 492 8 407 q 32 657 10 576 q 71 763 47 711 q 129 858 94 814 q 213 944 165 906 q 318 1000 261 982 q 511 1001 414 1033 q 605 951 561 985 q 682 876 649 918 q 748 763 722 825 q 785 636 774 701 q 794 460 800 549 q 757 288 788 371 q 708 183 738 235 q 638 92 678 132 q 567 35 606 60 q 488 -4 529 10 m 574 875 q 588 867 579 868 q 602 871 596 867 q 610 882 608 875 q 608 897 613 889 q 597 913 606 903 q 578 931 589 922 q 558 948 568 940 q 543 958 549 956 q 499 976 528 967 q 456 979 471 986 q 443 958 442 972 q 460 940 444 943 q 468 939 463 939 q 476 939 474 939 q 531 917 506 936 q 574 875 556 899 m 624 857 q 610 847 613 854 q 611 831 608 839 q 621 818 614 822 q 638 818 628 814 q 650 830 647 822 q 651 844 653 838 q 641 856 649 851 q 624 857 633 860 m 356 231 q 414 224 386 215 q 465 255 442 232 q 504 310 488 278 q 531 375 521 342 q 549 516 550 443 q 522 656 547 589 q 497 708 513 682 q 460 750 481 733 q 415 772 439 767 q 365 764 390 776 q 300 701 325 743 q 263 607 275 658 q 249 501 250 556 q 256 403 247 446 q 274 340 263 371 q 303 281 285 308 q 356 231 325 247 z "},"P":{"ha":754,"x_min":26,"x_max":761,"o":"m 222 8 q 176 2 200 1 q 128 10 151 3 q 88 31 106 17 q 60 65 69 44 q 49 113 53 81 q 41 187 44 146 q 36 274 38 228 q 33 361 35 319 q 31 436 32 403 q 31 488 31 469 q 33 669 26 579 q 51 850 40 758 q 59 910 54 879 q 75 968 64 940 q 92 997 82 983 q 117 1018 101 1011 q 159 1027 136 1028 q 204 1028 182 1026 q 332 1030 268 1031 q 458 1021 396 1029 q 541 1006 500 1015 q 618 975 582 997 q 682 925 653 956 q 728 858 711 894 q 753 777 746 819 q 756 693 761 735 q 716 590 749 639 q 639 507 683 540 q 533 444 590 469 q 418 400 476 418 q 347 385 382 390 q 275 374 311 379 q 277 330 276 351 q 281 286 278 308 q 285 235 282 269 q 289 165 288 201 q 289 97 290 129 q 279 49 288 64 q 256 23 272 33 q 222 8 240 13 m 588 910 q 615 912 603 899 q 617 940 628 925 q 608 949 614 943 q 594 960 601 954 q 579 970 586 965 q 568 976 572 975 q 453 1004 515 1004 q 435 1003 444 1004 q 419 996 425 1003 q 417 974 411 985 q 436 963 424 963 q 475 962 456 963 q 514 954 494 961 q 524 950 517 953 q 538 944 531 947 q 551 938 544 942 q 560 933 557 935 q 574 922 567 928 q 588 910 581 915 m 614 874 q 633 865 621 864 q 650 878 644 867 q 647 899 656 889 q 626 907 639 910 q 611 893 615 904 q 614 874 607 882 m 289 688 q 283 632 285 660 q 278 576 281 604 q 356 588 317 582 q 432 606 394 594 q 478 627 456 613 q 517 661 501 642 q 534 721 535 686 q 514 779 533 756 q 474 807 500 797 q 397 826 438 824 q 317 825 357 828 q 311 799 315 818 q 302 757 307 779 q 294 715 297 735 q 289 688 290 694 z "},"Q":{"ha":810,"x_min":3,"x_max":797,"o":"m 790 -19 q 773 -79 790 -53 q 730 -119 756 -106 q 674 -133 704 -133 q 614 -115 643 -133 q 557 -62 581 -94 q 515 7 533 -29 q 438 -17 479 -10 q 357 -18 397 -24 q 219 32 285 -12 q 151 89 182 56 q 96 161 119 122 q 39 288 60 219 q 13 425 18 356 q 29 644 3 533 q 118 843 56 754 q 188 922 149 886 q 274 982 226 958 q 359 1010 314 1001 q 449 1015 404 1019 q 535 992 493 1010 q 613 946 576 974 q 713 831 672 899 q 774 688 754 763 q 797 515 796 604 q 774 342 797 425 q 731 225 758 282 q 664 121 704 168 q 728 69 693 94 q 751 51 739 60 q 772 32 763 43 q 790 -19 790 10 m 574 875 q 588 867 579 868 q 602 871 596 867 q 610 882 608 875 q 608 897 613 889 q 597 913 606 903 q 578 931 589 922 q 558 948 568 940 q 543 958 549 956 q 525 966 536 961 q 501 974 514 971 q 478 980 489 978 q 460 981 467 982 q 443 963 444 978 q 456 942 442 949 q 469 939 458 940 q 482 938 479 938 q 525 921 503 932 q 551 901 540 913 q 574 875 563 889 m 624 857 q 610 847 613 854 q 611 831 608 839 q 621 818 614 822 q 638 818 628 814 q 650 830 647 822 q 651 844 653 838 q 641 856 649 851 q 624 857 633 860 m 261 379 q 283 316 269 347 q 317 261 297 285 q 362 226 336 238 q 418 225 388 215 q 401 288 404 254 q 413 328 401 311 q 442 351 425 344 q 479 351 460 357 q 513 326 499 346 q 549 490 546 401 q 522 656 551 578 q 487 724 510 690 q 428 768 464 757 q 382 769 404 776 q 340 747 360 763 q 306 708 321 731 q 281 661 290 685 q 249 522 253 594 q 261 379 244 449 z "},"R":{"ha":769,"x_min":28,"x_max":758,"o":"m 647 -14 q 592 -10 619 -17 q 542 11 564 -4 q 519 38 528 22 q 504 69 510 53 q 492 126 497 97 q 479 183 488 156 q 451 238 469 213 q 411 286 433 264 q 349 334 383 313 q 276 363 314 356 q 285 239 278 300 q 290 115 292 178 q 285 69 289 93 q 265 31 282 46 q 206 3 242 8 q 138 6 169 -1 q 105 17 121 10 q 78 38 89 25 q 54 85 61 54 q 47 133 50 100 q 42 209 44 167 q 37 298 39 251 q 33 387 35 344 q 31 463 32 429 q 29 513 29 496 q 31 603 28 558 q 36 694 33 649 q 40 738 38 706 q 47 807 43 771 q 55 876 51 843 q 61 919 58 908 q 75 968 67 943 q 103 1008 83 993 q 139 1024 118 1022 q 179 1026 160 1026 q 201 1027 183 1026 q 222 1028 218 1028 q 371 1028 297 1031 q 518 1011 444 1026 q 613 977 567 1001 q 692 914 660 953 q 740 830 724 878 q 758 733 756 782 q 754 681 758 707 q 739 631 750 654 q 705 572 726 599 q 658 522 683 546 q 590 474 626 494 q 515 436 554 453 q 598 383 558 413 q 667 315 638 354 q 706 249 690 285 q 728 178 721 214 q 733 110 733 144 q 722 44 733 76 q 647 -14 703 -10 m 588 910 q 615 912 603 899 q 617 940 628 925 q 608 949 614 943 q 594 960 601 954 q 579 970 586 965 q 568 976 572 975 q 453 1004 515 1004 q 440 1004 450 1004 q 426 1001 429 1004 q 417 991 419 997 q 415 978 414 985 q 422 967 417 972 q 436 963 428 963 q 461 963 449 963 q 486 961 474 963 q 502 958 492 961 q 524 950 513 954 q 545 941 535 946 q 560 933 556 936 q 574 922 567 928 q 588 910 581 915 m 614 874 q 633 865 621 864 q 650 878 644 867 q 647 899 656 889 q 626 907 639 910 q 611 893 615 904 q 614 874 607 882 m 290 696 q 283 635 285 665 q 278 576 281 606 q 375 591 326 583 q 468 621 424 599 q 505 648 489 631 q 528 686 521 665 q 533 728 535 707 q 519 771 532 750 q 489 799 508 789 q 450 815 469 810 q 384 826 418 825 q 317 825 350 828 q 312 801 315 819 q 303 760 308 782 q 295 720 299 739 q 290 696 292 701 z "},"S":{"ha":700,"x_min":14,"x_max":693,"o":"m 465 6 q 357 -12 413 -10 q 246 -10 301 -14 q 163 -1 204 -7 q 82 19 121 4 q 40 46 56 29 q 20 85 26 61 q 14 133 14 108 q 21 183 14 158 q 39 226 28 208 q 63 247 49 242 q 89 256 75 254 q 117 258 103 258 q 201 246 160 257 q 282 224 242 235 q 339 214 310 217 q 396 219 368 211 q 450 260 431 231 q 456 324 469 289 q 434 354 449 340 q 404 378 419 368 q 355 399 381 392 q 306 417 329 407 q 223 451 264 432 q 143 493 182 469 q 88 535 114 511 q 46 589 61 558 q 21 660 28 622 q 17 735 14 697 q 32 810 19 774 q 67 876 44 846 q 106 918 83 900 q 153 951 128 936 q 222 982 185 971 q 297 999 260 993 q 413 1003 356 1006 q 526 992 469 1001 q 578 982 553 988 q 628 967 603 976 q 642 960 635 964 q 657 949 650 956 q 680 911 672 933 q 688 863 688 889 q 681 813 688 838 q 664 769 675 788 q 638 743 656 751 q 608 735 624 736 q 576 733 592 733 q 492 748 533 736 q 407 771 450 760 q 356 777 382 776 q 304 771 329 778 q 276 756 289 765 q 253 735 263 747 q 240 690 240 715 q 257 649 240 664 q 306 620 278 629 q 361 603 333 611 q 499 542 433 581 q 618 451 565 504 q 648 415 636 435 q 668 372 660 394 q 681 222 693 300 q 659 158 674 189 q 622 100 644 126 q 551 41 592 64 q 465 6 510 18 m 561 922 q 583 931 575 919 q 585 953 592 942 q 576 962 582 960 q 563 967 569 964 q 543 972 556 968 q 517 978 531 975 q 490 981 503 981 q 469 981 476 982 q 456 958 454 974 q 472 940 457 943 q 483 939 478 939 q 494 939 489 939 q 528 931 511 936 q 561 922 544 926 m 606 913 q 613 892 601 900 q 635 890 624 885 q 645 908 646 896 q 635 928 644 921 q 617 928 626 935 q 606 913 608 922 z "},"T":{"ha":653,"x_min":-8,"x_max":668,"o":"m 329 -6 q 283 -11 307 -11 q 235 -4 258 -11 q 194 17 213 3 q 168 51 176 31 q 153 135 158 76 q 144 261 147 194 q 141 388 142 328 q 139 475 140 449 q 141 631 136 554 q 154 788 146 708 q 92 782 124 783 q 35 797 60 781 q 7 827 17 808 q -6 867 -3 846 q -5 912 -8 889 q 8 954 -1 935 q 52 992 21 978 q 122 1014 83 1007 q 198 1024 160 1021 q 264 1026 236 1026 q 318 1026 278 1026 q 404 1026 358 1026 q 490 1026 450 1026 q 544 1025 531 1025 q 574 1022 560 1024 q 603 1017 589 1021 q 638 997 622 1011 q 660 963 653 982 q 667 923 667 943 q 665 882 668 903 q 655 842 663 863 q 632 810 647 821 q 592 795 614 797 q 547 794 569 793 q 524 796 542 794 q 485 799 506 797 q 447 803 465 801 q 424 804 429 804 q 418 779 422 797 q 410 740 414 761 q 402 699 406 718 q 397 675 399 681 q 383 501 385 588 q 385 326 382 414 q 389 265 385 307 q 396 179 393 224 q 398 94 399 135 q 388 36 397 54 q 363 10 379 19 q 329 -6 347 0 m 561 951 q 576 950 569 947 q 587 958 583 953 q 590 972 590 964 q 582 986 589 979 q 561 995 575 992 q 531 1000 547 999 q 500 1002 515 1001 q 476 1003 485 1003 q 460 997 465 1003 q 454 982 454 990 q 460 967 454 974 q 476 961 465 961 q 506 961 492 961 q 535 957 519 961 q 548 954 538 956 q 561 951 558 953 m 594 933 q 612 916 597 918 q 633 928 626 914 q 624 957 643 947 q 602 954 613 963 q 594 933 592 946 z "},"U":{"ha":828,"x_min":24,"x_max":804,"o":"m 601 29 q 480 1 543 7 q 354 3 417 -4 q 274 15 314 6 q 197 44 233 25 q 94 140 132 79 q 67 197 78 167 q 51 258 57 226 l 50 263 q 28 388 32 325 q 24 515 24 451 q 28 672 24 594 q 42 826 33 749 q 49 890 44 858 q 65 953 54 922 q 83 985 72 969 q 110 1007 94 1000 q 156 1020 131 1018 q 206 1021 182 1022 q 250 1017 228 1019 q 290 1003 272 1014 q 311 983 303 996 q 322 956 319 969 q 329 910 329 933 q 326 863 329 886 q 301 648 315 754 q 285 433 286 542 q 285 389 285 411 q 290 344 286 367 q 299 309 293 326 q 317 276 306 292 q 351 247 331 257 q 374 241 360 243 q 405 238 389 239 q 436 238 421 238 q 460 240 451 238 q 511 276 490 249 q 531 317 525 294 q 539 361 536 339 q 542 450 544 406 q 538 539 540 494 q 517 739 529 639 q 509 799 514 769 q 501 861 504 829 q 499 913 499 886 q 507 963 500 939 q 520 986 511 975 q 542 1004 529 997 q 580 1015 556 1011 q 630 1020 604 1019 q 679 1017 656 1021 q 718 1007 703 1014 q 744 983 733 999 q 761 953 754 968 q 778 890 774 922 q 786 825 783 857 q 799 665 794 744 q 804 504 804 585 q 799 382 803 443 q 778 263 794 321 q 776 257 776 261 q 758 192 769 224 q 728 132 747 160 q 672 72 704 99 q 601 29 640 44 m 251 846 q 254 830 249 836 q 267 822 260 824 q 283 823 275 819 q 293 838 290 826 q 297 882 299 860 q 290 928 294 904 q 284 948 288 936 q 274 971 281 960 q 260 990 268 982 q 243 1001 253 999 q 220 990 228 1004 q 225 964 213 975 q 242 941 235 956 q 251 910 249 926 q 254 876 254 893 q 251 846 254 858 m 244 782 q 245 761 239 771 q 263 751 251 751 q 283 763 276 751 q 281 785 289 774 q 261 794 274 794 q 244 782 249 793 z "},"V":{"ha":892,"x_min":-1,"x_max":893,"o":"m 500 -14 q 400 -18 451 -25 q 355 -10 376 -15 q 314 7 333 -6 q 288 28 299 15 q 268 57 278 42 q 232 122 249 89 q 200 190 215 156 q 135 351 165 269 q 82 515 104 432 q 63 588 71 551 q 44 661 54 625 q 22 755 33 708 q 4 850 10 801 q 0 897 1 874 q 6 943 -1 921 q 32 979 13 967 q 73 1000 51 993 q 118 1011 94 1007 q 160 1017 139 1015 q 203 1013 182 1018 q 228 1003 215 1010 q 247 985 240 996 q 266 940 257 972 q 283 870 275 907 q 296 799 290 833 q 304 750 301 765 q 335 590 318 669 q 375 432 351 511 q 405 335 389 383 q 449 242 421 286 q 510 351 488 292 q 549 469 532 410 q 592 694 578 581 q 631 919 607 807 q 644 962 636 940 q 671 996 653 983 q 722 1014 694 1011 q 778 1014 750 1017 q 829 1004 803 1011 q 872 979 856 997 q 890 935 886 964 q 891 873 893 906 q 883 809 889 840 q 874 757 878 778 q 794 435 846 593 q 663 133 743 278 q 628 78 647 106 q 585 31 608 51 q 545 3 567 15 q 500 -14 524 -8 m 222 833 q 233 819 225 822 q 248 817 240 815 q 260 826 256 819 q 264 843 265 832 q 253 882 258 863 q 242 921 249 901 q 232 947 238 935 q 218 971 226 960 q 194 977 208 982 q 181 957 181 972 q 186 943 181 950 q 194 929 192 936 q 210 881 204 906 q 222 833 217 857 m 251 750 q 274 758 265 747 q 275 781 282 768 q 253 792 268 793 q 236 776 239 792 q 251 750 232 756 z "},"W":{"ha":1183,"x_min":10,"x_max":1174,"o":"m 418 4 q 319 -16 374 -17 q 221 7 265 -15 q 184 36 200 18 q 156 75 168 54 q 120 151 133 111 q 96 232 107 192 q 66 378 76 304 q 49 526 56 451 q 32 717 39 622 q 14 908 25 813 q 10 938 11 922 q 17 965 10 953 q 43 993 25 982 q 83 1010 61 1004 q 129 1019 106 1017 q 171 1019 153 1021 q 224 1008 197 1017 q 269 979 250 999 q 288 948 283 967 q 296 911 293 929 q 301 860 299 896 q 308 777 304 824 q 315 678 311 731 q 321 580 318 626 q 326 497 324 533 q 331 447 329 461 q 337 380 333 414 q 354 315 340 346 q 366 297 357 308 q 382 283 375 286 q 396 287 389 282 q 406 297 403 292 q 422 329 417 313 q 432 363 428 346 q 444 415 439 389 q 453 468 449 442 q 458 506 454 479 q 467 567 463 533 q 478 639 472 601 q 490 710 485 676 q 501 772 496 744 q 508 810 506 799 q 515 831 511 821 q 526 851 519 842 q 543 864 533 860 q 564 869 553 868 q 575 871 567 871 q 586 871 583 871 q 619 873 601 875 q 650 861 636 871 q 669 833 661 853 q 681 790 676 814 q 689 744 686 767 q 694 707 692 721 q 699 675 696 697 q 707 624 703 653 q 717 561 711 594 q 726 499 722 528 q 735 447 731 469 q 740 415 739 424 q 751 367 744 392 q 767 319 757 343 q 779 298 771 310 q 797 286 788 286 q 817 297 808 285 q 831 319 825 308 q 840 351 838 335 q 846 383 843 368 q 852 444 849 401 q 859 541 856 486 q 867 658 863 596 q 875 774 871 719 q 883 872 879 829 q 890 932 888 914 q 899 959 893 946 q 915 982 904 972 q 952 1006 931 997 q 996 1019 974 1015 q 1039 1022 1014 1022 q 1088 1015 1064 1021 q 1133 999 1113 1010 q 1164 972 1154 989 q 1172 948 1171 961 q 1172 922 1174 935 q 1149 688 1157 804 q 1126 456 1142 572 q 1107 319 1119 386 q 1075 186 1094 253 q 1044 105 1061 146 q 994 33 1026 64 q 960 9 979 18 q 921 -6 940 0 q 843 -13 883 -15 q 768 6 803 -11 q 708 63 736 19 q 658 158 681 106 q 617 262 635 210 q 592 347 600 314 q 567 259 581 303 q 535 172 553 215 q 504 106 521 139 q 465 44 488 74 q 443 22 454 33 q 418 4 432 11 m 235 782 q 247 772 239 774 q 261 772 254 769 q 272 781 268 775 q 275 796 276 788 q 274 808 275 799 q 272 828 272 818 q 269 849 271 839 q 268 863 268 858 q 260 911 265 886 q 244 958 256 936 q 238 971 242 965 q 226 979 233 976 q 211 981 218 983 q 200 972 204 978 q 197 959 196 967 q 204 946 197 951 q 211 931 208 943 q 215 913 214 918 q 227 856 224 885 q 233 799 231 826 q 235 782 233 788 m 249 711 q 265 706 256 706 q 279 714 274 707 q 281 739 289 726 q 258 749 274 751 q 241 733 244 746 q 249 711 238 719 z "},"X":{"ha":814,"x_min":-3,"x_max":824,"o":"m 653 -25 q 600 -36 629 -36 q 549 -22 571 -36 q 515 8 532 -12 q 482 56 504 21 q 435 131 460 90 q 389 206 410 171 q 360 256 368 242 q 315 178 336 217 q 269 100 293 139 q 240 56 254 78 q 207 13 225 33 q 192 -3 200 4 q 174 -15 185 -11 q 130 -22 153 -24 q 85 -11 107 -21 q 45 14 64 -1 q 15 49 26 29 q -1 99 1 71 q 1 131 -3 115 q 13 161 6 146 q 33 201 18 174 q 69 263 49 228 q 113 335 90 297 q 157 406 136 372 q 194 465 178 439 q 219 504 211 492 q 203 540 214 515 q 177 596 192 564 q 147 663 163 628 q 118 731 132 699 q 94 788 104 763 q 79 825 83 814 q 64 900 67 863 q 65 928 63 914 q 76 954 68 943 q 106 979 86 967 q 149 1001 126 992 q 195 1016 172 1010 q 233 1022 218 1022 q 258 1019 246 1021 q 281 1010 269 1017 q 310 979 299 1000 q 327 935 315 968 q 351 864 339 901 q 374 794 364 826 q 389 749 385 761 q 421 788 397 758 q 471 849 444 817 q 521 909 497 881 q 554 947 544 938 q 588 977 569 963 q 626 1001 606 992 q 674 1008 649 1013 q 708 995 692 1006 q 739 974 724 985 q 776 942 758 958 q 806 904 794 925 q 819 870 815 889 q 819 835 824 851 q 797 796 814 814 q 777 775 792 790 q 744 740 763 760 q 705 700 726 721 q 665 660 683 679 q 633 625 647 640 q 613 604 618 610 q 560 544 585 575 q 511 481 535 513 q 524 454 514 474 q 547 413 535 435 q 570 372 560 392 q 585 347 581 353 q 640 260 613 303 q 694 174 668 218 q 717 131 706 153 q 733 83 729 108 q 730 50 736 67 q 712 19 724 33 q 684 -8 700 4 q 653 -25 668 -19 m 286 846 q 310 844 297 836 q 319 867 322 851 q 317 872 318 869 q 314 878 315 875 q 296 928 303 901 q 271 974 289 954 q 259 985 268 976 q 247 996 250 994 q 231 997 239 1000 q 219 989 224 994 q 216 975 215 983 q 224 961 217 967 q 247 933 239 950 q 263 899 256 917 q 272 871 265 890 q 286 846 279 851 m 300 786 q 319 775 307 775 q 338 786 332 775 q 336 809 344 799 q 314 817 328 819 q 300 805 304 814 q 300 786 296 796 z "},"Y":{"ha":807,"x_min":-14,"x_max":826,"o":"m 353 1 q 319 -13 338 -10 q 283 -14 301 -17 q 238 1 260 -10 q 199 28 215 11 q 172 65 182 44 q 163 110 161 86 q 181 181 164 132 q 218 283 197 229 q 260 384 239 336 q 289 453 281 432 q 229 516 257 483 q 175 583 201 549 q 81 706 128 644 q 6 838 35 767 q -8 881 -3 858 q -10 925 -14 903 q 10 967 -6 949 q 47 999 25 986 q 94 1017 68 1011 q 143 1022 119 1024 q 173 1015 158 1021 q 200 999 188 1008 q 234 961 219 982 q 261 919 249 940 q 328 808 294 863 q 403 704 361 753 q 460 808 431 757 q 521 910 490 860 q 553 961 536 936 q 593 1004 569 986 q 656 1028 621 1024 q 719 1025 688 1032 q 776 1001 751 1018 q 813 958 800 983 q 821 899 826 932 q 806 856 817 878 q 776 811 799 844 q 728 740 754 778 q 678 669 701 703 q 649 625 656 636 q 558 462 599 546 q 482 290 518 378 q 459 227 474 269 q 426 139 444 185 q 389 54 408 93 q 353 1 369 15 m 193 869 q 207 857 199 858 q 223 860 215 856 q 233 874 231 865 q 228 893 235 883 q 216 909 221 900 q 204 926 211 918 q 199 933 203 928 q 190 945 194 939 q 181 957 185 951 q 175 964 176 963 q 157 977 171 968 q 136 988 143 986 q 121 986 128 990 q 111 975 114 982 q 111 960 108 968 q 122 949 114 953 q 133 942 125 947 q 144 935 142 938 q 170 904 157 919 q 193 869 183 889 m 235 833 q 234 816 231 824 q 244 805 238 808 q 260 803 251 801 q 274 815 269 806 q 274 833 278 825 q 263 843 271 840 q 247 844 256 846 q 235 833 239 843 z "},"Z":{"ha":821,"x_min":1,"x_max":821,"o":"m 674 13 q 604 8 650 11 q 502 3 558 6 q 383 -1 446 1 q 265 -2 321 -3 q 163 1 208 -1 q 96 8 118 3 q 67 17 81 11 q 43 33 54 22 q 31 48 36 40 q 24 64 26 56 q 19 95 19 79 q 22 126 19 111 q 38 181 28 154 q 58 232 47 207 q 198 516 121 378 q 367 783 275 654 q 275 777 321 781 q 183 774 229 774 q 131 774 157 774 q 79 782 104 775 q 40 799 54 788 q 14 835 25 811 q 4 870 7 850 q 3 911 1 890 q 13 951 6 932 q 32 981 19 969 q 57 997 43 992 q 85 1004 71 1001 q 127 1006 106 1007 q 169 1004 149 1006 q 349 1010 260 1001 q 526 1022 438 1018 q 601 1024 564 1025 q 674 1018 638 1024 q 715 1008 694 1014 q 754 992 735 1003 q 774 976 765 985 q 789 956 783 967 q 795 926 794 943 q 792 891 796 908 q 782 858 789 874 q 765 832 775 842 q 749 814 757 822 q 733 796 742 806 q 531 524 628 664 q 364 231 435 385 q 431 237 382 232 q 535 247 479 242 q 639 254 590 251 q 706 256 688 257 q 753 246 729 253 q 793 224 776 239 q 815 185 808 210 q 821 142 821 165 q 815 98 821 119 q 796 58 808 76 q 765 32 783 40 q 721 18 744 21 q 674 13 697 15 m 690 944 q 706 943 699 940 q 717 952 713 946 q 720 966 721 958 q 713 979 719 974 q 696 989 708 983 q 678 996 683 994 q 638 1001 658 999 q 597 999 617 1003 q 583 988 586 996 q 581 973 579 981 q 590 960 583 965 q 606 957 596 954 q 637 958 621 960 q 668 956 653 957 q 680 951 675 954 q 690 944 685 947 m 725 901 q 746 898 735 894 q 760 913 757 901 q 753 932 763 924 q 733 938 744 940 q 718 922 721 935 q 725 901 715 908 z "},"[":{"ha":565,"x_min":36,"x_max":564,"o":"m 531 -14 q 496 -23 519 -21 q 446 -25 472 -25 q 394 -24 419 -25 q 357 -22 369 -22 q 314 -22 346 -22 q 245 -20 282 -21 q 176 -19 208 -19 q 133 -18 143 -18 q 95 -14 114 -17 q 61 -1 76 -11 q 45 15 51 4 q 36 38 39 26 q 36 58 36 43 q 38 91 36 74 q 40 124 39 108 q 40 144 40 139 q 42 227 40 168 q 44 363 43 286 q 47 524 46 439 q 49 686 49 610 q 51 822 50 763 q 51 904 51 881 l 51 907 q 49 942 47 924 q 58 975 50 960 q 89 1001 67 992 q 136 1012 103 1008 q 207 1017 169 1015 q 279 1020 244 1019 q 329 1021 314 1021 q 371 1021 343 1021 q 428 1020 399 1021 q 483 1016 457 1019 q 522 1006 510 1013 q 544 974 540 994 q 551 939 549 960 q 551 896 553 918 q 545 854 550 874 q 532 824 540 835 q 489 799 517 804 q 436 793 461 794 q 404 793 428 793 q 353 793 381 793 q 303 794 326 793 q 272 794 279 794 q 263 485 264 639 q 268 176 261 332 q 364 180 317 179 q 460 178 411 181 q 503 175 481 176 q 540 158 525 174 q 560 119 557 143 q 563 72 564 94 q 553 25 561 54 q 531 -14 546 -4 m 400 958 q 411 958 403 958 q 429 957 419 957 q 448 956 439 957 q 460 956 457 956 q 475 962 469 956 q 481 976 481 968 q 475 991 481 985 q 458 997 469 997 q 446 998 456 997 q 426 999 436 999 q 406 999 415 999 q 393 1000 396 1000 q 371 1000 386 1000 q 350 996 356 1000 q 342 977 342 989 q 354 960 343 965 q 377 957 365 956 q 400 958 389 958 m 492 947 q 506 932 494 936 q 525 935 517 928 q 533 956 536 943 q 517 972 529 969 q 497 967 506 975 q 492 947 489 958 z "},"\\":{"ha":671,"x_min":-28,"x_max":692,"o":"m 681 78 q 649 42 669 58 q 605 14 629 25 q 555 -1 581 3 q 507 -1 529 -6 q 476 13 493 0 q 439 65 460 25 q 397 151 418 104 q 359 240 376 197 q 333 301 342 282 q 249 465 293 385 q 151 619 206 544 q 119 660 143 631 q 67 724 94 690 q 15 789 39 758 q -15 832 -8 819 q -22 879 -28 857 q 1 921 -17 901 q 44 957 19 940 q 94 986 69 974 q 137 1006 114 997 q 182 1010 160 1014 q 231 985 210 1004 q 269 944 251 965 q 299 904 278 935 q 342 839 319 874 q 385 773 365 804 q 413 731 406 742 q 463 647 438 689 q 508 560 488 604 q 531 511 515 543 q 565 439 546 479 q 606 353 585 399 q 644 268 626 308 q 674 194 661 228 q 689 144 686 161 q 690 110 692 128 q 681 78 689 93 m 75 924 q 70 908 69 915 q 76 894 71 900 q 90 888 82 889 q 104 893 97 888 q 120 906 113 900 q 139 915 128 913 q 165 922 151 919 q 192 921 178 924 q 208 924 201 918 q 217 937 215 929 q 214 952 218 944 q 200 963 210 960 q 168 963 186 965 q 132 956 150 961 q 99 942 114 951 q 75 924 83 933 m 29 858 q 41 839 29 844 q 64 842 53 833 q 71 860 72 849 q 58 878 69 872 q 38 876 47 883 q 29 858 29 869 z "},"]":{"ha":567,"x_min":1,"x_max":535,"o":"m 175 -24 q 117 -24 146 -25 q 60 -21 89 -24 q 42 -17 51 -19 q 28 -7 33 -14 q 8 31 13 8 q 3 74 4 53 q 4 117 1 94 q 21 154 7 139 q 51 172 32 168 q 89 176 71 175 q 194 180 142 181 q 299 176 246 179 q 304 485 306 332 q 294 794 303 639 q 222 794 258 794 q 149 793 185 793 q 110 794 129 793 q 71 801 90 796 q 36 821 49 806 q 19 854 25 835 q 15 888 17 868 q 15 929 14 908 q 20 969 15 950 q 35 997 25 988 q 64 1014 44 1010 q 126 1019 82 1018 q 219 1021 169 1021 q 313 1019 268 1021 q 375 1018 357 1018 q 424 1015 399 1017 q 472 1004 449 1013 q 508 975 499 994 q 517 942 517 960 q 515 907 518 924 l 515 906 q 515 834 515 885 q 517 717 515 783 q 519 578 518 651 q 522 440 521 506 q 524 323 522 374 q 525 251 525 272 q 525 224 525 244 q 525 181 525 204 q 526 138 525 158 q 526 111 526 117 q 531 65 526 88 q 525 21 535 42 q 500 -3 518 6 q 464 -14 482 -11 q 408 -18 449 -17 q 320 -21 367 -19 q 232 -23 274 -22 q 175 -24 190 -24 m 385 958 q 403 956 389 958 q 421 953 417 953 q 440 969 438 953 q 429 993 443 986 q 421 994 425 994 q 413 996 417 994 q 363 1003 389 1000 q 314 1000 338 1006 q 300 990 303 997 q 299 975 297 982 q 308 963 301 968 q 326 960 315 957 q 385 958 353 965 m 450 942 q 460 918 447 926 q 483 919 472 910 q 492 936 492 926 q 483 953 492 946 q 464 956 475 960 q 450 942 453 953 z "},"^":{"ha":551,"x_min":11,"x_max":540,"o":"m 139 611 q 110 613 126 608 q 79 624 94 617 q 50 640 64 631 q 28 660 36 650 q 14 693 15 676 q 25 745 11 714 q 59 809 39 776 q 99 871 79 842 q 132 917 119 900 q 145 938 135 921 q 160 958 156 954 q 187 997 171 979 q 225 1024 203 1015 q 292 1029 257 1035 q 354 1003 326 1024 q 386 968 365 994 q 428 911 407 942 q 468 852 450 881 q 494 811 486 824 q 520 767 508 790 q 538 719 532 744 q 538 690 540 706 q 525 663 535 674 q 503 643 518 653 q 472 626 489 633 q 439 616 456 619 q 410 615 422 613 q 372 633 389 618 q 344 665 356 647 q 330 693 340 672 q 308 738 319 714 q 285 783 296 763 q 271 813 275 804 q 238 740 254 776 q 201 668 221 704 q 175 633 190 650 q 139 611 160 615 m 354 876 q 382 878 369 865 q 383 906 394 890 q 379 910 382 907 q 376 914 376 913 q 362 938 369 924 q 345 966 354 953 q 326 987 336 979 q 304 992 317 994 q 288 974 290 989 q 300 953 286 960 q 309 944 304 950 q 319 929 314 938 q 328 913 325 921 q 335 901 332 906 q 354 876 344 885 m 408 836 q 399 823 399 832 q 404 807 399 814 q 418 798 410 800 q 433 804 426 796 q 438 833 447 821 q 408 836 428 844 z "},"_":{"ha":558,"x_min":-49,"x_max":599,"o":"m 540 -196 q 485 -211 514 -207 q 428 -215 456 -215 q 390 -215 417 -215 q 328 -215 363 -215 q 256 -213 294 -214 q 183 -212 217 -212 q 122 -211 149 -211 q 83 -210 94 -211 q 40 -206 61 -208 q -1 -193 18 -204 q -26 -174 -15 -186 q -42 -149 -36 -162 q -49 -107 -49 -129 q -42 -64 -49 -85 q -22 -26 -35 -43 q 10 3 -10 -8 q 48 15 28 13 q 88 18 68 17 q 167 18 128 19 q 247 17 207 17 q 288 17 257 17 q 354 18 319 18 q 419 18 389 18 q 461 18 450 18 q 508 14 485 15 q 551 1 531 13 q 590 -46 582 -15 q 597 -108 599 -75 q 576 -167 594 -140 q 540 -196 564 -185 m 324 -12 q 307 -20 313 -14 q 302 -34 301 -26 q 309 -48 303 -42 q 326 -54 315 -54 q 351 -53 332 -54 q 375 -51 371 -51 q 392 -52 381 -51 q 415 -52 403 -53 q 436 -49 426 -51 q 450 -43 446 -47 q 452 -20 461 -32 q 428 -10 443 -8 q 376 -10 401 -11 q 324 -12 350 -10 m 489 -46 q 512 -58 496 -58 q 535 -46 528 -58 q 533 -26 542 -35 q 511 -17 525 -17 q 490 -26 499 -17 q 489 -46 482 -35 z "},"a":{"ha":768,"x_min":0,"x_max":767,"o":"m 733 10 q 699 -7 722 0 q 651 -18 676 -14 q 602 -24 626 -22 q 564 -24 578 -26 q 534 -17 549 -21 q 508 -1 519 -12 q 486 39 490 14 q 482 80 483 60 q 478 121 481 100 q 373 131 426 132 q 267 128 319 129 q 253 73 260 100 q 233 22 246 46 q 212 -5 224 4 q 181 -18 200 -14 q 131 -22 157 -24 q 81 -10 106 -19 q 38 16 57 0 q 8 53 18 32 q 1 76 3 64 q 0 99 0 88 q 6 149 0 115 q 22 224 13 182 q 44 313 32 267 q 67 401 56 360 q 86 476 78 443 q 99 526 94 510 q 157 703 122 614 q 175 749 161 715 q 205 822 189 783 q 235 894 221 861 q 257 940 250 928 q 289 986 271 964 q 333 1015 307 1008 q 361 1019 342 1018 q 402 1022 381 1021 q 443 1022 424 1022 q 471 1019 463 1021 q 539 975 515 1011 q 561 929 549 961 q 588 856 574 897 q 616 770 601 815 q 643 683 631 725 q 665 609 656 642 q 681 560 675 576 q 697 499 688 538 q 717 413 707 461 q 738 313 728 365 q 754 214 747 261 q 764 127 761 167 q 763 65 767 88 q 753 35 760 50 q 733 10 746 19 m 532 789 q 539 774 533 779 q 551 768 544 769 q 565 771 558 767 q 574 785 571 775 q 572 801 575 790 q 566 822 569 811 q 559 844 563 833 q 554 861 556 856 q 507 953 538 910 q 490 969 500 963 q 469 969 479 975 q 457 951 457 964 q 469 932 457 939 q 476 925 472 931 q 481 917 479 919 q 501 881 493 900 q 517 842 510 861 q 525 816 518 836 q 532 789 532 796 m 556 708 q 569 691 558 696 q 590 694 581 686 q 598 713 600 701 q 585 732 596 725 q 563 729 574 738 q 556 708 553 721 m 301 288 q 384 293 342 293 q 467 286 426 293 q 468 290 468 285 q 467 297 468 294 q 440 448 457 374 q 401 597 424 522 q 345 444 369 522 q 301 288 321 367 z "},"b":{"ha":782,"x_min":25,"x_max":782,"o":"m 281 -8 q 195 -13 240 -14 q 115 11 150 -12 q 113 13 113 13 q 90 24 101 18 q 72 42 79 31 q 59 62 64 50 q 51 85 54 74 q 44 133 47 100 q 39 209 42 167 q 34 298 36 251 q 31 387 32 344 q 28 463 29 429 q 26 513 26 496 q 28 603 25 558 q 33 694 31 649 q 38 738 35 706 q 44 807 40 771 q 52 876 49 843 q 58 919 56 908 q 72 968 64 943 q 100 1008 81 993 q 133 1024 114 1021 q 169 1029 151 1026 q 278 1037 224 1036 q 388 1032 333 1038 q 481 1018 435 1028 q 568 986 528 1008 q 621 949 596 971 q 661 899 646 926 q 681 800 688 853 q 667 749 678 774 q 640 704 656 725 q 586 653 617 676 q 524 614 556 631 q 576 606 550 611 q 625 590 601 600 q 687 556 657 576 q 738 508 717 536 q 772 440 761 478 q 781 364 782 401 q 758 267 779 314 q 707 181 738 219 q 635 115 675 143 q 550 65 594 86 q 419 20 486 38 q 281 -8 351 3 m 533 921 q 549 907 543 917 q 567 897 556 897 q 586 912 582 897 q 579 936 590 926 q 560 951 569 943 q 540 965 551 958 q 460 993 501 985 q 446 993 453 994 q 432 993 439 992 q 416 990 422 994 q 408 979 410 986 q 408 965 406 972 q 418 953 410 957 q 435 952 425 950 q 453 951 444 954 q 467 949 460 950 q 482 944 475 947 q 492 941 485 944 q 508 933 500 938 q 524 926 517 929 q 533 921 531 922 m 604 893 q 590 884 594 890 q 585 870 585 878 q 592 857 586 863 q 608 851 597 851 q 624 858 619 851 q 628 874 629 865 q 620 888 626 882 q 604 893 614 894 m 338 881 q 320 791 324 836 q 317 700 317 746 q 381 720 349 707 q 435 758 413 733 q 451 789 447 772 q 449 821 454 806 q 433 849 444 836 q 404 869 421 863 q 372 878 389 876 q 338 881 354 881 m 288 701 l 288 699 l 288 693 q 290 695 290 690 q 289 703 289 700 l 288 701 m 310 447 q 305 312 300 381 q 325 176 310 243 q 387 191 351 181 q 456 217 422 201 q 516 253 489 232 q 551 299 543 274 q 549 370 561 331 q 508 431 536 410 q 469 451 490 444 q 424 460 447 457 q 367 458 396 463 q 310 447 338 454 z "},"c":{"ha":783,"x_min":6,"x_max":774,"o":"m 443 -17 q 311 -7 378 -22 q 189 44 244 8 q 115 109 149 71 q 63 192 82 147 q 32 292 42 240 q 18 397 22 344 q 33 690 6 543 q 68 813 46 753 q 131 919 90 872 q 185 967 154 947 q 247 1003 215 988 q 427 1039 331 1039 q 606 1001 524 1039 q 725 899 681 967 q 772 749 769 831 q 767 698 774 724 q 747 651 761 672 q 710 617 731 628 q 674 606 693 608 q 635 605 654 603 q 598 615 615 607 q 571 638 581 622 q 551 681 556 657 q 539 729 547 706 q 490 797 526 771 q 450 818 472 813 q 404 818 428 824 q 365 799 383 813 q 324 760 342 783 q 297 710 306 738 q 280 630 283 671 q 275 547 276 589 q 276 466 275 507 q 285 385 278 425 q 306 308 292 346 q 349 242 321 269 q 378 219 361 229 q 413 211 394 210 q 451 226 433 213 q 481 256 469 239 q 513 310 499 282 q 544 363 526 338 q 596 402 565 392 q 656 406 626 413 q 710 376 686 399 q 744 319 735 354 q 754 246 754 283 q 742 174 754 208 q 708 110 731 140 q 658 58 686 81 q 558 5 614 24 q 443 -17 501 -14 m 589 929 q 604 921 596 921 q 619 926 613 921 q 627 939 625 931 q 622 956 629 947 q 604 970 617 963 q 577 985 592 978 q 549 999 563 993 q 526 1006 535 1004 q 495 1010 518 1008 q 464 1011 472 1013 q 451 1002 456 1008 q 449 988 447 996 q 455 975 450 981 q 469 969 460 969 q 493 969 481 969 q 517 965 506 968 q 553 950 536 960 q 589 929 571 940 m 635 892 q 652 879 640 881 q 671 888 664 878 q 674 910 679 899 q 656 922 668 922 q 636 912 643 921 q 635 892 629 903 z "},"d":{"ha":815,"x_min":25,"x_max":814,"o":"m 318 -10 q 237 -18 278 -17 q 157 -8 196 -19 q 128 1 142 -4 q 101 17 114 7 q 88 26 94 22 q 75 38 82 31 q 51 85 58 54 q 44 133 47 100 q 39 209 42 167 q 34 298 36 251 q 31 387 32 344 q 28 463 29 429 q 26 513 26 496 q 28 603 25 558 q 33 694 31 649 q 38 738 35 706 q 44 807 40 771 q 52 876 49 843 q 58 919 56 908 q 67 955 61 938 q 83 988 72 972 q 114 1018 94 1007 q 140 1024 126 1024 q 168 1028 154 1025 q 252 1028 210 1032 q 335 1018 294 1025 q 401 1007 368 1014 q 465 992 433 1000 q 528 972 497 983 q 588 942 560 960 q 683 864 639 908 q 754 767 726 819 q 791 672 778 722 q 807 569 804 621 q 799 403 814 486 q 743 247 783 319 q 692 176 721 210 q 629 115 664 142 q 574 80 603 96 q 517 51 546 64 q 318 -10 419 7 m 544 890 q 561 885 553 883 q 574 892 569 886 q 579 907 579 899 q 571 922 579 915 q 556 933 568 925 q 540 943 543 940 q 513 953 531 947 q 476 965 496 960 q 439 972 457 969 q 411 971 421 974 q 397 962 401 968 q 394 948 393 956 q 399 935 394 940 q 414 929 404 929 q 442 928 428 929 q 469 924 456 928 q 509 910 489 917 q 544 890 529 903 m 599 885 q 592 860 586 874 q 613 846 597 846 q 627 852 621 846 q 633 867 633 858 q 622 887 633 881 q 599 885 610 893 m 283 208 q 360 209 321 204 q 432 231 399 214 q 510 290 475 251 q 572 402 551 338 q 590 532 592 467 q 576 628 590 581 q 532 714 561 675 q 461 776 506 751 q 388 801 428 796 q 308 799 347 806 q 304 777 307 793 q 297 743 301 761 q 290 709 293 725 q 286 688 288 693 q 272 448 269 568 q 283 208 274 328 z "},"e":{"ha":721,"x_min":26,"x_max":721,"o":"m 551 7 q 376 -2 464 0 q 201 1 289 -4 q 149 4 175 3 q 99 18 122 6 q 67 48 79 28 q 50 89 54 68 q 44 138 47 104 q 39 213 42 171 q 34 303 36 256 q 31 393 32 350 q 28 470 29 436 q 26 519 26 504 q 27 576 26 540 q 31 657 28 613 q 38 749 33 701 q 47 841 42 797 q 60 919 53 885 q 75 972 67 954 q 108 1014 86 1000 q 140 1024 124 1022 q 174 1028 157 1026 q 419 1025 297 1035 q 665 1004 542 1015 q 681 1001 674 1003 q 696 992 689 999 q 709 974 704 985 q 717 953 714 964 q 720 918 721 938 q 715 878 719 899 q 703 842 711 858 q 683 815 694 825 q 654 803 671 804 q 586 801 635 800 q 483 806 538 803 q 381 813 429 808 q 313 819 332 817 q 292 711 301 765 q 278 603 282 657 q 332 600 294 601 q 412 596 369 599 q 492 589 454 593 q 544 579 529 585 q 574 547 567 571 q 574 524 575 539 q 573 493 574 510 q 570 461 572 476 q 565 439 568 446 q 539 406 556 415 q 485 392 522 394 q 408 390 449 389 q 331 394 368 390 q 272 399 293 397 q 276 311 274 354 q 282 224 279 268 q 386 222 335 219 q 489 226 438 224 q 547 231 518 228 q 604 232 575 235 q 638 224 621 231 q 665 204 654 218 q 681 165 678 188 q 682 121 683 142 q 678 80 682 101 q 663 43 675 58 q 643 25 656 32 q 618 15 631 18 q 585 10 601 11 q 551 7 568 8 m 538 947 q 553 946 543 947 q 573 943 563 944 q 593 942 583 942 q 607 947 603 943 q 615 966 617 954 q 601 982 613 978 q 592 985 597 985 q 583 985 588 985 q 556 986 575 985 q 516 989 538 988 q 475 991 494 990 q 449 990 456 992 q 433 969 432 986 q 451 950 435 953 q 468 949 456 950 q 494 948 481 949 q 521 947 508 947 q 538 947 533 947 m 638 938 q 659 929 646 926 q 675 946 672 932 q 666 968 678 960 q 642 968 654 976 q 633 953 635 963 q 638 938 631 944 m 454 149 q 482 149 463 149 q 522 149 501 149 q 563 150 543 149 q 590 154 582 151 q 603 178 606 161 q 583 194 600 194 q 567 194 579 194 q 543 192 556 193 q 519 190 531 192 q 503 189 507 189 q 469 190 492 189 q 438 185 446 192 q 433 162 426 175 q 454 149 439 149 m 626 151 q 642 152 633 149 q 653 163 650 156 q 649 186 658 176 q 625 192 639 196 q 613 171 613 186 q 626 151 614 156 z "},"f":{"ha":758,"x_min":25,"x_max":764,"o":"m 263 31 q 203 3 239 8 q 135 6 167 -1 q 102 17 118 10 q 75 38 86 25 q 51 85 58 54 q 44 133 47 100 q 39 209 42 167 q 34 298 36 251 q 31 387 32 344 q 28 463 29 429 q 26 513 26 496 q 28 603 25 558 q 33 694 31 649 q 38 738 35 706 q 44 807 40 771 q 52 876 49 843 q 58 919 56 908 q 74 972 64 946 q 107 1014 83 999 q 141 1025 117 1021 q 193 1033 165 1029 q 246 1038 221 1036 q 283 1039 271 1039 q 453 1043 368 1042 q 622 1035 538 1044 q 670 1026 646 1032 q 715 1010 694 1021 q 757 967 744 994 q 764 931 764 950 q 763 894 764 913 q 756 859 760 876 q 743 826 753 842 q 701 794 728 800 q 660 790 682 788 q 617 796 638 793 q 311 811 461 824 q 292 719 301 765 q 279 625 283 672 q 415 631 347 629 q 550 625 483 633 q 586 616 568 622 q 615 594 604 610 q 630 558 626 579 q 631 517 633 536 q 624 478 629 497 q 604 444 618 458 q 562 427 590 432 q 501 422 533 422 q 438 425 469 422 q 389 429 407 428 q 331 431 360 431 q 272 431 301 432 q 272 409 272 425 q 273 375 272 393 q 274 341 274 357 q 275 319 275 325 q 283 217 278 268 q 288 115 289 167 q 283 69 286 93 q 263 31 279 46 m 618 967 q 636 963 628 960 q 649 974 644 967 q 651 990 653 981 q 639 1004 649 999 q 627 1008 635 1006 q 610 1011 619 1010 q 592 1013 600 1013 q 581 1014 585 1014 q 563 1015 575 1014 q 539 1015 551 1015 q 515 1015 526 1015 q 499 1013 503 1014 q 486 991 485 1006 q 503 974 488 976 q 514 972 506 972 q 531 973 522 972 q 549 974 540 974 q 561 974 558 974 q 583 972 572 972 q 604 968 593 971 q 612 968 607 968 q 618 967 617 968 m 675 981 q 664 968 665 976 q 665 953 663 960 q 676 942 668 946 q 693 943 683 939 q 704 956 703 947 q 703 971 706 964 q 692 981 700 978 q 675 981 685 985 z "},"g":{"ha":792,"x_min":11,"x_max":781,"o":"m 558 6 q 417 -20 492 -18 q 276 0 343 -22 q 199 36 236 14 q 133 89 163 58 q 76 167 99 124 q 40 258 54 211 q 15 413 18 333 q 18 571 11 492 q 45 741 25 656 q 114 896 65 826 q 208 981 150 947 q 333 1028 267 1014 q 469 1038 400 1043 q 596 1006 539 1032 q 699 932 653 981 q 745 866 726 903 q 771 789 764 829 q 764 681 781 735 q 739 640 756 657 q 701 613 722 622 q 655 603 679 604 q 607 613 631 603 q 563 653 578 622 q 549 696 553 674 q 536 739 546 718 q 510 780 526 761 q 474 810 494 799 q 423 820 449 822 q 374 806 397 818 q 333 772 351 793 q 304 726 315 751 q 284 652 289 690 q 276 575 279 614 q 278 460 275 517 q 294 347 281 403 q 308 306 300 326 q 329 267 317 286 q 360 231 342 247 q 403 211 379 214 q 442 219 422 208 q 474 244 461 229 q 510 313 499 274 q 518 392 521 353 q 497 388 511 390 q 469 383 483 385 q 440 380 454 381 q 421 382 426 379 q 401 395 410 386 q 389 415 393 404 q 378 456 381 435 q 382 497 375 478 q 401 531 386 518 q 427 544 413 540 q 457 549 442 547 q 503 547 481 550 q 547 540 525 543 q 581 539 556 539 q 634 538 606 539 q 688 536 663 538 q 721 533 713 535 q 747 515 738 529 q 760 482 756 501 q 767 442 765 463 q 769 404 769 421 q 766 290 772 347 q 739 179 760 232 q 710 122 726 150 q 669 72 693 94 q 617 33 646 49 q 558 6 589 17 m 589 931 q 605 922 596 922 q 620 926 614 922 q 628 939 626 931 q 624 956 631 947 q 605 971 618 963 q 577 986 592 979 q 548 999 563 993 q 525 1007 533 1004 q 513 1008 521 1007 q 496 1010 506 1010 q 478 1011 486 1011 q 467 1011 471 1011 q 453 1003 457 1010 q 449 989 449 996 q 456 976 450 982 q 471 969 461 969 q 499 966 482 969 q 533 958 515 963 q 567 946 551 953 q 589 931 582 939 m 651 879 q 678 891 671 876 q 668 918 686 906 q 651 919 660 924 q 640 907 643 915 q 638 890 636 899 q 651 879 640 881 z "},"h":{"ha":860,"x_min":24,"x_max":850,"o":"m 221 8 q 174 2 199 1 q 126 10 149 3 q 85 31 103 17 q 58 65 67 44 q 47 115 51 82 q 39 189 42 147 q 34 277 36 231 q 31 365 32 324 q 28 441 29 407 q 28 493 28 475 q 31 686 24 590 q 51 878 38 782 q 65 947 56 911 q 97 1006 74 982 q 137 1024 113 1021 q 185 1026 161 1028 q 231 1022 208 1025 q 276 1010 254 1018 q 304 994 292 1003 q 325 974 317 986 q 333 932 336 954 q 326 876 332 904 q 313 821 319 849 q 292 716 300 768 q 278 611 283 664 q 411 618 344 621 q 543 600 478 615 q 551 744 546 672 q 567 889 557 817 q 581 953 572 921 q 611 1008 589 985 q 653 1028 628 1025 q 700 1029 678 1031 q 752 1024 725 1028 q 801 1009 779 1019 q 836 981 822 999 q 849 939 850 964 q 842 891 849 926 q 826 815 835 856 q 810 740 818 775 q 801 692 803 704 q 788 517 789 604 q 789 342 786 429 q 793 281 789 322 q 800 194 797 239 q 801 110 803 150 q 792 51 800 69 q 772 28 785 36 q 743 13 758 19 q 700 4 724 6 q 654 7 676 3 q 613 22 632 11 q 582 50 593 33 q 563 114 569 69 q 552 208 556 158 q 548 303 549 257 q 547 372 547 349 q 413 398 485 400 q 274 379 340 396 q 278 310 274 357 q 285 212 282 263 q 288 115 289 161 q 278 50 288 69 q 254 23 271 33 q 221 8 238 13 m 254 863 q 253 847 251 854 q 260 836 256 840 q 272 831 265 832 q 286 836 279 831 q 297 853 293 842 q 301 877 300 864 q 303 903 303 890 q 301 925 303 917 q 292 956 299 940 q 275 983 286 972 q 248 999 264 994 q 221 993 232 1004 q 219 970 211 982 q 242 958 226 958 q 261 914 258 942 q 254 863 264 886 m 250 767 q 271 769 261 763 q 279 789 281 776 q 265 808 278 803 q 243 801 253 813 q 238 783 236 793 q 250 767 239 772 z "},"i":{"ha":344,"x_min":25,"x_max":335,"o":"m 222 8 q 164 1 194 0 q 107 15 133 3 q 75 38 89 24 q 56 71 61 53 q 47 113 49 92 q 42 156 44 135 q 34 276 36 217 q 32 396 32 336 q 31 415 32 400 q 30 444 31 429 q 28 474 29 460 q 28 493 28 489 q 28 604 25 549 q 35 715 31 660 q 42 802 39 760 q 53 888 46 844 q 60 929 56 908 q 74 969 65 950 q 89 996 81 983 q 111 1015 97 1008 q 150 1026 129 1025 q 190 1025 171 1026 q 241 1019 215 1024 q 288 1003 267 1014 q 322 977 308 993 q 333 936 335 961 q 326 881 332 908 q 313 825 319 853 q 276 596 285 710 q 272 475 272 535 q 274 354 272 415 q 281 240 275 296 q 289 125 288 183 q 288 85 289 106 q 276 49 286 65 q 253 24 269 33 q 222 8 238 14 m 254 863 q 253 845 250 853 q 264 834 257 838 q 279 832 271 831 q 292 843 288 833 q 297 865 296 854 q 301 886 299 875 q 290 964 308 926 q 266 991 283 979 q 232 999 249 1003 q 219 990 222 996 q 217 976 215 983 q 224 963 218 968 q 240 958 231 958 q 244 956 242 958 q 247 953 246 954 q 260 928 257 943 q 261 901 263 914 q 259 881 261 896 q 254 863 257 867 m 244 769 q 265 767 254 763 q 278 782 275 771 q 271 804 281 796 q 249 806 261 813 q 236 788 238 800 q 244 769 235 776 z "},"j":{"ha":728,"x_min":3,"x_max":708,"o":"m 332 -17 q 225 -7 279 -17 q 126 31 171 3 q 65 87 92 53 q 25 158 39 121 q 9 224 15 185 q 3 306 3 264 q 10 386 3 349 q 33 446 17 424 q 56 466 42 458 q 85 476 69 474 q 129 480 107 481 q 174 476 151 479 q 215 463 196 474 q 248 438 235 453 q 265 403 261 422 q 261 363 269 383 q 253 290 247 331 q 288 231 260 250 q 343 223 313 213 q 393 258 374 233 q 417 306 408 281 q 429 360 425 332 q 445 617 446 488 q 417 872 444 746 q 406 909 413 892 q 401 946 400 926 q 425 997 401 976 q 456 1019 439 1011 q 492 1031 472 1026 q 539 1038 513 1035 q 592 1038 565 1040 q 639 1026 618 1036 q 671 999 660 1017 q 688 946 685 974 q 693 890 692 918 l 697 819 q 706 669 704 744 q 706 519 708 594 q 696 390 703 454 q 672 261 689 325 q 647 185 661 222 q 610 115 632 149 q 507 21 571 53 q 422 -7 467 1 q 332 -17 376 -15 m 568 975 q 585 974 578 971 q 596 985 593 978 q 597 1000 599 992 q 586 1013 596 1008 q 545 1020 572 1019 q 504 1014 518 1021 q 493 1002 496 1010 q 492 988 490 994 q 501 976 494 981 q 517 974 507 971 q 543 977 525 976 q 568 975 561 978 m 613 965 q 622 948 613 954 q 643 946 632 942 q 654 965 654 953 q 643 985 654 978 q 622 983 632 989 q 613 965 613 976 z "},"k":{"ha":758,"x_min":25,"x_max":751,"o":"m 682 3 q 645 -8 665 -6 q 604 -9 625 -11 q 565 1 583 -7 q 535 22 546 8 q 517 52 524 36 q 504 85 510 68 q 482 149 493 117 q 454 213 471 182 q 421 263 442 235 q 376 315 400 290 q 325 356 351 339 q 274 371 299 372 q 281 248 275 308 q 289 125 288 188 q 288 85 289 106 q 276 49 286 65 q 253 24 269 33 q 222 8 238 14 q 164 1 194 0 q 107 15 133 3 q 75 38 89 24 q 56 71 61 53 q 47 113 49 92 q 42 156 44 135 q 34 276 36 217 q 32 396 32 336 q 31 415 32 400 q 30 444 31 429 q 28 474 29 460 q 28 493 28 489 q 28 604 25 549 q 35 715 31 660 q 42 802 39 760 q 53 888 46 844 q 60 929 56 908 q 74 969 65 950 q 89 996 81 983 q 111 1015 97 1008 q 150 1026 129 1025 q 190 1025 171 1026 q 241 1019 215 1024 q 288 1003 267 1014 q 322 977 308 993 q 333 936 335 961 q 326 881 332 908 q 313 825 319 853 q 279 631 290 729 q 301 638 290 635 q 322 649 313 642 q 435 748 388 686 q 510 879 482 810 q 525 917 518 899 q 543 953 532 935 q 578 987 557 975 q 624 999 600 999 q 672 989 649 999 q 714 958 696 979 q 742 911 732 939 q 750 856 751 883 q 738 794 749 824 q 708 739 726 764 q 662 679 688 707 q 608 626 636 651 q 475 528 546 568 q 552 474 517 506 q 617 407 588 443 q 685 303 656 358 q 729 188 714 247 q 735 94 739 143 q 728 63 732 79 q 715 33 724 47 q 682 3 704 14 m 254 863 q 253 845 250 853 q 264 834 257 838 q 279 832 271 831 q 292 843 288 833 q 297 865 296 854 q 301 886 299 875 q 290 964 308 926 q 266 991 283 979 q 232 999 249 1003 q 219 990 222 996 q 217 976 215 983 q 224 963 218 968 q 240 958 231 958 q 244 956 242 958 q 247 953 246 954 q 260 928 257 943 q 261 901 263 914 q 259 881 261 896 q 254 863 257 867 m 244 769 q 265 767 254 763 q 278 782 275 771 q 271 804 281 796 q 249 806 261 813 q 236 788 238 800 q 244 769 235 776 z "},"l":{"ha":615,"x_min":24,"x_max":625,"o":"m 421 -15 q 274 -15 349 -17 q 219 -11 246 -14 q 165 -1 192 -8 q 126 8 146 3 q 90 25 107 14 q 57 65 67 42 q 46 113 50 81 q 38 187 42 146 q 33 274 35 228 q 31 361 32 319 q 28 436 29 403 q 28 488 28 469 q 31 669 24 579 q 49 850 38 758 q 56 910 51 879 q 72 968 61 940 q 96 1006 81 988 q 136 1024 111 1021 q 183 1026 161 1028 q 231 1022 207 1025 q 276 1010 254 1018 q 303 994 290 1003 q 324 974 317 986 q 332 953 331 964 q 333 932 333 943 q 325 877 331 904 q 313 822 319 850 q 294 730 301 776 q 281 635 286 683 q 272 406 267 521 q 286 175 278 290 q 358 177 322 175 q 431 182 394 179 q 479 186 454 185 q 528 188 504 188 q 553 186 540 188 q 578 181 567 185 q 617 134 608 169 q 618 67 625 99 q 607 40 615 53 q 586 18 599 26 q 563 7 575 11 q 540 0 551 3 q 481 -10 511 -7 q 421 -15 451 -12 m 254 863 q 258 838 247 849 q 282 833 268 826 q 292 843 289 836 q 296 857 294 850 q 302 911 303 883 q 290 963 301 939 q 268 990 283 978 q 236 1000 253 1001 q 220 992 225 999 q 216 978 215 986 q 222 965 217 971 q 239 958 228 958 q 250 950 246 958 q 257 935 254 942 q 254 863 268 896 m 249 767 q 269 769 260 763 q 279 789 279 776 q 265 808 278 803 q 242 801 251 813 q 237 783 235 793 q 249 767 239 772 z "},"m":{"ha":1113,"x_min":26,"x_max":1101,"o":"m 992 7 q 940 -2 967 -1 q 889 6 913 -3 q 847 31 865 14 q 821 74 829 47 q 811 138 815 92 q 804 237 807 185 q 799 335 801 289 q 797 400 797 381 q 758 300 778 350 q 721 199 738 250 q 694 133 710 165 q 654 76 679 101 q 615 51 639 61 q 564 38 590 42 q 512 38 538 35 q 467 53 486 42 q 436 78 449 63 q 419 117 428 89 q 403 176 411 144 q 390 235 396 207 q 381 276 383 264 q 334 485 357 381 q 288 693 311 589 q 272 520 274 607 q 274 346 271 433 q 278 283 274 325 q 285 196 282 242 q 287 109 288 150 q 276 50 286 68 q 253 25 269 35 q 219 10 236 15 q 175 4 199 4 q 129 10 151 4 q 88 28 107 17 q 60 60 69 40 q 47 112 49 85 q 42 167 44 139 q 32 340 35 254 q 26 513 29 425 q 27 568 26 532 q 31 648 28 604 q 38 740 33 692 q 47 833 42 789 q 58 912 51 876 q 71 965 64 947 q 83 990 76 978 q 101 1011 90 1003 q 147 1028 118 1025 q 208 1027 175 1031 q 271 1016 240 1024 q 322 1003 301 1008 q 363 985 343 996 q 399 958 383 974 q 428 914 417 939 q 447 863 439 889 q 480 743 465 803 q 508 622 494 683 q 522 563 513 607 q 541 467 531 518 q 560 370 551 415 q 572 310 569 325 q 602 387 589 349 q 628 465 615 425 q 671 599 650 532 q 711 733 692 667 q 728 790 717 751 q 755 868 740 828 q 785 944 769 908 q 815 993 800 979 q 858 1011 832 1007 q 951 1023 903 1022 q 1042 1008 999 1024 q 1068 994 1056 1003 q 1089 975 1081 986 q 1099 956 1096 967 q 1101 933 1101 944 q 1095 889 1101 921 q 1081 821 1089 857 q 1067 753 1074 785 q 1058 708 1060 721 q 1040 527 1040 618 q 1042 344 1039 436 q 1046 281 1042 324 q 1053 193 1050 239 q 1055 106 1056 147 q 1044 46 1054 64 q 1022 21 1038 31 q 992 7 1007 11 m 344 901 q 368 894 354 890 q 382 914 382 899 q 367 938 382 925 q 340 957 351 950 q 261 986 304 979 q 245 990 253 988 q 229 992 238 993 q 213 971 213 988 q 229 950 213 954 q 272 941 250 946 q 313 925 293 936 q 329 914 321 919 q 344 901 338 908 m 388 869 q 378 856 378 865 q 385 840 379 847 q 398 831 390 833 q 413 838 406 829 q 417 865 426 853 q 388 869 407 878 z "},"n":{"ha":951,"x_min":25,"x_max":943,"o":"m 885 44 q 862 19 878 29 q 826 3 846 8 q 786 -2 807 -1 q 749 0 765 -3 l 729 0 q 654 23 690 6 q 589 67 618 40 q 531 136 556 97 q 486 215 506 175 q 403 399 442 304 q 387 434 399 407 q 363 492 375 461 q 338 551 350 524 q 322 586 326 578 q 282 653 304 625 q 272 498 274 575 q 274 343 271 421 q 283 229 276 285 q 288 115 289 174 q 283 69 286 93 q 263 31 279 46 q 203 3 239 8 q 135 6 167 -1 q 102 17 118 10 q 75 38 86 25 q 51 85 58 54 q 44 133 47 100 q 39 209 42 167 q 34 298 36 251 q 31 387 32 344 q 28 463 29 429 q 26 513 26 496 q 28 603 25 558 q 33 694 31 649 q 38 738 35 706 q 44 807 40 771 q 52 876 49 843 q 58 919 56 908 q 73 969 64 943 q 101 1010 82 994 q 135 1023 114 1019 q 180 1026 156 1026 q 227 1022 204 1026 q 265 1014 250 1018 l 267 1013 q 288 1008 278 1013 q 307 997 297 1003 q 363 953 339 981 q 406 894 386 926 q 471 763 443 831 q 524 625 499 694 q 577 486 550 556 q 639 353 604 417 q 638 382 639 360 q 637 429 638 404 q 635 476 636 454 q 633 506 633 499 q 637 641 632 574 q 649 776 642 708 q 651 803 649 783 q 656 846 653 824 q 661 888 658 868 q 665 914 664 907 q 678 960 669 938 q 703 1000 686 982 q 735 1017 714 1013 q 779 1022 756 1022 q 826 1019 803 1022 q 865 1011 849 1015 q 898 998 882 1006 q 925 978 914 990 q 940 925 943 956 q 932 879 939 914 q 917 806 925 844 q 903 733 910 768 q 894 688 896 699 q 881 534 883 611 q 879 381 878 457 q 881 339 881 360 q 883 297 881 318 q 888 244 885 279 q 893 169 892 208 q 893 96 894 131 q 885 44 892 61 m 358 840 q 372 829 363 831 q 388 832 381 828 q 398 844 394 836 q 396 860 401 851 q 368 901 383 881 q 333 936 353 921 q 290 965 314 954 q 240 982 265 975 q 220 978 228 985 q 210 964 213 972 q 214 948 208 956 q 232 940 219 940 q 259 934 246 940 q 285 921 272 928 q 304 907 293 917 q 326 885 315 897 q 345 860 336 872 q 358 840 354 849 m 413 807 q 396 806 403 811 q 387 792 389 800 q 388 775 385 783 q 403 767 392 767 q 428 782 425 767 q 413 807 432 797 z "},"o":{"ha":806,"x_min":3,"x_max":801,"o":"m 476 -8 q 233 24 349 -44 q 156 84 190 49 q 96 161 122 119 q 39 288 60 219 q 13 425 18 356 q 29 644 3 533 q 118 843 56 754 q 188 922 149 886 q 274 982 226 958 q 359 1010 314 1001 q 449 1015 404 1019 q 574 972 517 1007 q 655 906 618 946 q 718 822 692 867 q 782 653 763 744 q 794 474 801 563 q 768 322 789 397 q 707 182 747 247 q 607 65 667 117 q 476 -8 547 13 m 574 875 q 588 867 579 868 q 602 871 596 867 q 610 882 608 875 q 608 897 613 889 q 597 913 606 903 q 578 931 589 922 q 558 948 568 940 q 543 958 549 956 q 525 966 536 961 q 501 974 514 971 q 478 980 489 978 q 460 981 467 982 q 443 963 444 978 q 456 942 442 949 q 469 939 458 940 q 482 938 479 938 q 525 921 503 932 q 551 901 540 913 q 574 875 563 889 m 624 857 q 610 847 613 854 q 611 831 608 839 q 621 818 614 822 q 638 818 628 814 q 650 830 647 822 q 651 844 653 838 q 641 856 649 851 q 624 857 633 860 m 261 379 q 278 326 267 354 q 307 275 290 299 q 346 236 324 251 q 393 221 368 221 q 449 242 424 221 q 492 289 474 258 q 523 355 511 321 q 542 425 535 389 q 546 558 553 490 q 510 685 539 626 q 476 735 497 711 q 428 768 456 758 q 382 769 404 776 q 340 747 360 763 q 306 708 321 731 q 281 661 290 685 q 249 522 253 594 q 261 379 244 449 z "},"p":{"ha":756,"x_min":25,"x_max":756,"o":"m 263 31 q 203 3 239 8 q 135 6 167 -1 q 102 17 118 10 q 75 38 86 25 q 51 85 58 54 q 44 133 47 100 q 39 209 42 167 q 34 298 36 251 q 31 387 32 344 q 28 463 29 429 q 26 513 26 496 q 28 603 25 558 q 33 694 31 649 q 38 738 35 706 q 44 807 40 771 q 52 876 49 843 q 58 919 56 908 q 72 968 64 943 q 100 1008 81 993 q 136 1024 115 1022 q 176 1026 157 1026 q 198 1027 181 1026 q 219 1028 215 1028 q 368 1028 294 1031 q 515 1011 442 1026 q 610 977 564 1001 q 689 914 657 953 q 737 830 721 878 q 756 733 753 782 q 751 681 756 707 q 736 631 747 654 q 702 572 724 599 q 656 522 681 546 q 590 474 625 494 q 517 439 554 454 q 447 411 482 424 q 376 392 413 399 q 324 382 350 386 q 272 374 299 378 q 282 244 275 308 q 288 115 289 181 q 283 69 286 93 q 263 31 279 46 m 585 910 q 613 912 600 899 q 614 940 625 925 q 605 949 611 943 q 591 960 599 954 q 576 970 583 965 q 565 976 569 975 q 450 1004 513 1004 q 437 1004 447 1004 q 424 1001 426 1004 q 414 991 417 997 q 413 978 411 985 q 419 967 414 972 q 433 963 425 963 q 458 963 446 963 q 483 961 471 963 q 499 958 489 961 q 521 950 510 954 q 542 941 532 946 q 557 933 553 936 q 571 922 564 928 q 585 910 578 915 m 611 874 q 630 865 618 864 q 647 878 642 867 q 644 899 653 889 q 624 907 636 910 q 608 893 613 904 q 611 874 604 882 m 288 696 q 280 635 282 665 q 275 576 278 606 q 372 591 324 583 q 465 621 421 599 q 502 648 486 631 q 525 686 518 665 q 531 728 532 707 q 517 771 529 750 q 486 799 506 789 q 447 815 467 810 q 381 826 415 825 q 314 825 347 828 q 309 801 313 819 q 301 760 306 782 q 292 720 296 739 q 288 696 289 701 z "},"q":{"ha":808,"x_min":3,"x_max":797,"o":"m 790 -19 q 773 -79 790 -53 q 730 -119 756 -106 q 674 -133 704 -133 q 614 -115 643 -133 q 557 -62 581 -94 q 515 7 533 -29 q 438 -17 479 -10 q 357 -18 397 -24 q 219 32 285 -12 q 151 89 182 56 q 96 161 119 122 q 39 288 60 219 q 13 425 18 356 q 29 644 3 533 q 118 843 56 754 q 188 922 149 886 q 274 982 226 958 q 359 1010 314 1001 q 449 1015 404 1019 q 535 992 493 1010 q 613 946 576 974 q 713 831 672 899 q 774 688 754 763 q 797 515 796 604 q 774 342 797 425 q 731 225 758 282 q 664 121 704 168 q 728 69 693 94 q 751 51 739 60 q 772 32 763 43 q 790 -19 790 10 m 574 875 q 588 867 579 868 q 602 871 596 867 q 610 882 608 875 q 608 897 613 889 q 597 913 606 903 q 578 931 589 922 q 558 948 568 940 q 543 958 549 956 q 525 966 536 961 q 501 974 514 971 q 478 980 489 978 q 460 981 467 982 q 443 963 444 978 q 456 942 442 949 q 469 939 458 940 q 482 938 479 938 q 525 921 503 932 q 551 901 540 913 q 574 875 563 889 m 624 857 q 610 847 613 854 q 611 831 608 839 q 621 818 614 822 q 638 818 628 814 q 650 830 647 822 q 651 844 653 838 q 641 856 649 851 q 624 857 633 860 m 261 379 q 283 316 269 347 q 317 261 297 285 q 362 226 336 238 q 418 225 388 215 q 401 288 404 254 q 413 328 401 311 q 442 351 425 344 q 479 351 460 357 q 513 326 499 346 q 549 490 546 401 q 522 656 551 578 q 487 724 510 690 q 428 768 464 757 q 382 769 404 776 q 340 747 360 763 q 306 708 321 731 q 281 661 290 685 q 249 522 253 594 q 261 379 244 449 z "},"r":{"ha":767,"x_min":25,"x_max":756,"o":"m 644 -14 q 589 -10 617 -17 q 539 11 561 -4 q 516 38 525 22 q 501 69 507 53 q 490 126 494 97 q 476 183 485 156 q 449 238 467 213 q 408 286 431 264 q 346 334 381 313 q 274 363 311 356 q 282 239 275 300 q 288 115 289 178 q 283 69 286 93 q 263 31 279 46 q 203 3 239 8 q 135 6 167 -1 q 102 17 118 10 q 75 38 86 25 q 51 85 58 54 q 44 133 47 100 q 39 209 42 167 q 34 298 36 251 q 31 387 32 344 q 28 463 29 429 q 26 513 26 496 q 28 603 25 558 q 33 694 31 649 q 38 738 35 706 q 44 807 40 771 q 52 876 49 843 q 58 919 56 908 q 72 968 64 943 q 100 1008 81 993 q 136 1024 115 1022 q 176 1026 157 1026 q 198 1027 181 1026 q 219 1028 215 1028 q 368 1028 294 1031 q 515 1011 442 1026 q 610 977 564 1001 q 689 914 657 953 q 737 830 721 878 q 756 733 753 782 q 751 681 756 707 q 736 631 747 654 q 702 572 724 599 q 656 522 681 546 q 588 474 624 494 q 513 436 551 453 q 595 383 556 413 q 664 315 635 354 q 703 249 688 285 q 725 178 718 214 q 731 110 731 144 q 719 44 731 76 q 644 -14 700 -10 m 585 910 q 613 912 600 899 q 614 940 625 925 q 605 949 611 943 q 591 960 599 954 q 576 970 583 965 q 565 976 569 975 q 450 1004 513 1004 q 437 1004 447 1004 q 424 1001 426 1004 q 414 991 417 997 q 413 978 411 985 q 419 967 414 972 q 433 963 425 963 q 458 963 446 963 q 483 961 471 963 q 499 958 489 961 q 521 950 510 954 q 542 941 532 946 q 557 933 553 936 q 571 922 564 928 q 585 910 578 915 m 611 874 q 630 865 618 864 q 647 878 642 867 q 644 899 653 889 q 624 907 636 910 q 608 893 613 904 q 611 874 604 882 m 288 696 q 280 635 282 665 q 275 576 278 606 q 372 591 324 583 q 465 621 421 599 q 502 648 486 631 q 525 686 518 665 q 531 728 532 707 q 517 771 529 750 q 486 799 506 789 q 447 815 467 810 q 381 826 415 825 q 314 825 347 828 q 309 801 313 819 q 301 760 306 782 q 292 720 296 739 q 288 696 289 701 z "},"s":{"ha":697,"x_min":13,"x_max":692,"o":"m 464 6 q 356 -12 411 -10 q 244 -10 300 -14 q 161 -1 203 -7 q 81 19 119 4 q 39 46 54 29 q 19 85 25 61 q 13 133 13 108 q 19 183 13 158 q 38 226 26 208 q 61 247 47 242 q 88 256 74 254 q 115 258 101 258 q 199 246 158 257 q 281 224 240 235 q 338 214 308 217 q 394 219 367 211 q 449 260 429 231 q 454 324 468 289 q 433 354 447 340 q 403 378 418 368 q 353 399 379 392 q 304 417 328 407 q 222 451 263 432 q 142 493 181 469 q 86 535 113 511 q 44 589 60 558 q 19 660 26 622 q 15 735 13 697 q 31 810 18 774 q 65 876 43 846 q 104 918 82 900 q 151 951 126 936 q 221 982 183 971 q 296 999 258 993 q 411 1003 354 1006 q 525 992 468 1001 q 576 982 551 988 q 626 967 601 976 q 641 960 633 964 q 656 949 649 956 q 678 911 671 933 q 686 863 686 889 q 680 813 686 838 q 663 769 674 788 q 636 743 654 751 q 606 735 622 736 q 575 733 590 733 q 490 748 532 736 q 406 771 449 760 q 354 777 381 776 q 303 771 328 778 q 274 756 288 765 q 251 735 261 747 q 239 690 239 715 q 256 649 239 664 q 304 620 276 629 q 360 603 332 611 q 498 542 432 581 q 617 451 564 504 q 647 415 635 435 q 667 372 658 394 q 679 222 692 300 q 658 158 672 189 q 621 100 643 126 q 549 41 590 64 q 464 6 508 18 m 560 922 q 582 931 574 919 q 583 953 590 942 q 574 962 581 960 q 561 967 568 964 q 542 972 554 968 q 515 978 529 975 q 488 981 501 981 q 468 981 475 982 q 454 958 453 974 q 471 940 456 943 q 482 939 476 939 q 493 939 488 939 q 526 931 510 936 q 560 922 543 926 m 604 913 q 611 892 600 900 q 633 890 622 885 q 644 908 644 896 q 633 928 643 921 q 616 928 625 935 q 604 913 607 922 z "},"t":{"ha":664,"x_min":-6,"x_max":669,"o":"m 390 38 q 366 10 382 21 q 330 -6 350 0 q 288 -11 310 -11 q 249 -7 267 -11 q 218 3 233 -4 q 192 21 203 10 q 168 57 175 36 q 158 106 163 72 q 151 180 154 139 q 145 267 147 221 q 142 354 143 313 q 140 430 142 396 q 139 481 139 464 q 142 635 136 558 q 156 788 147 711 q 114 783 135 785 q 74 783 93 781 q 36 797 54 786 q 8 826 18 808 q -3 862 0 842 q -3 903 -6 882 q 6 942 -1 924 q 24 972 13 960 q 66 999 42 990 q 115 1013 90 1007 q 190 1023 151 1021 q 265 1026 228 1025 q 324 1028 281 1028 q 416 1028 367 1028 q 508 1026 465 1028 q 567 1024 551 1025 q 594 1019 581 1021 q 619 1011 608 1018 q 657 972 643 999 q 667 938 664 958 q 668 897 669 918 q 662 856 667 875 q 649 824 657 836 q 613 801 636 807 q 569 793 590 794 q 542 794 563 793 q 497 798 521 796 q 453 802 474 800 q 425 804 432 804 q 410 732 418 768 q 397 660 401 696 q 385 495 386 576 q 386 331 383 414 q 390 269 386 311 q 397 182 394 228 q 399 96 400 136 q 390 38 399 56 m 563 951 q 579 951 572 947 q 590 961 586 954 q 591 976 593 968 q 579 989 589 985 q 563 994 572 993 q 546 997 554 994 q 513 1003 531 1003 q 478 1003 494 1003 q 461 997 467 1003 q 456 982 456 990 q 461 967 456 974 q 478 961 467 961 q 507 961 493 961 q 536 957 521 961 q 549 954 539 956 q 563 951 560 953 m 607 957 q 598 944 597 953 q 604 928 599 935 q 617 918 610 921 q 632 924 625 915 q 636 953 646 940 q 607 957 626 965 z "},"u":{"ha":822,"x_min":17,"x_max":801,"o":"m 599 29 q 504 4 554 11 q 404 0 454 -3 q 288 13 346 3 q 179 53 229 22 q 131 90 153 68 q 93 139 110 113 q 65 196 75 165 q 49 258 56 226 l 47 263 q 31 337 36 299 q 24 413 26 375 q 22 619 17 517 q 39 826 28 722 q 44 876 42 851 q 54 925 47 901 q 65 958 58 942 q 82 986 71 974 q 126 1015 99 1007 q 178 1022 151 1022 q 232 1018 206 1021 q 283 1006 258 1017 q 317 965 308 992 q 326 906 328 938 q 322 846 325 875 q 295 638 308 742 q 282 429 282 535 q 284 366 282 397 q 299 306 286 335 q 319 270 306 286 q 350 247 332 254 q 388 239 368 239 q 426 236 407 239 q 472 245 449 233 q 508 276 494 257 q 528 317 522 294 q 538 361 535 339 q 540 450 542 406 q 535 539 538 494 q 514 739 526 639 q 506 799 511 769 q 499 861 501 829 q 497 913 496 886 q 504 963 497 939 q 539 1004 514 990 q 577 1015 553 1011 q 627 1020 601 1019 q 676 1017 653 1021 q 715 1007 700 1014 q 741 983 731 999 q 758 953 751 968 q 776 890 771 922 q 783 825 781 857 q 797 665 792 744 q 801 504 801 585 q 796 382 800 443 q 775 263 792 321 q 774 257 774 261 q 756 192 767 224 q 725 132 744 160 q 669 72 701 99 q 599 29 638 44 m 249 846 q 251 830 246 836 q 265 822 257 824 q 280 823 272 819 q 290 838 288 826 q 294 882 296 860 q 288 928 292 904 q 272 972 283 946 q 242 1001 260 997 q 217 990 225 1004 q 222 964 210 975 q 239 941 232 956 q 249 910 246 926 q 251 876 251 893 q 249 846 251 858 m 251 753 q 281 757 271 744 q 278 785 290 769 q 263 791 271 793 q 248 782 254 789 q 242 766 242 775 q 251 753 242 757 z "},"v":{"ha":896,"x_min":0,"x_max":896,"o":"m 524 -7 q 470 -18 501 -15 q 407 -19 439 -21 q 346 -8 375 -17 q 300 17 317 1 q 260 70 276 40 q 229 129 244 100 q 175 251 200 190 q 126 375 150 313 q 83 513 101 443 q 47 653 65 582 q 29 721 40 678 q 10 810 18 764 q 1 897 1 856 q 14 961 0 939 q 40 984 24 976 q 71 999 56 992 q 117 1011 92 1006 q 168 1017 143 1017 q 215 1010 193 1017 q 249 985 236 1003 q 268 933 258 969 q 286 854 278 896 q 301 774 294 813 q 311 718 307 736 q 336 591 322 654 q 367 464 350 528 q 400 349 382 406 q 450 242 418 293 q 508 344 486 289 q 546 457 531 399 q 572 572 561 514 q 592 689 583 631 q 610 806 601 747 q 632 922 619 864 q 644 961 636 942 q 668 993 653 981 q 719 1013 689 1010 q 776 1014 749 1017 q 830 1004 803 1011 q 875 978 857 997 q 892 931 889 961 q 892 865 896 900 q 883 795 889 829 q 872 740 876 761 q 797 439 844 588 q 674 153 749 290 q 641 97 658 125 q 601 46 624 69 q 565 15 585 29 q 524 -7 546 1 m 224 833 q 234 819 226 822 q 249 817 242 815 q 262 826 257 819 q 265 843 267 832 q 255 882 260 863 q 243 921 250 901 q 233 947 239 935 q 219 971 228 960 q 192 975 207 985 q 183 949 176 965 q 189 941 186 944 q 194 933 192 938 q 211 884 206 910 q 224 833 217 858 m 238 776 q 243 756 235 765 q 263 750 251 747 q 276 762 272 753 q 276 781 281 771 q 255 792 269 793 q 238 776 240 792 z "},"w":{"ha":1181,"x_min":8,"x_max":1172,"o":"m 417 4 q 318 -16 372 -17 q 219 7 264 -15 q 183 36 199 18 q 154 75 167 54 q 119 151 132 111 q 94 232 106 192 q 65 378 75 304 q 47 526 54 451 q 31 717 38 622 q 13 908 24 813 q 9 938 10 922 q 15 965 8 953 q 42 993 24 982 q 82 1010 60 1004 q 128 1019 104 1017 q 169 1019 151 1021 q 222 1008 196 1017 q 268 979 249 999 q 287 948 282 967 q 294 911 292 929 q 299 860 296 896 q 306 777 303 824 q 313 678 310 731 q 319 580 317 626 q 325 497 322 533 q 329 447 328 461 q 335 380 332 414 q 353 315 339 346 q 365 297 356 308 q 381 283 374 286 q 394 287 388 282 q 404 297 401 292 q 421 329 415 313 q 431 363 426 346 q 442 415 438 389 q 451 468 447 442 q 457 506 453 479 q 466 567 461 533 q 477 639 471 601 q 489 710 483 676 q 499 772 494 744 q 507 810 504 799 q 514 831 510 821 q 525 851 518 842 q 542 864 532 860 q 563 869 551 868 q 574 871 565 871 q 585 871 582 871 q 617 873 600 875 q 649 861 635 871 q 667 833 660 853 q 680 790 675 814 q 688 744 685 767 q 693 707 690 721 q 698 675 694 697 q 706 624 701 653 q 715 561 710 594 q 725 499 721 528 q 733 447 729 469 q 739 415 738 424 q 749 367 743 392 q 765 319 756 343 q 778 298 769 310 q 796 286 786 286 q 815 297 807 285 q 829 319 824 308 q 839 351 836 335 q 844 383 842 368 q 851 444 847 401 q 858 541 854 486 q 865 658 861 596 q 874 774 869 719 q 882 872 878 829 q 889 932 886 914 q 897 959 892 946 q 914 982 903 972 q 951 1006 929 997 q 994 1019 972 1015 q 1038 1022 1013 1022 q 1087 1015 1063 1021 q 1132 999 1111 1010 q 1163 972 1153 989 q 1171 948 1169 961 q 1171 922 1172 935 q 1148 688 1156 804 q 1125 456 1140 572 q 1106 319 1118 386 q 1074 186 1093 253 q 1042 105 1060 146 q 993 33 1025 64 q 958 9 978 18 q 919 -6 939 0 q 842 -13 882 -15 q 767 6 801 -11 q 707 63 735 19 q 656 158 679 106 q 616 262 633 210 q 590 347 599 314 q 565 259 579 303 q 533 172 551 215 q 503 106 519 139 q 464 44 486 74 q 442 22 453 33 q 417 4 431 11 m 233 782 q 245 772 238 774 q 260 772 253 769 q 271 781 267 775 q 274 796 275 788 q 272 808 274 799 q 270 828 271 818 q 268 849 269 839 q 267 863 267 858 q 259 911 264 886 q 243 958 254 936 q 236 971 240 965 q 225 979 232 976 q 210 981 217 983 q 199 972 203 978 q 195 959 194 967 q 203 946 196 951 q 210 931 207 943 q 214 913 213 918 q 226 856 222 885 q 232 799 229 826 q 233 782 232 788 m 247 711 q 263 706 254 706 q 278 714 272 707 q 280 739 288 726 q 257 749 272 751 q 240 733 243 746 q 247 711 236 719 z "},"x":{"ha":819,"x_min":-1,"x_max":825,"o":"m 610 -36 q 560 -28 583 -39 q 518 6 535 -15 q 485 53 507 18 q 438 129 463 89 q 391 206 413 169 q 361 256 369 242 q 316 178 338 217 q 271 100 294 139 q 241 56 256 78 q 208 13 226 33 q 194 -3 201 4 q 175 -15 186 -11 q 131 -22 154 -24 q 87 -11 108 -21 q 47 14 65 -1 q 17 49 28 29 q 0 99 3 71 q 3 131 -1 115 q 14 161 7 146 q 35 201 19 174 q 71 263 50 228 q 115 335 92 297 q 158 406 138 372 q 196 465 179 439 q 221 504 213 492 q 165 622 192 563 q 114 743 139 682 q 94 791 106 763 q 75 850 83 819 q 65 908 67 881 q 76 951 64 935 q 103 976 88 967 q 133 993 118 986 q 167 1008 150 1001 q 204 1018 185 1015 q 238 1022 221 1021 q 271 1015 256 1022 q 310 982 296 1004 q 328 936 317 969 q 353 865 340 903 q 376 794 365 828 q 390 749 386 761 q 422 788 399 758 q 472 849 446 817 q 522 909 499 881 q 556 947 546 938 q 589 977 571 963 q 628 1001 607 992 q 675 1008 650 1013 q 709 995 693 1006 q 740 974 725 985 q 778 942 760 958 q 807 904 796 925 q 821 870 817 889 q 821 835 825 851 q 799 796 815 814 q 778 775 793 790 q 746 740 764 760 q 706 700 728 721 q 667 660 685 679 q 634 625 649 640 q 614 604 619 610 q 561 544 586 575 q 513 481 536 513 q 528 453 517 474 q 551 409 539 432 q 576 366 564 386 q 592 340 588 346 q 624 288 601 324 q 672 213 647 253 q 715 137 696 174 q 736 81 733 100 q 731 47 739 64 q 713 17 724 29 q 666 -19 693 -6 q 610 -36 639 -33 m 282 853 q 293 842 286 844 q 307 842 300 840 q 318 851 314 844 q 321 867 322 857 q 318 872 319 869 q 315 878 317 875 q 297 928 304 901 q 272 974 290 954 q 260 985 269 976 q 249 996 251 994 q 233 997 240 1000 q 221 989 225 994 q 217 975 217 983 q 225 961 218 967 q 258 911 249 942 q 282 853 268 881 m 311 776 q 327 778 321 772 q 335 792 333 783 q 334 809 338 801 q 321 817 331 817 q 296 801 300 817 q 311 776 292 786 z "},"y":{"ha":824,"x_min":-8,"x_max":831,"o":"m 360 1 q 324 -12 344 -10 q 285 -12 304 -15 q 238 4 261 -8 q 197 35 214 17 q 169 94 174 60 q 173 136 167 115 q 186 176 179 157 q 239 316 211 247 q 296 453 267 385 q 213 544 251 496 q 138 640 175 592 q 76 726 106 683 q 22 817 46 769 q 1 874 10 844 q -1 932 -8 904 q 21 972 4 954 q 60 1001 38 989 q 107 1017 82 1013 q 156 1021 132 1022 q 183 1013 169 1019 q 207 999 196 1007 q 238 966 224 983 q 263 929 251 949 q 332 813 297 871 q 410 704 367 756 q 441 761 418 721 q 490 847 464 801 q 542 931 517 892 q 579 985 567 971 q 631 1019 601 1008 q 678 1028 651 1028 q 730 1023 704 1029 q 778 1003 756 1017 q 813 971 800 990 q 829 924 828 950 q 813 856 831 890 q 783 810 806 843 q 733 738 760 776 q 682 665 706 699 q 651 619 658 632 q 572 476 608 549 q 504 326 536 403 q 490 291 497 308 q 475 254 482 274 q 455 198 468 235 q 426 122 442 161 q 392 48 410 82 q 360 1 375 14 m 200 869 q 214 857 206 858 q 230 860 222 856 q 240 874 238 865 q 235 893 242 883 q 223 910 228 901 q 211 926 218 919 q 206 933 210 928 q 197 945 201 939 q 188 957 192 951 q 182 964 183 963 q 165 977 178 968 q 144 988 151 986 q 128 986 135 990 q 118 975 121 982 q 118 960 115 968 q 129 949 121 953 q 140 942 132 947 q 151 935 149 938 q 177 904 164 919 q 200 869 190 889 m 242 833 q 241 816 238 824 q 251 805 244 808 q 267 803 258 801 q 281 815 276 806 q 281 833 285 825 q 270 843 278 840 q 254 844 263 846 q 242 833 246 843 z "},"z":{"ha":825,"x_min":1,"x_max":824,"o":"m 365 -3 q 274 -4 319 -4 q 182 -1 228 -4 q 125 3 154 0 q 69 17 96 6 q 42 36 54 24 q 26 64 31 49 q 22 99 21 81 q 26 135 24 117 q 44 190 33 163 q 65 244 54 217 q 203 522 128 388 q 368 783 278 657 q 298 777 343 781 q 204 773 253 774 q 113 776 156 772 q 49 794 69 781 q 13 842 25 810 q 4 903 1 874 q 13 942 7 922 q 32 976 18 961 q 58 995 43 989 q 88 1004 72 1001 q 129 1006 108 1007 q 171 1004 150 1006 q 311 1006 242 1001 q 451 1017 381 1011 q 551 1024 501 1021 q 650 1021 601 1026 q 704 1013 678 1018 q 754 993 731 1007 q 780 973 768 985 q 796 946 792 961 q 797 897 803 922 q 781 850 792 871 q 772 838 778 846 q 758 820 765 829 q 743 803 750 811 q 733 792 736 794 q 532 522 628 661 q 365 231 436 383 q 525 247 446 238 q 683 257 604 256 q 726 253 704 257 q 767 242 747 250 q 792 225 781 235 q 811 201 804 215 q 822 165 819 186 q 822 122 824 143 q 812 81 819 100 q 792 49 804 61 q 763 29 781 36 q 729 19 746 22 q 658 12 710 15 q 548 5 607 8 q 437 -1 489 1 q 365 -3 385 -3 m 693 944 q 708 943 701 940 q 719 952 715 946 q 723 966 724 958 q 715 979 722 974 q 699 989 711 983 q 679 996 686 994 q 640 1001 660 999 q 600 999 619 1003 q 585 988 589 996 q 583 973 582 981 q 591 960 585 965 q 608 957 597 954 q 672 954 639 963 q 683 950 678 953 q 693 944 688 947 m 732 899 q 753 899 743 893 q 763 917 763 906 q 753 935 763 929 q 732 936 743 942 q 721 917 721 929 q 732 899 721 904 z "},"{":{"ha":519,"x_min":-12,"x_max":518,"o":"m 460 -24 q 409 -37 436 -35 q 356 -37 382 -40 q 289 -29 322 -35 q 224 -11 256 -24 q 179 13 200 -1 q 143 47 158 28 q 110 110 121 75 q 97 182 99 146 q 106 248 97 215 q 118 313 115 281 q 117 349 121 331 q 103 382 114 367 q 76 406 92 397 q 43 421 60 414 q 22 434 32 425 q 6 456 13 443 q -6 481 -1 468 q -10 506 -10 494 l -10 508 q 3 561 -12 533 q 42 597 18 589 q 75 613 58 604 q 103 636 92 621 q 117 671 114 651 q 117 710 119 690 q 106 766 114 738 q 97 822 99 794 q 106 898 94 860 q 139 967 117 936 q 206 1021 168 1001 q 267 1042 231 1033 q 343 1055 304 1051 q 417 1053 382 1058 q 475 1032 453 1049 q 511 979 500 1014 q 517 936 517 958 q 510 893 517 914 q 492 855 504 872 q 460 829 479 838 q 430 825 451 825 q 384 825 408 825 q 339 824 360 825 q 313 817 318 822 q 298 798 303 810 q 292 775 293 786 q 294 716 286 746 q 308 657 301 686 q 314 613 313 635 q 310 569 315 590 q 267 510 299 533 q 314 419 313 475 q 307 351 317 385 q 292 282 297 317 q 293 240 289 261 q 311 203 297 218 q 338 194 317 196 q 382 194 358 193 q 428 194 406 194 q 458 190 450 194 q 499 156 485 176 q 518 89 518 128 q 503 19 518 50 q 460 -24 489 -10 m 406 979 q 421 978 414 975 q 431 987 428 981 q 434 1001 435 993 q 426 1015 433 1008 q 403 1025 418 1021 q 371 1031 388 1029 q 338 1031 354 1032 q 311 1029 321 1031 q 297 1019 300 1026 q 295 1003 293 1011 q 303 990 297 996 q 321 988 310 985 q 406 979 365 999 m 446 951 q 463 948 454 944 q 475 958 471 951 q 478 974 479 965 q 468 988 478 983 q 451 990 458 992 q 439 981 443 988 q 436 967 435 975 q 446 951 438 958 z "},"}":{"ha":521,"x_min":3,"x_max":533,"o":"m 165 -37 q 117 -38 142 -40 q 68 -26 92 -36 q 33 -1 47 -18 q 10 38 18 17 q 3 83 3 60 q 10 129 3 107 q 30 165 17 149 q 61 189 43 181 q 90 193 69 193 q 135 193 111 193 q 181 194 160 193 q 208 201 201 194 q 222 220 218 208 q 229 243 226 232 q 226 302 235 272 q 213 361 218 332 q 206 406 208 383 q 211 449 204 428 q 254 510 222 485 q 207 599 211 540 q 215 667 204 633 q 229 736 225 701 q 228 778 232 756 q 211 815 225 800 q 184 824 204 822 q 140 824 164 825 q 94 824 115 824 q 63 828 72 824 q 24 863 36 842 q 8 901 13 879 q 5 945 3 922 q 15 988 7 968 q 36 1024 22 1008 q 89 1051 56 1044 q 160 1057 122 1058 q 234 1047 197 1056 q 297 1029 271 1039 q 342 1005 321 1019 q 378 971 363 990 q 413 908 401 943 q 424 836 424 872 q 416 770 425 803 q 404 706 407 738 q 404 669 401 688 q 418 636 407 651 q 446 613 429 621 q 479 597 463 604 q 518 560 503 589 q 531 507 533 532 q 528 488 529 497 q 524 469 526 479 q 506 440 517 454 q 479 421 494 426 q 445 406 461 414 q 418 382 429 397 q 403 347 407 367 q 403 308 400 328 q 415 251 407 279 q 424 193 422 222 q 417 126 425 160 q 390 65 408 93 q 319 0 365 24 q 244 -27 283 -19 q 165 -37 206 -35 m 271 947 q 284 940 278 943 q 297 938 290 936 q 314 956 313 942 q 303 978 315 971 q 284 988 299 979 q 267 1000 269 997 q 244 1010 258 1004 q 213 1019 229 1015 q 181 1026 196 1024 q 157 1026 165 1028 q 144 1017 147 1024 q 141 1003 140 1010 q 148 990 142 996 q 164 985 154 985 q 181 985 168 986 q 197 982 193 983 q 236 968 217 975 q 271 947 256 961 m 331 904 q 353 907 343 899 q 360 929 363 915 q 344 945 357 942 q 324 938 332 949 q 319 919 317 929 q 331 904 321 908 z "},"~":{"ha":706,"x_min":14,"x_max":689,"o":"m 531 244 q 467 244 499 239 q 407 261 435 249 q 353 290 378 272 q 300 324 328 308 q 286 329 293 326 q 272 333 279 332 q 228 319 249 336 q 192 292 210 307 q 156 268 175 278 q 111 260 133 258 q 69 271 89 261 q 36 299 50 281 q 18 340 22 317 q 18 384 14 360 q 33 431 22 408 q 58 474 43 454 q 92 503 74 493 q 155 532 121 519 q 222 539 189 544 q 308 510 267 531 q 392 475 349 490 q 419 465 406 469 q 447 464 432 461 q 470 474 454 465 q 503 493 486 482 q 536 514 521 504 q 558 526 551 524 q 592 534 574 533 q 628 528 611 535 q 671 490 654 518 q 689 435 688 463 q 681 383 689 408 q 657 338 672 358 q 631 302 644 319 q 600 272 618 285 q 531 244 571 251 m 285 447 q 302 447 294 443 q 313 457 310 450 q 314 472 315 464 q 303 485 313 481 q 288 491 300 488 q 272 496 275 494 q 229 506 251 503 q 185 506 207 508 q 171 504 178 504 q 157 501 164 504 q 140 494 153 499 q 125 488 128 490 q 119 464 114 478 q 139 450 124 450 q 156 455 143 450 q 174 463 169 460 q 197 465 182 465 q 229 463 213 465 q 261 456 246 460 q 285 447 276 451 m 347 454 q 335 442 338 450 q 334 428 332 435 q 343 417 336 421 q 361 415 350 413 q 374 425 371 417 q 374 442 376 433 q 364 454 371 450 q 347 454 357 458 z "}," ":{"ha":347,"x_min":0,"x_max":0,"o":""},"¢":{"ha":799,"x_min":19,"x_max":781,"o":"m 483 0 q 455 -19 474 -15 q 419 -24 436 -24 q 379 -21 400 -24 q 343 -6 358 -18 q 328 25 331 6 q 328 51 326 38 q 331 78 329 64 q 224 110 276 88 q 132 169 172 133 q 90 216 108 190 q 60 269 71 242 q 28 391 36 328 q 21 518 19 454 q 31 626 22 572 q 57 733 39 681 q 92 812 71 774 q 146 878 114 850 q 242 936 188 915 q 351 967 296 957 q 351 1007 350 986 q 368 1040 353 1028 q 385 1050 375 1047 q 407 1056 396 1053 q 465 1052 436 1061 q 497 1013 493 1043 q 498 991 499 1001 q 496 969 497 981 q 600 945 549 963 q 692 894 651 928 q 755 815 729 863 q 779 719 781 768 q 770 672 779 696 q 744 631 761 647 q 713 610 732 618 q 672 601 693 603 q 629 602 650 599 q 593 615 608 606 q 571 638 579 624 q 556 678 560 657 q 540 719 551 700 q 461 782 514 769 q 420 786 442 788 q 381 774 399 785 q 349 751 364 763 q 322 725 333 740 q 301 686 308 707 q 290 644 294 665 q 283 584 283 614 q 282 524 282 554 q 287 442 283 483 q 306 364 290 401 q 342 306 318 333 q 397 269 365 278 q 442 272 418 263 q 481 297 465 282 q 521 356 504 324 q 565 410 538 388 q 608 431 583 425 q 656 433 632 436 q 701 417 679 429 q 738 386 722 406 q 758 339 753 365 q 761 288 763 313 q 744 226 758 256 q 708 172 731 196 q 609 107 667 131 q 493 76 551 83 q 492 69 492 75 q 492 34 492 53 q 483 0 493 15 m 596 879 q 610 872 601 872 q 624 876 618 872 q 633 888 631 881 q 629 901 635 894 q 610 914 624 907 q 583 927 597 921 q 554 938 568 933 q 532 944 540 943 q 519 946 528 944 q 502 948 511 947 q 484 949 493 949 q 471 947 475 949 q 456 934 460 944 q 463 917 451 924 q 478 913 469 911 q 496 913 488 915 q 510 911 503 911 q 524 910 517 911 q 540 905 529 908 q 561 897 550 901 q 582 888 572 893 q 596 879 592 883 m 642 846 q 660 835 647 835 q 681 846 674 835 q 678 865 688 857 q 656 871 668 874 q 642 861 647 868 q 642 846 636 854 z "},"£":{"ha":704,"x_min":15,"x_max":722,"o":"m 649 -1 q 599 -12 625 -11 q 547 -12 572 -12 q 480 -5 514 -10 q 414 10 446 0 q 364 27 389 17 q 311 40 339 38 q 265 37 288 43 q 219 22 242 31 q 181 5 200 14 q 140 -4 161 -4 q 64 25 96 -7 q 39 80 44 44 q 49 140 33 115 q 81 174 61 160 q 118 206 101 189 q 143 243 133 222 q 157 288 153 264 q 159 353 163 319 q 151 418 156 386 q 131 417 144 418 q 103 417 118 417 q 74 419 88 418 q 54 422 60 419 q 34 438 42 426 q 24 461 26 449 q 21 526 15 490 q 54 575 26 561 q 88 583 69 582 q 122 582 106 583 q 90 741 100 658 q 104 900 81 824 q 142 970 115 938 q 204 1021 168 1003 q 296 1049 247 1043 q 393 1051 344 1054 q 440 1044 417 1050 q 488 1032 464 1039 q 534 1016 511 1025 q 576 992 557 1007 q 618 952 600 975 q 647 903 636 929 q 625 778 674 831 q 562 736 601 750 q 488 732 522 722 q 442 772 456 739 q 428 807 435 788 q 411 844 421 826 q 390 872 401 861 q 361 882 378 883 q 333 869 344 879 q 313 844 321 858 q 301 812 306 829 q 297 779 297 794 q 306 691 299 735 q 326 604 314 647 q 331 597 329 597 q 359 600 340 599 q 399 601 378 601 q 438 601 419 601 q 465 596 457 600 q 493 571 485 589 q 501 547 499 561 q 502 515 503 532 q 499 484 501 499 q 492 460 496 469 q 458 432 481 439 q 415 424 438 425 q 369 425 392 424 q 372 328 375 376 q 358 232 369 279 q 400 226 379 232 q 440 211 421 221 q 475 192 458 203 q 511 175 492 182 q 547 172 529 169 q 584 180 565 175 q 621 189 603 185 q 657 190 639 193 q 694 173 679 188 q 716 139 710 158 q 720 97 722 119 q 708 53 718 74 q 683 20 699 35 q 649 -1 668 6 m 564 885 q 579 883 572 881 q 590 892 586 886 q 594 906 594 899 q 586 919 593 914 q 574 934 579 926 q 563 949 569 942 q 514 986 542 971 q 487 999 506 990 q 458 1004 468 1007 q 442 989 446 1001 q 450 968 439 976 q 463 963 456 964 q 476 958 469 961 q 540 911 515 940 q 551 896 546 904 q 564 885 557 888 m 594 822 q 617 830 608 819 q 619 853 626 840 q 602 865 614 864 q 582 856 590 865 q 579 835 575 846 q 594 822 583 825 z "},"¤":{"ha":747,"x_min":18,"x_max":738,"o":"m 551 39 q 504 53 525 36 q 487 73 493 61 q 474 96 481 85 q 457 130 465 113 q 440 164 449 147 q 342 151 393 149 q 244 171 290 153 q 207 125 225 149 q 164 86 189 101 q 105 76 139 71 q 50 101 71 82 q 24 147 29 121 q 31 200 18 174 q 63 243 42 225 q 108 275 85 261 q 58 381 72 324 q 51 497 44 439 q 117 647 64 582 q 101 665 111 653 q 80 691 90 678 q 60 717 69 704 q 50 739 51 731 q 54 769 47 754 q 72 796 61 785 q 100 821 85 810 q 133 839 115 832 q 152 842 142 842 q 171 840 163 843 q 191 828 182 836 q 207 810 200 819 q 228 776 218 793 q 249 742 239 760 q 308 756 278 751 q 369 760 339 761 q 524 708 453 756 q 556 753 540 731 q 593 794 572 776 q 643 811 617 813 q 677 796 661 808 q 704 768 693 783 q 727 734 717 753 q 738 696 738 715 q 728 664 738 679 q 707 636 718 649 q 672 604 690 618 q 633 576 653 590 q 654 407 668 494 q 581 253 640 319 q 615 216 597 233 q 646 176 633 199 q 658 146 654 163 q 657 114 663 129 q 641 88 653 101 q 614 65 629 75 q 582 47 599 54 q 551 39 565 40 m 490 631 q 506 629 499 626 q 517 638 513 632 q 520 652 521 644 q 513 665 519 660 q 501 676 506 671 q 489 688 496 682 q 465 701 481 693 q 433 715 450 708 q 400 724 417 721 q 374 725 383 726 q 358 704 358 721 q 374 683 358 688 q 394 681 378 682 q 414 678 410 679 q 424 674 417 676 q 440 667 432 671 q 454 659 447 663 q 464 654 461 656 q 476 641 471 649 q 490 631 482 633 m 519 596 q 538 583 525 583 q 558 593 550 582 q 561 616 567 604 q 543 628 556 628 q 521 617 529 628 q 519 596 513 607 m 310 349 q 361 344 333 335 q 402 369 385 351 q 429 409 419 386 q 442 458 439 432 q 440 507 444 483 q 427 544 436 526 q 403 572 418 561 q 353 589 382 592 q 322 581 338 588 q 296 563 307 574 q 256 486 265 532 q 264 400 247 440 q 310 349 278 364 z "},"¥":{"ha":810,"x_min":-17,"x_max":824,"o":"m 354 3 q 315 -13 339 -11 q 271 -11 292 -15 q 210 16 239 -4 q 169 65 182 36 q 163 115 158 89 q 174 165 167 142 q 142 169 158 167 q 113 182 125 172 q 92 228 92 199 q 113 274 92 258 q 166 293 136 290 q 224 297 196 296 q 234 322 229 310 q 243 346 239 333 q 188 340 215 343 q 132 346 160 338 q 97 382 104 354 q 97 438 89 410 q 106 457 100 449 q 121 472 113 465 q 142 481 131 479 q 164 486 153 483 q 206 490 185 489 q 250 492 228 492 q 208 541 228 515 q 168 593 188 567 q 114 663 147 619 q 51 756 81 707 q 2 851 21 804 q -8 931 -17 897 q 12 970 -4 953 q 49 999 28 988 q 96 1017 71 1011 q 143 1022 121 1024 q 194 1001 171 1021 q 228 968 214 988 q 254 929 243 949 q 324 813 290 871 q 403 704 358 756 q 434 761 411 721 q 483 847 457 801 q 534 931 510 892 q 571 985 558 971 q 622 1019 596 1010 q 671 1028 644 1028 q 723 1023 697 1029 q 771 1003 749 1017 q 806 971 793 990 q 822 924 821 950 q 806 856 824 890 q 781 816 800 844 q 738 756 761 788 q 695 695 715 724 q 668 657 675 667 q 619 576 642 617 q 574 493 596 535 q 631 494 601 494 q 688 490 660 493 q 719 481 703 488 q 744 461 736 475 q 752 414 756 442 q 732 371 749 386 q 717 363 725 365 q 701 360 710 361 q 681 358 696 358 q 649 359 667 358 q 617 361 632 360 q 596 363 601 363 q 554 363 575 363 q 513 363 533 364 q 501 335 507 349 q 489 308 496 322 q 551 310 521 310 q 614 306 582 310 q 641 302 628 304 q 665 293 654 300 q 685 273 678 286 q 695 245 693 260 q 692 217 697 231 q 676 193 688 203 q 630 176 661 181 q 563 172 599 172 q 494 174 528 172 q 440 176 460 176 q 426 138 436 164 q 403 85 415 113 q 377 35 390 58 q 354 3 364 11 m 192 869 q 206 857 197 858 q 222 860 215 856 q 232 874 229 865 q 228 893 235 883 q 216 910 221 901 q 204 926 211 919 q 199 933 203 928 q 189 945 194 939 q 179 957 183 951 q 174 964 175 963 q 156 977 169 968 q 136 988 143 986 q 121 986 128 990 q 111 975 114 982 q 111 960 108 968 q 122 949 114 953 q 133 942 125 947 q 143 935 140 938 q 169 904 156 919 q 192 869 183 889 m 235 833 q 234 816 231 824 q 244 805 238 808 q 260 803 251 801 q 274 815 269 806 q 274 833 278 825 q 263 843 271 840 q 247 844 256 846 q 235 833 239 843 z "},"­":{"ha":0,"x_min":0,"x_max":0,"o":""},"±":{"ha":571,"x_min":21,"x_max":550,"o":"m 376 397 q 350 382 367 386 q 314 377 333 378 q 276 378 294 376 q 243 385 257 381 q 206 414 217 392 q 201 433 203 419 q 199 460 200 446 q 199 488 199 475 q 199 507 199 501 q 113 511 154 507 q 83 516 97 513 q 57 528 68 519 q 36 553 42 540 q 24 594 26 571 q 24 641 21 618 q 38 684 28 664 q 64 717 47 704 q 95 732 78 728 q 131 736 113 736 q 200 736 164 739 q 198 771 199 754 q 200 806 197 788 q 205 828 201 817 q 215 850 208 840 q 249 870 228 865 q 290 875 271 875 q 326 875 308 876 q 360 864 344 874 q 386 826 379 851 q 392 792 392 810 q 393 756 393 774 q 392 747 392 751 q 390 738 393 742 q 448 736 418 738 q 503 722 478 735 q 527 698 518 714 q 540 663 536 682 q 544 622 544 643 q 539 585 543 601 q 531 558 536 571 q 514 535 525 544 q 458 508 490 513 q 393 504 425 504 q 394 468 394 486 q 390 432 393 450 q 376 397 388 411 m 317 667 q 340 666 324 664 q 364 668 357 668 q 376 667 368 668 q 392 667 383 667 q 408 667 400 667 q 418 669 415 668 q 431 689 431 676 q 418 707 431 701 q 404 710 415 710 q 389 710 393 710 q 375 710 385 710 q 355 709 365 710 q 335 708 344 708 q 321 707 325 707 q 304 688 306 703 q 317 667 303 674 m 454 682 q 465 663 454 668 q 488 665 476 657 q 496 684 497 672 q 483 700 494 696 q 463 699 472 706 q 454 682 454 693 m 460 101 q 415 98 447 99 q 348 98 383 97 q 281 100 313 99 q 236 101 249 101 q 177 101 207 101 q 118 104 147 101 q 88 110 103 106 q 63 122 74 114 q 42 147 47 132 q 29 188 32 165 q 30 234 26 211 q 43 278 33 257 q 69 311 53 299 q 115 329 90 326 q 192 331 154 333 q 271 329 231 329 q 345 331 308 331 q 419 331 382 332 q 468 328 443 331 q 513 314 493 326 q 533 294 525 307 q 544 265 542 281 q 549 222 549 244 q 544 179 550 200 q 535 152 542 165 q 519 129 529 139 q 491 112 507 118 q 460 101 475 106 m 326 300 q 314 291 318 297 q 310 278 310 285 q 317 265 311 271 q 331 260 322 260 q 351 261 335 260 q 371 263 367 263 q 382 262 375 263 q 397 261 389 261 q 413 262 406 261 q 424 264 421 263 q 435 283 435 269 q 424 301 435 296 q 410 303 421 304 q 394 304 399 303 q 381 304 390 304 q 360 303 371 304 q 340 302 349 303 q 326 300 331 301 m 460 276 q 471 257 460 263 q 493 260 482 251 q 501 278 503 267 q 489 294 500 289 q 469 294 478 300 q 460 276 460 288 z "},"×":{"ha":506,"x_min":15,"x_max":489,"o":"m 436 233 q 412 215 426 225 q 382 197 397 204 q 351 185 367 189 q 324 188 336 182 q 304 201 314 192 q 278 228 290 214 q 256 258 267 243 q 222 231 239 244 q 186 207 204 218 q 160 193 174 199 q 132 186 147 188 q 100 193 117 186 q 64 218 81 201 q 36 255 47 235 q 20 297 25 275 q 21 340 15 319 q 36 371 25 357 q 60 396 47 385 q 115 439 85 418 q 94 464 104 451 q 74 490 83 476 q 62 513 67 501 q 57 538 57 525 q 72 574 58 557 q 101 606 86 592 q 130 626 115 617 q 161 638 144 636 q 184 636 172 640 q 206 625 196 632 q 232 601 221 615 q 254 574 243 588 q 260 566 257 569 q 264 557 263 563 q 311 592 288 575 q 363 615 335 610 q 396 611 379 618 q 428 591 413 604 q 456 561 443 578 q 475 529 468 544 q 485 503 482 517 q 486 475 489 489 q 458 419 482 443 q 411 376 435 396 q 453 319 432 351 q 463 275 467 297 q 453 252 460 263 q 436 233 446 242 m 344 561 q 355 550 346 551 q 372 552 364 549 q 383 563 379 556 q 382 579 388 571 q 354 589 368 596 q 344 561 340 582 m 229 490 q 224 476 224 483 q 230 463 225 468 q 242 456 235 457 q 258 461 250 456 q 273 474 261 464 q 288 488 285 485 q 305 501 290 490 q 322 514 319 511 q 328 540 335 525 q 304 551 321 554 q 292 544 301 550 q 281 535 283 538 q 270 526 278 532 q 254 514 263 521 q 238 500 246 507 q 229 490 231 493 z "},"÷":{"ha":554,"x_min":15,"x_max":539,"o":"m 449 288 q 404 284 436 285 q 337 283 372 283 q 269 285 301 283 q 225 286 238 286 q 166 288 196 288 q 107 290 136 288 q 77 295 92 292 q 51 308 63 299 q 31 332 36 318 q 18 374 21 350 q 19 420 15 397 q 32 464 22 443 q 58 497 42 485 q 104 514 76 511 q 182 517 143 519 q 260 515 221 514 q 335 517 297 517 q 408 517 372 517 q 457 514 432 517 q 501 499 482 511 q 522 478 514 492 q 533 451 531 465 q 538 408 538 429 q 533 364 539 386 q 525 337 531 350 q 508 314 519 324 q 480 297 496 303 q 449 288 464 290 m 315 486 q 303 477 307 483 q 300 464 299 471 q 306 451 301 457 q 321 444 311 444 q 340 446 324 444 q 360 447 357 447 q 371 447 364 447 q 386 446 378 446 q 402 447 394 446 q 413 449 410 447 q 425 468 425 456 q 413 488 425 481 q 399 489 410 489 q 383 489 388 489 q 369 489 379 489 q 349 488 360 489 q 329 487 339 488 q 315 486 319 486 m 449 461 q 460 442 449 447 q 482 444 471 436 q 490 463 492 451 q 478 481 489 475 q 458 478 467 485 q 449 461 449 472 m 343 76 q 319 63 335 68 q 285 56 303 57 q 251 56 268 54 q 224 64 235 58 q 189 97 197 74 q 184 156 181 119 q 203 210 188 192 q 224 222 211 218 q 247 229 236 226 q 267 231 254 231 q 294 230 281 231 q 320 228 308 229 q 339 222 332 226 q 356 201 347 217 q 363 171 361 189 q 365 135 365 153 q 358 102 364 118 q 343 76 353 86 m 296 186 q 308 185 303 183 q 315 193 313 188 q 315 204 317 199 q 308 214 314 210 q 286 218 301 217 q 264 217 271 219 q 249 202 249 215 q 264 189 249 189 q 281 190 272 189 q 296 186 289 190 m 321 171 q 328 163 322 164 q 340 164 335 161 q 349 172 346 167 q 347 183 351 178 q 328 190 338 194 q 321 171 318 185 m 351 590 q 327 576 343 582 q 294 569 311 571 q 260 570 276 568 q 232 578 243 572 q 197 611 206 588 q 192 669 189 633 q 211 724 196 706 q 232 736 219 732 q 256 743 244 740 q 276 744 263 744 q 303 744 289 744 q 328 742 317 743 q 347 736 340 740 q 364 715 356 731 q 372 685 369 703 q 373 649 374 667 q 367 616 372 632 q 351 590 361 600 m 304 700 q 316 699 311 697 q 323 707 321 701 q 324 718 325 713 q 317 728 322 724 q 294 732 310 731 q 272 731 279 733 q 257 716 257 729 q 272 703 257 703 q 289 703 281 703 q 304 700 297 704 m 329 685 q 337 676 331 678 q 349 678 343 675 q 357 686 354 681 q 356 697 360 692 q 336 703 346 708 q 329 685 326 699 z "},"‘":{"ha":276,"x_min":22,"x_max":256,"o":"m 211 711 q 182 698 199 700 q 150 694 165 696 q 119 694 138 694 q 83 695 101 693 q 50 702 65 697 q 29 718 35 707 q 25 733 26 722 q 24 757 24 744 q 24 781 24 769 q 25 799 25 793 q 25 826 25 806 q 25 872 25 847 q 25 917 25 896 q 24 944 25 938 q 23 957 24 949 q 22 975 22 965 q 23 992 22 985 q 25 1004 24 1000 q 46 1025 32 1019 q 73 1029 54 1028 q 113 1032 92 1031 q 153 1033 133 1033 q 181 1032 172 1033 q 206 1027 193 1031 q 228 1015 218 1024 q 244 994 239 1007 q 253 968 250 982 q 256 932 256 950 q 256 894 256 914 q 253 851 256 878 q 247 796 251 824 q 233 744 242 768 q 211 711 225 721 m 146 965 q 156 965 149 965 q 167 964 164 964 q 182 970 176 964 q 188 985 188 976 q 182 999 188 993 q 165 1006 176 1006 q 153 1006 161 1006 q 135 1007 144 1007 q 118 1007 126 1007 q 106 1006 110 1007 q 96 995 99 1001 q 94 982 93 989 q 101 970 96 975 q 114 965 106 965 q 131 966 118 965 q 146 965 143 967 m 199 965 q 200 944 193 954 q 218 935 207 935 q 238 946 232 935 q 235 968 243 957 q 216 977 228 978 q 199 965 204 976 z "},"’":{"ha":276,"x_min":22,"x_max":256,"o":"m 211 711 q 182 698 199 700 q 150 694 165 696 q 119 694 138 694 q 83 695 101 693 q 50 702 65 697 q 29 718 35 707 q 25 733 26 722 q 24 757 24 744 q 24 781 24 769 q 25 799 25 793 q 25 826 25 806 q 25 872 25 847 q 25 917 25 896 q 24 944 25 938 q 23 957 24 949 q 22 975 22 965 q 23 992 22 985 q 25 1004 24 1000 q 46 1025 32 1019 q 73 1029 54 1028 q 113 1032 92 1031 q 153 1033 133 1033 q 181 1032 172 1033 q 206 1027 193 1031 q 228 1015 218 1024 q 244 994 239 1007 q 253 968 250 982 q 256 932 256 950 q 256 894 256 914 q 253 851 256 878 q 247 796 251 824 q 233 744 242 768 q 211 711 225 721 m 146 965 q 156 965 149 965 q 167 964 164 964 q 182 970 176 964 q 188 985 188 976 q 182 999 188 993 q 165 1006 176 1006 q 153 1006 161 1006 q 135 1007 144 1007 q 118 1007 126 1007 q 106 1006 110 1007 q 96 995 99 1001 q 94 982 93 989 q 101 970 96 975 q 114 965 106 965 q 131 966 118 965 q 146 965 143 967 m 199 965 q 200 944 193 954 q 218 935 207 935 q 238 946 232 935 q 235 968 243 957 q 216 977 228 978 q 199 965 204 976 z "},"“":{"ha":575,"x_min":22,"x_max":554,"o":"m 211 693 q 182 681 199 683 q 150 678 165 678 q 119 677 138 678 q 83 678 101 676 q 50 685 65 681 q 29 700 35 689 q 25 717 26 706 q 24 740 24 728 q 24 765 24 753 q 25 782 25 776 q 25 810 25 789 q 25 855 25 831 q 25 900 25 879 q 24 928 25 921 q 23 940 24 932 q 22 958 22 949 q 23 976 22 968 q 25 988 24 983 q 46 1007 32 1003 q 73 1012 54 1010 q 113 1015 92 1014 q 153 1017 133 1017 q 181 1015 172 1017 q 206 1010 193 1014 q 228 999 218 1007 q 244 977 239 990 q 253 951 250 964 q 256 914 256 932 q 256 876 256 896 q 253 833 256 860 q 247 779 251 807 q 233 728 242 751 q 211 693 225 704 m 510 688 q 481 675 497 678 q 449 672 464 672 q 418 672 436 672 q 382 672 400 671 q 349 678 364 674 q 328 694 333 683 q 324 711 325 700 q 322 735 322 722 q 323 758 322 747 q 324 775 324 769 q 324 804 324 783 q 324 849 324 825 q 324 893 324 872 q 322 921 324 914 q 321 951 321 929 q 324 982 321 974 q 344 1001 329 996 q 372 1006 353 1004 q 411 1009 390 1008 q 451 1010 432 1010 q 479 1010 471 1010 q 504 1004 492 1008 q 526 993 517 1000 q 543 972 538 985 q 551 946 549 958 q 554 908 554 926 q 554 871 554 890 q 552 827 554 854 q 545 772 550 800 q 532 721 540 744 q 510 688 524 697 m 146 949 q 156 947 149 949 q 167 946 164 946 q 182 953 176 946 q 188 967 188 960 q 182 982 188 975 q 165 989 176 989 q 153 990 161 989 q 135 990 144 990 q 118 990 126 990 q 106 988 110 989 q 94 965 90 981 q 114 949 97 949 l 146 949 m 444 943 q 455 941 447 942 q 465 940 463 940 q 481 947 475 940 q 486 962 486 954 q 481 976 486 969 q 464 983 475 983 q 451 984 460 983 q 434 985 443 985 q 417 984 425 985 q 404 982 408 983 q 394 972 397 978 q 393 958 392 965 q 399 947 394 951 q 413 942 404 942 q 429 942 417 942 q 444 943 442 943 m 199 947 q 200 926 193 936 q 218 917 207 917 q 238 928 232 917 q 235 951 243 940 q 216 959 228 960 q 199 947 204 958 m 497 942 q 499 921 492 931 q 517 911 506 911 q 536 923 531 911 q 533 944 542 935 q 515 953 526 954 q 497 942 503 953 z "},"”":{"ha":575,"x_min":22,"x_max":554,"o":"m 211 693 q 182 681 199 683 q 150 678 165 678 q 119 677 138 678 q 83 678 101 676 q 50 685 65 681 q 29 700 35 689 q 25 717 26 706 q 24 740 24 728 q 24 765 24 753 q 25 782 25 776 q 25 810 25 789 q 25 855 25 831 q 25 900 25 879 q 24 928 25 921 q 23 940 24 932 q 22 958 22 949 q 23 976 22 968 q 25 988 24 983 q 46 1007 32 1003 q 73 1012 54 1010 q 113 1015 92 1014 q 153 1017 133 1017 q 181 1015 172 1017 q 206 1010 193 1014 q 228 999 218 1007 q 244 977 239 990 q 253 951 250 964 q 256 914 256 932 q 256 876 256 896 q 253 833 256 860 q 247 779 251 807 q 233 728 242 751 q 211 693 225 704 m 510 688 q 481 675 497 678 q 449 672 464 672 q 418 672 436 672 q 382 672 400 671 q 349 678 364 674 q 328 694 333 683 q 324 711 325 700 q 322 735 322 722 q 323 758 322 747 q 324 775 324 769 q 324 804 324 783 q 324 849 324 825 q 324 893 324 872 q 322 921 324 914 q 321 951 321 929 q 324 982 321 974 q 344 1001 329 996 q 372 1006 353 1004 q 411 1009 390 1008 q 451 1010 432 1010 q 479 1010 471 1010 q 504 1004 492 1008 q 526 993 517 1000 q 543 972 538 985 q 551 946 549 958 q 554 908 554 926 q 554 871 554 890 q 552 827 554 854 q 545 772 550 800 q 532 721 540 744 q 510 688 524 697 m 146 949 q 156 947 149 949 q 167 946 164 946 q 182 953 176 946 q 188 967 188 960 q 182 982 188 975 q 165 989 176 989 q 153 990 161 989 q 135 990 144 990 q 118 990 126 990 q 106 988 110 989 q 94 965 90 981 q 114 949 97 949 l 146 949 m 444 943 q 455 941 447 942 q 465 940 463 940 q 481 947 475 940 q 486 962 486 954 q 481 976 486 969 q 464 983 475 983 q 451 984 460 983 q 434 985 443 985 q 417 984 425 985 q 404 982 408 983 q 394 972 397 978 q 393 958 392 965 q 399 947 394 951 q 413 942 404 942 q 429 942 417 942 q 444 943 442 943 m 199 947 q 200 926 193 936 q 218 917 207 917 q 238 928 232 917 q 235 951 243 940 q 216 959 228 960 q 199 947 204 958 m 497 942 q 499 921 492 931 q 517 911 506 911 q 536 923 531 911 q 533 944 542 935 q 515 953 526 954 q 497 942 503 953 z "},"€":{"ha":881,"x_min":3,"x_max":858,"o":"m 529 -17 q 404 -8 467 -21 q 289 36 342 4 q 229 78 257 54 q 181 133 201 103 q 140 212 156 169 q 117 297 125 254 q 83 296 100 296 q 51 303 67 296 q 10 355 17 317 q 14 429 3 393 q 27 448 18 439 q 49 463 36 457 q 75 472 61 468 q 100 475 89 475 l 100 511 q 68 511 85 510 q 40 522 51 513 q 25 545 32 531 q 15 576 18 560 q 12 608 13 592 q 15 635 11 624 q 29 656 19 649 q 70 675 47 671 q 117 682 93 679 q 151 808 129 744 q 215 919 172 871 q 269 967 239 947 q 333 1003 300 988 q 512 1039 415 1039 q 690 1001 608 1039 q 810 899 765 967 q 858 749 856 831 q 853 698 858 724 q 832 651 847 672 q 794 617 819 631 q 758 606 778 608 q 719 605 739 603 q 683 615 700 607 q 656 638 667 622 q 637 681 642 657 q 625 729 632 706 q 600 774 617 754 q 562 806 583 794 q 517 820 540 818 q 469 811 493 822 q 411 761 435 794 q 376 692 388 728 q 438 685 407 689 q 497 669 469 682 q 538 633 525 657 q 549 583 550 608 q 531 538 547 558 q 486 511 515 517 q 424 508 454 504 q 361 514 393 511 l 361 474 q 433 469 397 474 q 503 453 469 465 q 526 440 515 449 q 539 419 536 431 q 540 372 546 400 q 519 332 535 344 q 476 315 501 318 q 433 313 454 313 q 389 314 411 314 q 414 265 399 289 q 453 226 429 242 q 474 215 463 219 q 499 211 486 210 q 536 226 518 213 q 567 256 554 239 q 598 310 585 282 q 629 363 611 338 q 681 402 650 392 q 741 406 711 413 q 796 376 771 399 q 831 319 821 354 q 840 246 840 283 q 828 174 839 208 q 794 110 817 140 q 743 58 771 81 q 642 5 699 24 q 529 -17 586 -14 m 674 929 q 689 921 681 921 q 703 926 697 921 q 712 939 710 931 q 707 956 714 947 q 689 970 701 963 q 662 985 676 978 q 633 999 647 993 q 611 1006 619 1004 q 598 1008 607 1007 q 580 1010 589 1008 q 563 1011 571 1011 q 550 1011 554 1011 q 536 1002 540 1008 q 533 988 532 996 q 540 975 535 981 q 554 969 544 969 q 578 969 567 969 q 601 965 590 968 q 639 950 621 960 q 674 929 657 940 m 719 892 q 738 879 725 881 q 757 888 750 878 q 759 910 765 899 q 740 922 753 922 q 722 912 729 921 q 719 892 715 903 z "},"™":{"ha":819,"x_min":10,"x_max":806,"o":"m 233 622 q 199 612 224 614 q 161 613 174 610 q 124 632 139 615 q 108 667 114 644 q 105 714 106 681 q 106 784 104 747 q 108 854 107 821 q 111 901 110 888 q 85 899 97 900 q 58 897 72 897 q 33 903 43 896 q 18 921 24 910 q 11 947 13 932 q 14 975 10 961 q 60 1019 22 1011 q 100 1024 72 1022 q 158 1025 128 1025 q 217 1024 189 1025 q 257 1021 244 1024 q 290 1013 272 1018 q 314 993 307 1007 q 320 950 322 976 q 306 910 318 924 q 276 894 294 896 q 239 892 257 892 q 244 816 242 854 q 249 740 246 778 q 250 712 249 729 q 251 677 251 694 q 246 644 250 660 q 233 622 242 629 m 421 618 q 387 610 406 610 q 351 615 368 611 q 326 635 333 621 q 318 669 319 650 q 320 710 317 689 q 326 750 324 732 q 374 967 342 864 q 382 993 378 979 q 397 1015 386 1007 q 433 1024 408 1024 q 471 1022 457 1025 q 501 1001 486 1018 q 532 951 521 978 q 553 896 543 924 q 560 922 556 906 q 572 956 565 939 q 585 988 578 974 q 601 1008 593 1003 q 620 1015 608 1013 q 646 1019 632 1018 q 672 1018 660 1019 q 693 1014 685 1017 q 719 997 707 1010 q 736 961 729 982 q 747 924 739 951 q 764 864 756 896 q 780 804 772 832 q 790 767 788 776 q 801 719 797 743 q 800 671 806 694 q 788 645 797 657 q 765 626 779 633 q 715 616 744 615 q 671 636 686 617 q 663 650 665 643 q 658 665 661 657 q 650 717 654 690 q 638 767 646 743 q 629 742 635 760 q 617 703 624 724 q 606 665 611 683 q 597 642 600 647 q 578 624 590 628 q 539 621 563 618 q 504 635 515 624 q 491 651 496 642 q 482 669 486 660 q 468 716 474 693 q 456 763 463 739 q 448 710 451 736 q 442 660 444 685 q 435 637 439 649 q 421 618 431 625 z "},"−":{"ha":554,"x_min":15,"x_max":539,"o":"m 449 288 q 404 284 436 285 q 337 283 372 283 q 269 285 301 283 q 225 286 238 286 q 166 288 196 288 q 107 290 136 288 q 77 295 92 292 q 51 308 63 299 q 31 332 36 318 q 18 374 21 350 q 19 420 15 397 q 32 464 22 443 q 58 497 42 485 q 104 514 76 511 q 182 517 143 519 q 260 515 221 514 q 335 517 297 517 q 408 517 372 517 q 457 514 432 517 q 501 499 482 511 q 522 478 514 492 q 533 451 531 465 q 538 408 538 429 q 533 364 539 386 q 525 337 531 350 q 508 314 519 324 q 480 297 496 303 q 449 288 464 290 m 315 486 q 303 477 307 483 q 300 464 299 471 q 306 451 301 457 q 321 444 311 444 q 340 446 324 444 q 360 447 357 447 q 371 447 364 447 q 386 446 378 446 q 402 447 394 446 q 413 449 410 447 q 425 468 425 456 q 413 488 425 481 q 399 489 410 489 q 383 489 388 489 q 369 489 379 489 q 349 488 360 489 q 329 487 339 488 q 315 486 319 486 m 449 461 q 460 442 449 447 q 482 444 471 436 q 490 463 492 451 q 478 481 489 475 q 458 478 467 485 q 449 461 449 472 z "},"|":{"ha":385,"x_min":33,"x_max":354,"o":"m 263 -71 q 217 -79 243 -78 q 163 -78 190 -81 q 113 -66 136 -75 q 75 -42 89 -57 q 48 25 57 -21 q 36 123 39 71 q 34 224 33 175 q 35 300 35 272 q 47 536 38 419 q 68 771 57 653 l 68 774 q 68 843 68 808 q 75 911 68 878 q 92 978 82 944 q 125 1036 101 1013 q 163 1056 140 1050 q 210 1063 185 1063 q 258 1056 235 1063 q 300 1040 282 1050 q 339 1003 326 1026 q 353 953 351 979 q 351 903 354 928 q 331 660 339 781 q 324 417 324 539 q 329 240 324 328 q 335 64 335 153 q 331 13 333 39 q 313 -35 328 -14 q 291 -58 304 -49 q 263 -71 278 -67 m 283 821 q 296 816 289 815 q 308 821 303 817 q 316 832 314 825 q 314 846 318 839 q 313 868 311 851 q 319 903 315 885 q 324 939 322 922 q 325 963 326 956 q 308 978 322 976 q 286 967 293 981 q 284 956 283 961 q 283 943 285 950 q 278 913 282 931 q 273 878 275 896 q 272 844 271 860 q 283 821 274 828 m 296 781 q 280 779 286 785 q 272 765 274 774 q 273 749 269 757 q 288 740 276 740 q 313 756 310 740 q 296 781 317 771 z "},"`":{"ha":339,"x_min":13,"x_max":328,"o":"m 308 771 q 285 748 299 758 q 255 731 271 738 q 222 724 239 725 q 190 731 204 724 q 172 742 181 735 q 157 757 164 750 q 150 765 154 760 q 143 772 146 771 q 88 820 114 794 q 43 878 63 846 q 22 919 32 897 q 14 964 13 940 q 24 996 15 981 q 46 1022 32 1011 q 76 1041 60 1033 q 110 1050 93 1049 q 127 1049 118 1050 q 144 1046 136 1049 q 172 1028 160 1039 q 194 1006 183 1017 q 213 983 199 1000 q 243 948 228 967 q 273 912 258 929 q 292 889 288 894 q 313 860 303 875 q 325 826 322 844 q 322 798 328 813 q 308 771 317 783 z "},"":{"ha":6539,"x_min":26,"x_max":6483,"o":"m 139 393 q 108 394 122 393 q 78 403 93 396 q 60 413 68 407 q 44 425 51 418 q 31 457 35 439 q 27 494 26 475 q 33 530 28 513 q 49 560 39 547 q 75 579 60 574 q 107 588 90 585 q 147 583 128 588 q 186 578 165 579 q 206 575 192 576 q 235 572 219 574 q 265 569 250 571 q 285 565 279 567 q 311 543 303 556 q 319 515 317 532 q 322 482 322 499 q 318 449 322 465 q 307 424 314 433 q 282 403 296 411 q 253 397 274 399 q 211 394 233 396 q 169 393 189 393 q 139 393 149 393 m 147 60 q 121 65 135 63 q 97 78 107 68 q 63 141 72 100 q 69 214 54 182 q 122 249 89 240 q 163 253 142 253 q 203 254 183 253 q 221 258 207 256 q 251 262 235 260 q 281 265 267 264 q 300 265 294 265 q 332 250 319 265 q 347 226 340 240 q 356 194 353 211 q 360 162 360 178 q 357 135 361 146 q 333 107 349 119 q 296 90 321 99 q 242 75 271 82 q 188 64 214 68 q 147 60 161 60 m 125 735 q 103 750 114 742 q 86 769 93 758 q 78 803 79 785 q 82 841 78 822 q 95 876 86 860 q 117 904 104 893 q 147 917 131 915 q 178 918 163 919 q 216 906 197 914 q 254 889 235 897 q 272 885 258 889 q 301 878 286 882 q 331 869 317 874 q 349 863 344 864 q 361 852 356 860 q 368 838 367 844 q 372 808 372 825 q 369 775 372 792 q 359 743 365 758 q 343 718 353 728 q 331 709 338 711 q 317 703 324 707 q 275 703 301 700 q 219 710 249 706 q 165 722 190 715 q 125 735 139 729 m 1142 1 l 1121 1 q 1047 24 1082 7 q 981 68 1011 42 q 924 136 949 97 q 881 215 899 175 q 837 306 858 260 q 796 400 815 351 q 781 435 792 408 q 756 493 769 463 q 731 551 743 524 q 715 588 719 578 q 698 622 708 604 q 676 653 688 639 q 665 498 665 575 q 667 343 664 421 q 676 230 668 285 q 682 117 683 175 q 676 69 679 93 q 657 31 672 46 q 598 4 633 8 q 528 7 563 0 q 497 18 513 10 q 469 39 481 26 q 454 60 460 47 q 444 85 449 72 q 438 133 440 100 q 432 209 435 167 q 428 299 429 251 q 424 388 426 346 q 422 464 422 431 q 419 513 421 497 q 422 605 419 560 q 426 696 424 650 q 431 739 428 707 q 438 807 433 771 q 445 875 442 843 q 451 919 449 907 q 467 968 458 943 q 496 1008 476 993 q 528 1022 507 1018 q 574 1026 550 1026 q 620 1022 597 1025 q 658 1013 643 1018 l 661 1011 q 681 1006 672 1011 q 701 996 690 1001 q 757 953 733 981 q 800 894 781 925 q 864 763 836 831 q 917 625 892 694 q 969 487 943 556 q 1031 353 996 418 q 1030 381 1031 358 q 1028 428 1029 403 q 1027 476 1028 454 q 1026 507 1026 499 q 1030 641 1026 574 q 1042 776 1033 708 q 1044 803 1042 783 q 1049 845 1046 824 q 1053 886 1051 867 q 1058 913 1056 906 q 1069 959 1061 936 q 1094 997 1078 982 q 1128 1015 1107 1010 q 1173 1020 1149 1019 q 1220 1018 1197 1021 q 1258 1011 1243 1015 q 1290 997 1274 1004 q 1317 976 1306 990 q 1331 952 1326 967 q 1335 925 1335 938 q 1325 879 1332 914 q 1310 806 1318 844 q 1295 733 1303 768 q 1286 688 1288 699 q 1272 535 1275 613 q 1272 379 1269 457 q 1273 340 1272 360 q 1278 296 1274 319 q 1281 243 1278 279 q 1285 168 1283 207 q 1285 94 1286 129 q 1278 44 1285 60 q 1255 19 1271 29 q 1219 4 1239 10 q 1179 -1 1200 -1 q 1142 1 1158 -1 m 789 861 q 761 900 775 881 q 728 935 747 919 q 683 965 708 954 q 635 981 658 976 q 614 977 622 983 q 603 963 606 971 q 607 947 601 954 q 625 939 613 939 q 653 933 640 939 q 678 919 665 926 q 697 906 686 915 q 719 884 708 896 q 740 860 731 872 q 753 842 749 849 q 765 831 757 832 q 781 833 774 829 q 792 844 789 836 q 789 861 794 851 m 796 767 q 822 782 819 767 q 806 806 825 797 q 789 806 796 811 q 780 792 782 800 q 781 775 778 783 q 796 767 785 767 m 1897 -24 q 1840 -1 1867 -21 q 1827 17 1833 6 q 1819 40 1821 28 q 1815 81 1817 61 q 1811 122 1814 101 q 1706 132 1760 133 q 1599 131 1653 131 q 1588 74 1594 101 q 1568 24 1581 47 q 1546 -4 1558 4 q 1513 -17 1533 -12 q 1465 -21 1490 -24 q 1415 -9 1439 -18 q 1372 16 1392 0 q 1343 53 1353 32 q 1336 76 1338 64 q 1335 100 1335 89 q 1341 149 1335 115 q 1357 224 1347 182 q 1378 313 1367 267 q 1401 401 1390 358 q 1419 476 1411 443 q 1432 526 1428 510 q 1460 615 1444 572 q 1490 703 1475 658 q 1509 749 1496 715 q 1538 822 1522 783 q 1568 894 1554 860 q 1589 939 1582 928 q 1622 985 1604 963 q 1665 1017 1639 1008 q 1694 1019 1675 1018 q 1735 1022 1714 1021 q 1776 1022 1757 1022 q 1804 1018 1796 1021 q 1844 1003 1828 1014 q 1872 975 1860 992 q 1895 929 1882 961 q 1922 856 1908 897 q 1951 770 1936 815 q 1978 683 1965 725 q 1999 609 1990 642 q 2014 560 2008 576 q 2031 500 2021 539 q 2051 413 2040 461 q 2071 313 2061 365 q 2088 213 2081 261 q 2097 126 2094 165 q 2094 65 2099 88 q 2067 11 2090 31 q 2033 -6 2056 1 q 1986 -17 2011 -12 q 1937 -24 1961 -22 q 1897 -24 1913 -25 m 1799 286 q 1801 290 1801 285 q 1799 296 1801 294 q 1774 449 1790 375 q 1736 596 1757 522 q 1679 444 1704 522 q 1635 286 1654 367 q 1717 293 1675 293 q 1799 286 1758 293 m 1907 785 q 1906 801 1908 790 q 1901 823 1904 811 q 1893 845 1897 835 q 1888 861 1889 856 q 1867 908 1878 885 q 1840 951 1856 932 q 1823 968 1833 961 q 1804 969 1813 975 q 1792 950 1792 963 q 1804 933 1792 938 q 1810 925 1806 931 q 1814 918 1814 919 q 1835 881 1826 900 q 1851 842 1843 861 q 1853 831 1851 839 q 1858 815 1856 824 q 1863 799 1861 807 q 1865 789 1865 792 q 1872 775 1865 781 q 1885 769 1878 769 q 1899 772 1892 768 q 1907 785 1906 775 m 1924 696 q 1932 714 1935 701 q 1917 733 1929 726 q 1897 730 1906 739 q 1890 708 1888 721 q 1903 691 1892 696 q 1924 696 1915 686 m 2921 75 q 2911 139 2915 93 q 2903 237 2907 185 q 2899 335 2900 289 q 2897 400 2897 382 q 2858 300 2878 350 q 2822 199 2838 250 q 2795 133 2811 164 q 2756 78 2779 101 q 2715 51 2739 61 q 2664 39 2690 42 q 2612 39 2638 36 q 2567 53 2586 42 q 2551 65 2558 58 q 2535 78 2543 71 q 2519 117 2528 89 q 2503 176 2511 144 q 2490 235 2496 207 q 2482 276 2485 264 q 2435 485 2457 381 q 2388 693 2413 589 q 2374 520 2375 607 q 2375 346 2372 433 q 2379 283 2375 325 q 2386 196 2383 242 q 2388 109 2389 150 q 2378 50 2388 68 q 2354 26 2369 35 q 2321 11 2339 17 q 2276 6 2300 6 q 2231 12 2253 6 q 2190 30 2208 18 q 2161 60 2171 42 q 2148 113 2150 86 q 2144 167 2146 140 q 2133 340 2136 254 q 2128 513 2129 426 q 2129 568 2128 532 q 2133 649 2131 604 q 2140 741 2136 693 q 2148 833 2143 789 q 2158 911 2153 876 q 2171 964 2164 946 q 2185 988 2178 976 q 2203 1011 2192 1000 q 2248 1027 2219 1025 q 2308 1026 2276 1029 q 2371 1015 2340 1022 q 2422 1003 2401 1008 q 2499 960 2469 989 q 2528 915 2518 940 q 2547 863 2538 889 q 2581 744 2567 804 q 2608 621 2594 683 q 2616 588 2611 611 q 2628 533 2621 564 q 2642 467 2635 501 q 2655 401 2649 432 q 2666 345 2661 369 q 2674 311 2671 321 q 2702 388 2690 349 q 2726 467 2714 426 q 2770 600 2750 533 q 2813 733 2790 667 q 2828 790 2817 753 q 2853 869 2839 828 q 2884 944 2868 910 q 2915 994 2900 979 q 2958 1011 2932 1007 q 3051 1023 3003 1022 q 3142 1008 3099 1024 q 3167 994 3154 1003 q 3189 975 3181 986 q 3198 955 3196 967 q 3200 933 3200 943 q 3194 889 3200 921 q 3181 821 3189 857 q 3167 753 3174 785 q 3158 708 3160 721 q 3138 528 3139 619 q 3142 346 3138 438 q 3146 283 3142 325 q 3152 194 3150 240 q 3153 105 3154 147 q 3143 44 3153 63 q 3122 22 3136 32 q 3092 8 3107 13 q 3040 0 3067 0 q 2989 8 3013 0 q 2947 33 2965 17 q 2921 75 2929 50 m 2483 913 q 2467 938 2483 925 q 2442 956 2451 951 q 2364 986 2407 978 q 2345 990 2353 986 q 2331 992 2338 994 q 2314 970 2314 988 q 2331 950 2314 953 q 2372 941 2351 946 q 2413 925 2393 936 q 2431 913 2422 919 q 2443 900 2439 907 q 2469 894 2454 889 q 2483 913 2483 899 m 2514 838 q 2517 865 2526 853 q 2489 868 2508 878 q 2480 856 2479 864 q 2485 840 2481 847 q 2499 831 2490 833 q 2514 838 2507 829 m 3411 1 q 3360 4 3386 3 q 3311 18 3333 6 q 3278 49 3292 28 q 3261 90 3265 71 q 3256 138 3258 104 q 3251 213 3253 171 q 3247 303 3249 256 q 3242 394 3244 351 q 3239 471 3240 436 q 3236 521 3238 506 q 3238 576 3236 540 q 3242 657 3239 613 q 3250 749 3246 701 q 3260 840 3254 797 q 3272 918 3265 883 q 3286 971 3279 953 q 3299 995 3292 985 q 3322 1013 3307 1006 q 3353 1025 3336 1024 q 3385 1028 3369 1026 q 3631 1024 3510 1035 q 3875 1003 3753 1014 q 3893 999 3885 1003 q 3908 992 3901 996 q 3920 973 3915 983 q 3926 951 3925 963 q 3930 917 3931 936 q 3925 879 3929 899 q 3913 843 3921 860 q 3894 817 3906 826 q 3865 801 3878 806 q 3797 800 3846 799 q 3694 805 3749 801 q 3592 813 3640 808 q 3524 819 3543 817 q 3503 713 3513 767 q 3489 601 3494 658 q 3544 600 3506 601 q 3624 596 3582 599 q 3702 589 3665 593 q 3754 579 3739 585 q 3785 549 3781 572 q 3785 525 3785 540 q 3784 493 3785 510 q 3781 462 3783 476 q 3776 440 3779 447 q 3750 404 3768 418 q 3697 392 3733 394 q 3619 390 3660 389 q 3542 394 3579 392 q 3483 400 3504 397 q 3488 312 3486 356 q 3493 225 3490 268 q 3597 222 3546 219 q 3700 228 3649 225 q 3758 231 3731 228 q 3817 233 3786 235 q 3849 225 3832 231 q 3875 206 3865 219 q 3892 165 3889 189 q 3893 122 3894 142 q 3890 81 3893 101 q 3874 43 3886 60 q 3828 17 3858 26 q 3761 8 3796 8 q 3586 0 3674 1 q 3411 1 3499 -1 m 3801 153 q 3815 178 3818 161 q 3794 194 3811 194 q 3779 194 3790 194 q 3755 193 3768 193 q 3731 192 3742 193 q 3715 192 3719 192 q 3681 192 3704 192 q 3649 186 3658 193 q 3643 163 3638 176 q 3667 149 3649 149 q 3694 149 3675 149 q 3733 149 3713 149 q 3774 151 3754 150 q 3801 153 3793 151 m 3818 946 q 3826 965 3829 953 q 3813 981 3824 978 q 3803 984 3808 983 q 3794 985 3797 985 q 3769 986 3788 985 q 3728 989 3750 988 q 3688 991 3707 990 q 3661 989 3669 992 q 3645 969 3643 986 q 3663 950 3647 953 q 3679 949 3667 950 q 3706 948 3692 949 q 3733 947 3719 947 q 3750 946 3746 946 q 3765 944 3756 946 q 3785 942 3775 943 q 3805 942 3796 942 q 3818 946 3814 943 m 3863 164 q 3858 188 3868 178 q 3836 193 3849 197 q 3824 172 3822 188 q 3838 151 3825 157 q 3853 152 3846 149 q 3863 164 3860 156 m 3885 944 q 3877 968 3889 960 q 3853 967 3865 976 q 3844 953 3846 963 q 3849 938 3843 943 q 3870 929 3857 926 q 3885 944 3883 932 m 4092 44 q 4018 110 4051 72 q 3965 193 3985 147 q 3934 294 3943 242 q 3919 399 3925 346 q 3917 544 3913 469 q 3936 692 3921 618 q 3969 811 3947 751 q 4033 919 3992 871 q 4086 967 4057 946 q 4147 1003 4115 989 q 4329 1039 4232 1039 q 4508 1001 4426 1039 q 4626 897 4582 965 q 4672 749 4671 829 q 4668 697 4675 724 q 4649 651 4661 671 q 4611 617 4635 629 q 4575 606 4594 608 q 4537 605 4556 603 q 4501 615 4518 607 q 4475 636 4485 622 q 4454 681 4460 656 q 4442 729 4449 706 q 4421 766 4433 749 q 4393 796 4408 783 q 4306 819 4354 828 q 4285 810 4294 815 q 4267 800 4276 804 q 4226 759 4244 782 q 4200 710 4207 736 q 4181 630 4185 671 q 4178 549 4178 589 q 4179 467 4178 507 q 4188 385 4181 426 q 4209 308 4194 346 q 4253 243 4224 271 q 4281 220 4264 229 q 4313 214 4297 211 q 4354 227 4336 214 q 4383 257 4372 240 q 4415 310 4403 283 q 4446 363 4428 336 q 4497 402 4467 392 q 4558 406 4528 413 q 4612 376 4588 399 q 4646 318 4636 353 q 4656 245 4654 282 q 4644 174 4657 208 q 4610 110 4633 142 q 4560 60 4588 79 q 4460 6 4515 25 q 4346 -17 4404 -12 q 4215 -6 4281 -22 q 4092 44 4149 10 m 4522 954 q 4506 971 4518 963 q 4480 986 4494 979 q 4451 999 4465 993 q 4429 1006 4438 1004 q 4398 1010 4421 1008 q 4367 1011 4375 1011 q 4354 1002 4358 1008 q 4351 988 4350 996 q 4357 975 4351 981 q 4372 969 4363 969 q 4395 969 4383 969 q 4419 964 4407 968 q 4456 950 4439 961 q 4492 929 4472 939 q 4506 921 4497 921 q 4522 926 4515 921 q 4529 938 4528 931 q 4522 954 4531 946 m 4572 888 q 4576 910 4582 897 q 4558 922 4571 922 q 4538 910 4543 919 q 4538 889 4532 900 q 4553 879 4542 879 q 4572 888 4565 879 m 5247 -24 q 5218 -17 5233 -22 q 5192 -1 5203 -11 q 5171 40 5174 15 q 5166 81 5167 61 q 5164 122 5165 101 q 5058 132 5111 133 q 4951 131 5004 131 q 4938 74 4946 101 q 4918 24 4931 47 q 4895 -4 4907 4 q 4865 -17 4883 -12 q 4816 -21 4842 -24 q 4766 -9 4790 -18 q 4722 16 4742 0 q 4693 53 4703 32 q 4687 76 4688 64 q 4686 100 4686 89 q 4692 149 4686 115 q 4708 224 4699 182 q 4730 313 4718 267 q 4753 401 4742 358 q 4772 476 4764 443 q 4785 526 4781 510 q 4811 615 4797 572 q 4840 703 4825 658 q 4858 749 4844 715 q 4888 822 4872 783 q 4919 894 4904 860 q 4940 939 4933 928 q 4974 985 4956 963 q 5018 1017 4993 1008 q 5047 1019 5028 1018 q 5087 1022 5065 1021 q 5127 1022 5108 1022 q 5156 1018 5146 1021 q 5195 1003 5179 1014 q 5222 975 5211 992 q 5243 929 5231 961 q 5270 856 5256 897 q 5299 770 5285 815 q 5326 683 5313 725 q 5349 609 5339 642 q 5365 560 5360 576 q 5381 500 5371 539 q 5401 413 5390 461 q 5421 313 5411 365 q 5438 213 5431 261 q 5447 126 5444 165 q 5447 65 5450 88 q 5436 35 5443 50 q 5417 11 5429 21 q 5383 -6 5406 1 q 5335 -17 5361 -12 q 5285 -24 5310 -22 q 5247 -24 5261 -25 m 5150 286 q 5153 290 5153 285 q 5150 296 5153 294 q 5124 449 5142 375 q 5088 596 5107 522 q 5031 444 5056 522 q 4986 286 5006 367 q 5068 293 5026 293 q 5150 286 5110 293 m 5257 785 q 5255 801 5257 790 q 5249 823 5253 811 q 5242 845 5246 835 q 5238 861 5239 856 q 5190 951 5222 911 q 5173 968 5183 961 q 5154 969 5163 975 q 5140 950 5140 963 q 5154 933 5140 938 q 5160 925 5156 931 q 5165 918 5164 919 q 5185 881 5176 900 q 5200 842 5193 861 q 5208 815 5201 835 q 5215 789 5215 794 q 5223 775 5217 781 q 5236 769 5229 769 q 5249 772 5243 768 q 5257 785 5256 775 m 5274 696 q 5282 714 5283 701 q 5269 733 5281 726 q 5248 730 5258 739 q 5239 708 5238 721 q 5254 691 5243 696 q 5274 696 5265 686 m 5700 -7 q 5670 4 5685 -3 q 5644 22 5656 11 q 5619 58 5626 33 q 5610 107 5614 74 q 5603 181 5606 140 q 5598 268 5600 222 q 5594 356 5596 314 q 5592 431 5593 397 q 5589 482 5590 464 q 5594 635 5588 558 q 5607 786 5600 711 q 5566 783 5586 785 q 5525 785 5546 781 q 5488 797 5506 786 q 5461 826 5471 807 q 5449 862 5453 842 q 5448 902 5446 882 q 5457 940 5450 922 q 5475 971 5464 958 q 5517 999 5493 990 q 5567 1011 5540 1007 q 5641 1023 5604 1019 q 5717 1026 5678 1026 q 5775 1027 5732 1026 q 5867 1027 5818 1028 q 5958 1025 5915 1026 q 6018 1022 6001 1024 q 6045 1019 6031 1021 q 6071 1011 6060 1017 q 6108 971 6093 1000 q 6118 937 6115 957 q 6119 896 6121 917 q 6113 856 6118 875 q 6099 825 6107 836 q 6063 801 6086 807 q 6021 792 6040 794 q 5992 793 6013 792 q 5948 797 5971 794 q 5904 801 5925 799 q 5876 804 5883 803 q 5861 731 5869 767 q 5849 658 5853 696 q 5837 495 5838 576 q 5839 332 5836 414 q 5842 271 5839 313 q 5848 183 5846 229 q 5849 97 5850 138 q 5840 39 5849 56 q 5817 11 5833 22 q 5781 -5 5800 0 q 5740 -10 5761 -10 q 5700 -7 5718 -11 m 6031 989 q 6015 994 6024 993 q 5999 996 6006 994 q 5963 1002 5981 1001 q 5929 1003 5946 1003 q 5913 997 5918 1003 q 5907 982 5907 990 q 5913 967 5907 974 q 5929 961 5918 961 q 5959 960 5944 961 q 5989 956 5974 960 q 6001 953 5990 954 q 6014 951 6011 951 q 6030 951 6022 947 q 6040 961 6038 954 q 6042 976 6043 968 q 6031 989 6040 985 m 6082 922 q 6090 938 6089 931 q 6086 951 6090 946 q 6074 958 6082 957 q 6057 956 6067 960 q 6048 943 6047 951 q 6054 928 6049 935 q 6068 918 6060 921 q 6082 922 6076 915 m 6193 703 q 6175 711 6183 707 q 6160 724 6167 715 q 6146 748 6151 733 q 6138 779 6140 763 q 6135 811 6135 796 q 6139 838 6135 826 q 6144 847 6142 842 q 6154 856 6147 853 q 6169 865 6158 860 q 6194 875 6181 871 q 6219 883 6207 879 q 6236 888 6231 886 q 6276 899 6257 893 q 6314 913 6294 906 q 6350 917 6329 918 q 6386 908 6371 917 q 6416 869 6406 893 q 6428 821 6426 844 q 6428 788 6431 806 q 6415 758 6425 771 q 6385 736 6404 744 q 6350 725 6367 728 q 6318 718 6340 722 q 6272 710 6296 714 q 6225 703 6247 706 q 6193 703 6203 701 m 6350 60 q 6277 73 6314 64 q 6206 94 6240 82 q 6178 107 6193 99 q 6158 131 6164 115 q 6150 167 6149 146 q 6158 208 6151 189 q 6173 240 6163 225 q 6197 261 6183 256 q 6218 264 6204 264 q 6247 263 6232 264 q 6276 260 6263 263 q 6297 257 6290 258 q 6314 255 6301 256 q 6340 253 6326 254 q 6366 252 6354 253 q 6382 250 6378 251 q 6413 235 6397 244 q 6436 214 6429 226 q 6447 162 6449 190 q 6433 110 6444 133 q 6401 74 6424 83 q 6350 60 6379 60 m 6226 403 q 6197 429 6211 410 q 6190 455 6192 439 q 6188 488 6188 471 q 6190 519 6188 504 q 6200 544 6193 535 q 6206 552 6201 549 q 6215 560 6211 556 q 6233 566 6221 564 q 6260 570 6246 568 q 6287 574 6274 572 q 6307 575 6300 575 q 6345 581 6325 578 q 6385 588 6365 585 q 6421 585 6401 590 q 6453 568 6440 579 q 6478 525 6472 550 q 6482 476 6483 500 q 6475 450 6479 464 q 6464 425 6471 436 q 6426 400 6449 407 q 6383 394 6411 396 q 6325 392 6356 392 q 6267 394 6294 392 q 6226 403 6240 397 z "}}}
